M48
; DRILL file {KiCad (6.0.9)} date Wed Jan 18 13:19:17 2023
; FORMAT={-:-/ absolute / inch / decimal}
; #@! TF.CreationDate,2023-01-18T13:19:17+01:00
; #@! TF.GenerationSoftware,Kicad,Pcbnew,(6.0.9)
; #@! TF.FileFunction,Plated,1,2,PTH
FMAT,2
INCH
; #@! TA.AperFunction,Plated,PTH,ViaDrill
T1C0.0157
; #@! TA.AperFunction,Plated,PTH,ComponentDrill
T2C0.0394
; #@! TA.AperFunction,Plated,PTH,ComponentDrill
T3C0.0598
%
G90
G05
T1
X5.5Y-3.07
X5.86Y-3.61
X5.88Y-3.16
X6.01Y-3.72
X6.05Y-3.72
X6.29Y-3.73
X6.38Y-3.52
X6.52Y-3.68
X6.56Y-3.42
X6.6Y-3.59
X6.66Y-3.7
X6.75Y-3.07
T2
X5.64Y-3.3298
X5.64Y-3.4298
X5.64Y-3.5298
X5.64Y-3.6298
X5.64Y-3.7298
X5.64Y-3.8298
X5.64Y-3.9298
X5.8098Y-3.93
X5.9098Y-3.93
X6.0098Y-3.93
X6.1098Y-3.93
X6.2098Y-3.93
X6.3098Y-3.93
X6.4098Y-3.93
X6.58Y-3.15
X6.58Y-3.25
X6.58Y-3.35
T3
X6.82Y-3.23
X6.82Y-3.43
X6.82Y-3.63
X6.82Y-3.83
T2
G00X5.2438Y-3.6806
M15
G01X5.2438Y-3.7594
M16
G05
G00X5.3225Y-3.905
M15
G01X5.4013Y-3.905
M16
G05
G00X5.48Y-3.6806
M15
G01X5.48Y-3.7594
M16
G05
T0
M30
