%TF.GenerationSoftware,KiCad,Pcbnew,(6.0.9)*%
%TF.CreationDate,2023-01-18T13:19:17+01:00*%
%TF.ProjectId,WLED_All-in-one_ESP32_Controller,574c4544-5f41-46c6-9c2d-696e2d6f6e65,rev?*%
%TF.SameCoordinates,Original*%
%TF.FileFunction,Legend,Bot*%
%TF.FilePolarity,Positive*%
%FSLAX46Y46*%
G04 Gerber Fmt 4.6, Leading zero omitted, Abs format (unit mm)*
G04 Created by KiCad (PCBNEW (6.0.9)) date 2023-01-18 13:19:17*
%MOMM*%
%LPD*%
G01*
G04 APERTURE LIST*
G04 Aperture macros list*
%AMRoundRect*
0 Rectangle with rounded corners*
0 $1 Rounding radius*
0 $2 $3 $4 $5 $6 $7 $8 $9 X,Y pos of 4 corners*
0 Add a 4 corners polygon primitive as box body*
4,1,4,$2,$3,$4,$5,$6,$7,$8,$9,$2,$3,0*
0 Add four circle primitives for the rounded corners*
1,1,$1+$1,$2,$3*
1,1,$1+$1,$4,$5*
1,1,$1+$1,$6,$7*
1,1,$1+$1,$8,$9*
0 Add four rect primitives between the rounded corners*
20,1,$1+$1,$2,$3,$4,$5,0*
20,1,$1+$1,$4,$5,$6,$7,0*
20,1,$1+$1,$6,$7,$8,$9,0*
20,1,$1+$1,$8,$9,$2,$3,0*%
G04 Aperture macros list end*
%ADD10C,0.150000*%
%ADD11C,0.200000*%
%ADD12C,0.125000*%
%ADD13C,0.300000*%
%ADD14C,0.010000*%
%ADD15R,3.500000X3.500000*%
%ADD16RoundRect,0.750000X-0.750000X-1.000000X0.750000X-1.000000X0.750000X1.000000X-0.750000X1.000000X0*%
%ADD17RoundRect,0.875000X-0.875000X-0.875000X0.875000X-0.875000X0.875000X0.875000X-0.875000X0.875000X0*%
%ADD18R,3.000000X3.000000*%
%ADD19C,3.000000*%
%ADD20R,1.700000X1.700000*%
%ADD21O,1.700000X1.700000*%
G04 APERTURE END LIST*
D10*
X175522000Y-91440095D02*
X175474380Y-91344857D01*
X175474380Y-91202000D01*
X175522000Y-91059142D01*
X175617238Y-90963904D01*
X175712476Y-90916285D01*
X175902952Y-90868666D01*
X176045809Y-90868666D01*
X176236285Y-90916285D01*
X176331523Y-90963904D01*
X176426761Y-91059142D01*
X176474380Y-91202000D01*
X176474380Y-91297238D01*
X176426761Y-91440095D01*
X176379142Y-91487714D01*
X176045809Y-91487714D01*
X176045809Y-91297238D01*
X176474380Y-91916285D02*
X175474380Y-91916285D01*
X176474380Y-92487714D01*
X175474380Y-92487714D01*
X176474380Y-92963904D02*
X175474380Y-92963904D01*
X175474380Y-93202000D01*
X175522000Y-93344857D01*
X175617238Y-93440095D01*
X175712476Y-93487714D01*
X175902952Y-93535333D01*
X176045809Y-93535333D01*
X176236285Y-93487714D01*
X176331523Y-93440095D01*
X176426761Y-93344857D01*
X176474380Y-93202000D01*
X176474380Y-92963904D01*
X175474380Y-85645809D02*
X175474380Y-85836285D01*
X175522000Y-85931523D01*
X175617238Y-86026761D01*
X175807714Y-86074380D01*
X176141047Y-86074380D01*
X176331523Y-86026761D01*
X176426761Y-85931523D01*
X176474380Y-85836285D01*
X176474380Y-85645809D01*
X176426761Y-85550571D01*
X176331523Y-85455333D01*
X176141047Y-85407714D01*
X175807714Y-85407714D01*
X175617238Y-85455333D01*
X175522000Y-85550571D01*
X175474380Y-85645809D01*
X175474380Y-86502952D02*
X176283904Y-86502952D01*
X176379142Y-86550571D01*
X176426761Y-86598190D01*
X176474380Y-86693428D01*
X176474380Y-86883904D01*
X176426761Y-86979142D01*
X176379142Y-87026761D01*
X176283904Y-87074380D01*
X175474380Y-87074380D01*
X175474380Y-87407714D02*
X175474380Y-87979142D01*
X176474380Y-87693428D02*
X175474380Y-87693428D01*
X176474380Y-88836285D02*
X176474380Y-88264857D01*
X176474380Y-88550571D02*
X175474380Y-88550571D01*
X175617238Y-88455333D01*
X175712476Y-88360095D01*
X175760095Y-88264857D01*
X175474380Y-80565809D02*
X175474380Y-80756285D01*
X175522000Y-80851523D01*
X175617238Y-80946761D01*
X175807714Y-80994380D01*
X176141047Y-80994380D01*
X176331523Y-80946761D01*
X176426761Y-80851523D01*
X176474380Y-80756285D01*
X176474380Y-80565809D01*
X176426761Y-80470571D01*
X176331523Y-80375333D01*
X176141047Y-80327714D01*
X175807714Y-80327714D01*
X175617238Y-80375333D01*
X175522000Y-80470571D01*
X175474380Y-80565809D01*
X175474380Y-81422952D02*
X176283904Y-81422952D01*
X176379142Y-81470571D01*
X176426761Y-81518190D01*
X176474380Y-81613428D01*
X176474380Y-81803904D01*
X176426761Y-81899142D01*
X176379142Y-81946761D01*
X176283904Y-81994380D01*
X175474380Y-81994380D01*
X175474380Y-82327714D02*
X175474380Y-82899142D01*
X176474380Y-82613428D02*
X175474380Y-82613428D01*
X175569619Y-83184857D02*
X175522000Y-83232476D01*
X175474380Y-83327714D01*
X175474380Y-83565809D01*
X175522000Y-83661047D01*
X175569619Y-83708666D01*
X175664857Y-83756285D01*
X175760095Y-83756285D01*
X175902952Y-83708666D01*
X176474380Y-83137238D01*
X176474380Y-83756285D01*
D11*
X164755714Y-78997071D02*
X164398571Y-80497071D01*
X164112857Y-79425642D01*
X163827142Y-80497071D01*
X163470000Y-78997071D01*
X162184285Y-80497071D02*
X162898571Y-80497071D01*
X162898571Y-78997071D01*
X161684285Y-79711357D02*
X161184285Y-79711357D01*
X160970000Y-80497071D02*
X161684285Y-80497071D01*
X161684285Y-78997071D01*
X160970000Y-78997071D01*
X160327142Y-80497071D02*
X160327142Y-78997071D01*
X159970000Y-78997071D01*
X159755714Y-79068500D01*
X159612857Y-79211357D01*
X159541428Y-79354214D01*
X159470000Y-79639928D01*
X159470000Y-79854214D01*
X159541428Y-80139928D01*
X159612857Y-80282785D01*
X159755714Y-80425642D01*
X159970000Y-80497071D01*
X160327142Y-80497071D01*
X157755714Y-80068500D02*
X157041428Y-80068500D01*
X157898571Y-80497071D02*
X157398571Y-78997071D01*
X156898571Y-80497071D01*
X156398571Y-80497071D02*
X156398571Y-78997071D01*
X155398571Y-78997071D02*
X155112857Y-78997071D01*
X154970000Y-79068500D01*
X154827142Y-79211357D01*
X154755714Y-79497071D01*
X154755714Y-79997071D01*
X154827142Y-80282785D01*
X154970000Y-80425642D01*
X155112857Y-80497071D01*
X155398571Y-80497071D01*
X155541428Y-80425642D01*
X155684285Y-80282785D01*
X155755714Y-79997071D01*
X155755714Y-79497071D01*
X155684285Y-79211357D01*
X155541428Y-79068500D01*
X155398571Y-78997071D01*
X152112857Y-80354214D02*
X152184285Y-80425642D01*
X152398571Y-80497071D01*
X152541428Y-80497071D01*
X152755714Y-80425642D01*
X152898571Y-80282785D01*
X152970000Y-80139928D01*
X153041428Y-79854214D01*
X153041428Y-79639928D01*
X152970000Y-79354214D01*
X152898571Y-79211357D01*
X152755714Y-79068500D01*
X152541428Y-78997071D01*
X152398571Y-78997071D01*
X152184285Y-79068500D01*
X152112857Y-79139928D01*
X151255714Y-80497071D02*
X151398571Y-80425642D01*
X151470000Y-80354214D01*
X151541428Y-80211357D01*
X151541428Y-79782785D01*
X151470000Y-79639928D01*
X151398571Y-79568500D01*
X151255714Y-79497071D01*
X151041428Y-79497071D01*
X150898571Y-79568500D01*
X150827142Y-79639928D01*
X150755714Y-79782785D01*
X150755714Y-80211357D01*
X150827142Y-80354214D01*
X150898571Y-80425642D01*
X151041428Y-80497071D01*
X151255714Y-80497071D01*
X150112857Y-79497071D02*
X150112857Y-80497071D01*
X150112857Y-79639928D02*
X150041428Y-79568500D01*
X149898571Y-79497071D01*
X149684285Y-79497071D01*
X149541428Y-79568500D01*
X149470000Y-79711357D01*
X149470000Y-80497071D01*
X148970000Y-79497071D02*
X148398571Y-79497071D01*
X148755714Y-78997071D02*
X148755714Y-80282785D01*
X148684285Y-80425642D01*
X148541428Y-80497071D01*
X148398571Y-80497071D01*
X147898571Y-80497071D02*
X147898571Y-79497071D01*
X147898571Y-79782785D02*
X147827142Y-79639928D01*
X147755714Y-79568500D01*
X147612857Y-79497071D01*
X147470000Y-79497071D01*
X146755714Y-80497071D02*
X146898571Y-80425642D01*
X146970000Y-80354214D01*
X147041428Y-80211357D01*
X147041428Y-79782785D01*
X146970000Y-79639928D01*
X146898571Y-79568500D01*
X146755714Y-79497071D01*
X146541428Y-79497071D01*
X146398571Y-79568500D01*
X146327142Y-79639928D01*
X146255714Y-79782785D01*
X146255714Y-80211357D01*
X146327142Y-80354214D01*
X146398571Y-80425642D01*
X146541428Y-80497071D01*
X146755714Y-80497071D01*
X145398571Y-80497071D02*
X145541428Y-80425642D01*
X145612857Y-80282785D01*
X145612857Y-78997071D01*
X144612857Y-80497071D02*
X144755714Y-80425642D01*
X144827142Y-80282785D01*
X144827142Y-78997071D01*
X143470000Y-80425642D02*
X143612857Y-80497071D01*
X143898571Y-80497071D01*
X144041428Y-80425642D01*
X144112857Y-80282785D01*
X144112857Y-79711357D01*
X144041428Y-79568500D01*
X143898571Y-79497071D01*
X143612857Y-79497071D01*
X143470000Y-79568500D01*
X143398571Y-79711357D01*
X143398571Y-79854214D01*
X144112857Y-79997071D01*
X142755714Y-80497071D02*
X142755714Y-79497071D01*
X142755714Y-79782785D02*
X142684285Y-79639928D01*
X142612857Y-79568500D01*
X142470000Y-79497071D01*
X142327142Y-79497071D01*
X140898571Y-78997071D02*
X140398571Y-80497071D01*
X139898571Y-78997071D01*
X139541428Y-78997071D02*
X138612857Y-78997071D01*
X139112857Y-79568500D01*
X138898571Y-79568500D01*
X138755714Y-79639928D01*
X138684285Y-79711357D01*
X138612857Y-79854214D01*
X138612857Y-80211357D01*
X138684285Y-80354214D01*
X138755714Y-80425642D01*
X138898571Y-80497071D01*
X139327142Y-80497071D01*
X139470000Y-80425642D01*
X139541428Y-80354214D01*
X164612857Y-82912071D02*
X164612857Y-81412071D01*
X164612857Y-81983500D02*
X164470000Y-81912071D01*
X164184285Y-81912071D01*
X164041428Y-81983500D01*
X163970000Y-82054928D01*
X163898571Y-82197785D01*
X163898571Y-82626357D01*
X163970000Y-82769214D01*
X164041428Y-82840642D01*
X164184285Y-82912071D01*
X164470000Y-82912071D01*
X164612857Y-82840642D01*
X163398571Y-81912071D02*
X163041428Y-82912071D01*
X162684285Y-81912071D02*
X163041428Y-82912071D01*
X163184285Y-83269214D01*
X163255714Y-83340642D01*
X163398571Y-83412071D01*
X161041428Y-82840642D02*
X160827142Y-82912071D01*
X160470000Y-82912071D01*
X160327142Y-82840642D01*
X160255714Y-82769214D01*
X160184285Y-82626357D01*
X160184285Y-82483500D01*
X160255714Y-82340642D01*
X160327142Y-82269214D01*
X160470000Y-82197785D01*
X160755714Y-82126357D01*
X160898571Y-82054928D01*
X160970000Y-81983500D01*
X161041428Y-81840642D01*
X161041428Y-81697785D01*
X160970000Y-81554928D01*
X160898571Y-81483500D01*
X160755714Y-81412071D01*
X160398571Y-81412071D01*
X160184285Y-81483500D01*
X159755714Y-81912071D02*
X159184285Y-81912071D01*
X159541428Y-81412071D02*
X159541428Y-82697785D01*
X159470000Y-82840642D01*
X159327142Y-82912071D01*
X159184285Y-82912071D01*
X158112857Y-82840642D02*
X158255714Y-82912071D01*
X158541428Y-82912071D01*
X158684285Y-82840642D01*
X158755714Y-82697785D01*
X158755714Y-82126357D01*
X158684285Y-81983500D01*
X158541428Y-81912071D01*
X158255714Y-81912071D01*
X158112857Y-81983500D01*
X158041428Y-82126357D01*
X158041428Y-82269214D01*
X158755714Y-82412071D01*
X157612857Y-81912071D02*
X157041428Y-81912071D01*
X157398571Y-82912071D02*
X157398571Y-81626357D01*
X157327142Y-81483500D01*
X157184285Y-81412071D01*
X157041428Y-81412071D01*
X155898571Y-82912071D02*
X155898571Y-82126357D01*
X155970000Y-81983500D01*
X156112857Y-81912071D01*
X156398571Y-81912071D01*
X156541428Y-81983500D01*
X155898571Y-82840642D02*
X156041428Y-82912071D01*
X156398571Y-82912071D01*
X156541428Y-82840642D01*
X156612857Y-82697785D01*
X156612857Y-82554928D01*
X156541428Y-82412071D01*
X156398571Y-82340642D01*
X156041428Y-82340642D01*
X155898571Y-82269214D01*
X155184285Y-81912071D02*
X155184285Y-82912071D01*
X155184285Y-82054928D02*
X155112857Y-81983500D01*
X154970000Y-81912071D01*
X154755714Y-81912071D01*
X154612857Y-81983500D01*
X154541428Y-82126357D01*
X154541428Y-82912071D01*
X151827142Y-82912071D02*
X152327142Y-82197785D01*
X152684285Y-82912071D02*
X152684285Y-81412071D01*
X152112857Y-81412071D01*
X151970000Y-81483500D01*
X151898571Y-81554928D01*
X151827142Y-81697785D01*
X151827142Y-81912071D01*
X151898571Y-82054928D01*
X151970000Y-82126357D01*
X152112857Y-82197785D01*
X152684285Y-82197785D01*
X151184285Y-82912071D02*
X151184285Y-81912071D01*
X151184285Y-81412071D02*
X151255714Y-81483500D01*
X151184285Y-81554928D01*
X151112857Y-81483500D01*
X151184285Y-81412071D01*
X151184285Y-81554928D01*
X149898571Y-82840642D02*
X150041428Y-82912071D01*
X150327142Y-82912071D01*
X150470000Y-82840642D01*
X150541428Y-82697785D01*
X150541428Y-82126357D01*
X150470000Y-81983500D01*
X150327142Y-81912071D01*
X150041428Y-81912071D01*
X149898571Y-81983500D01*
X149827142Y-82126357D01*
X149827142Y-82269214D01*
X150541428Y-82412071D01*
X149255714Y-82840642D02*
X149112857Y-82912071D01*
X148827142Y-82912071D01*
X148684285Y-82840642D01*
X148612857Y-82697785D01*
X148612857Y-82626357D01*
X148684285Y-82483500D01*
X148827142Y-82412071D01*
X149041428Y-82412071D01*
X149184285Y-82340642D01*
X149255714Y-82197785D01*
X149255714Y-82126357D01*
X149184285Y-81983500D01*
X149041428Y-81912071D01*
X148827142Y-81912071D01*
X148684285Y-81983500D01*
X147398571Y-82840642D02*
X147541428Y-82912071D01*
X147827142Y-82912071D01*
X147970000Y-82840642D01*
X148041428Y-82697785D01*
X148041428Y-82126357D01*
X147970000Y-81983500D01*
X147827142Y-81912071D01*
X147541428Y-81912071D01*
X147398571Y-81983500D01*
X147327142Y-82126357D01*
X147327142Y-82269214D01*
X148041428Y-82412071D01*
D10*
X170820928Y-79978285D02*
X170356642Y-79978285D01*
X170606642Y-80264000D01*
X170499500Y-80264000D01*
X170428071Y-80299714D01*
X170392357Y-80335428D01*
X170356642Y-80406857D01*
X170356642Y-80585428D01*
X170392357Y-80656857D01*
X170428071Y-80692571D01*
X170499500Y-80728285D01*
X170713785Y-80728285D01*
X170785214Y-80692571D01*
X170820928Y-80656857D01*
X170035214Y-80656857D02*
X169999500Y-80692571D01*
X170035214Y-80728285D01*
X170070928Y-80692571D01*
X170035214Y-80656857D01*
X170035214Y-80728285D01*
X169749500Y-79978285D02*
X169285214Y-79978285D01*
X169535214Y-80264000D01*
X169428071Y-80264000D01*
X169356642Y-80299714D01*
X169320928Y-80335428D01*
X169285214Y-80406857D01*
X169285214Y-80585428D01*
X169320928Y-80656857D01*
X169356642Y-80692571D01*
X169428071Y-80728285D01*
X169642357Y-80728285D01*
X169713785Y-80692571D01*
X169749500Y-80656857D01*
X169070928Y-79978285D02*
X168820928Y-80728285D01*
X168570928Y-79978285D01*
X170213785Y-82429000D02*
X170285214Y-82393285D01*
X170392357Y-82393285D01*
X170499500Y-82429000D01*
X170570928Y-82500428D01*
X170606642Y-82571857D01*
X170642357Y-82714714D01*
X170642357Y-82821857D01*
X170606642Y-82964714D01*
X170570928Y-83036142D01*
X170499500Y-83107571D01*
X170392357Y-83143285D01*
X170320928Y-83143285D01*
X170213785Y-83107571D01*
X170178071Y-83071857D01*
X170178071Y-82821857D01*
X170320928Y-82821857D01*
X169856642Y-83143285D02*
X169856642Y-82393285D01*
X169428071Y-83143285D01*
X169428071Y-82393285D01*
X169070928Y-83143285D02*
X169070928Y-82393285D01*
X168892357Y-82393285D01*
X168785214Y-82429000D01*
X168713785Y-82500428D01*
X168678071Y-82571857D01*
X168642357Y-82714714D01*
X168642357Y-82821857D01*
X168678071Y-82964714D01*
X168713785Y-83036142D01*
X168785214Y-83107571D01*
X168892357Y-83143285D01*
X169070928Y-83143285D01*
X169428071Y-85558285D02*
X169428071Y-84808285D01*
X168642357Y-85558285D02*
X168892357Y-85201142D01*
X169070928Y-85558285D02*
X169070928Y-84808285D01*
X168785214Y-84808285D01*
X168713785Y-84844000D01*
X168678071Y-84879714D01*
X168642357Y-84951142D01*
X168642357Y-85058285D01*
X168678071Y-85129714D01*
X168713785Y-85165428D01*
X168785214Y-85201142D01*
X169070928Y-85201142D01*
X139382476Y-90892380D02*
X139858666Y-90892380D01*
X139906285Y-91368571D01*
X139858666Y-91320952D01*
X139763428Y-91273333D01*
X139525333Y-91273333D01*
X139430095Y-91320952D01*
X139382476Y-91368571D01*
X139334857Y-91463809D01*
X139334857Y-91701904D01*
X139382476Y-91797142D01*
X139430095Y-91844761D01*
X139525333Y-91892380D01*
X139763428Y-91892380D01*
X139858666Y-91844761D01*
X139906285Y-91797142D01*
X139049142Y-90892380D02*
X138715809Y-91892380D01*
X138382476Y-90892380D01*
D12*
X146575535Y-83886500D02*
X146646964Y-83850785D01*
X146754107Y-83850785D01*
X146861250Y-83886500D01*
X146932678Y-83957928D01*
X146968392Y-84029357D01*
X147004107Y-84172214D01*
X147004107Y-84279357D01*
X146968392Y-84422214D01*
X146932678Y-84493642D01*
X146861250Y-84565071D01*
X146754107Y-84600785D01*
X146682678Y-84600785D01*
X146575535Y-84565071D01*
X146539821Y-84529357D01*
X146539821Y-84279357D01*
X146682678Y-84279357D01*
X146218392Y-84600785D02*
X146218392Y-83850785D01*
X145789821Y-84600785D01*
X145789821Y-83850785D01*
X145432678Y-84600785D02*
X145432678Y-83850785D01*
X145254107Y-83850785D01*
X145146964Y-83886500D01*
X145075535Y-83957928D01*
X145039821Y-84029357D01*
X145004107Y-84172214D01*
X145004107Y-84279357D01*
X145039821Y-84422214D01*
X145075535Y-84493642D01*
X145146964Y-84565071D01*
X145254107Y-84600785D01*
X145432678Y-84600785D01*
X148682678Y-85808285D02*
X148682678Y-85058285D01*
X148432678Y-85594000D01*
X148182678Y-85058285D01*
X148182678Y-85808285D01*
X147825535Y-85808285D02*
X147825535Y-85058285D01*
X147039821Y-85736857D02*
X147075535Y-85772571D01*
X147182678Y-85808285D01*
X147254107Y-85808285D01*
X147361250Y-85772571D01*
X147432678Y-85701142D01*
X147468392Y-85629714D01*
X147504107Y-85486857D01*
X147504107Y-85379714D01*
X147468392Y-85236857D01*
X147432678Y-85165428D01*
X147361250Y-85094000D01*
X147254107Y-85058285D01*
X147182678Y-85058285D01*
X147075535Y-85094000D01*
X147039821Y-85129714D01*
X146896964Y-85879714D02*
X146325535Y-85879714D01*
X146182678Y-85772571D02*
X146075535Y-85808285D01*
X145896964Y-85808285D01*
X145825535Y-85772571D01*
X145789821Y-85736857D01*
X145754107Y-85665428D01*
X145754107Y-85594000D01*
X145789821Y-85522571D01*
X145825535Y-85486857D01*
X145896964Y-85451142D01*
X146039821Y-85415428D01*
X146111250Y-85379714D01*
X146146964Y-85344000D01*
X146182678Y-85272571D01*
X146182678Y-85201142D01*
X146146964Y-85129714D01*
X146111250Y-85094000D01*
X146039821Y-85058285D01*
X145861250Y-85058285D01*
X145754107Y-85094000D01*
X145432678Y-85808285D02*
X145432678Y-85058285D01*
X145254107Y-85058285D01*
X145146964Y-85094000D01*
X145075535Y-85165428D01*
X145039821Y-85236857D01*
X145004107Y-85379714D01*
X145004107Y-85486857D01*
X145039821Y-85629714D01*
X145075535Y-85701142D01*
X145146964Y-85772571D01*
X145254107Y-85808285D01*
X145432678Y-85808285D01*
X148789821Y-87015785D02*
X148789821Y-86265785D01*
X148539821Y-86801500D01*
X148289821Y-86265785D01*
X148289821Y-87015785D01*
X147932678Y-87015785D02*
X147932678Y-86265785D01*
X147146964Y-86944357D02*
X147182678Y-86980071D01*
X147289821Y-87015785D01*
X147361250Y-87015785D01*
X147468392Y-86980071D01*
X147539821Y-86908642D01*
X147575535Y-86837214D01*
X147611250Y-86694357D01*
X147611250Y-86587214D01*
X147575535Y-86444357D01*
X147539821Y-86372928D01*
X147468392Y-86301500D01*
X147361250Y-86265785D01*
X147289821Y-86265785D01*
X147182678Y-86301500D01*
X147146964Y-86337214D01*
X147004107Y-87087214D02*
X146432678Y-87087214D01*
X146325535Y-86265785D02*
X146146964Y-87015785D01*
X146004107Y-86480071D01*
X145861250Y-87015785D01*
X145682678Y-86265785D01*
X145432678Y-86980071D02*
X145325535Y-87015785D01*
X145146964Y-87015785D01*
X145075535Y-86980071D01*
X145039821Y-86944357D01*
X145004107Y-86872928D01*
X145004107Y-86801500D01*
X145039821Y-86730071D01*
X145075535Y-86694357D01*
X145146964Y-86658642D01*
X145289821Y-86622928D01*
X145361250Y-86587214D01*
X145396964Y-86551500D01*
X145432678Y-86480071D01*
X145432678Y-86408642D01*
X145396964Y-86337214D01*
X145361250Y-86301500D01*
X145289821Y-86265785D01*
X145111250Y-86265785D01*
X145004107Y-86301500D01*
X149432678Y-88223285D02*
X149432678Y-87473285D01*
X149182678Y-88009000D01*
X148932678Y-87473285D01*
X148932678Y-88223285D01*
X148575535Y-88223285D02*
X148575535Y-87473285D01*
X147789821Y-88151857D02*
X147825535Y-88187571D01*
X147932678Y-88223285D01*
X148004107Y-88223285D01*
X148111250Y-88187571D01*
X148182678Y-88116142D01*
X148218392Y-88044714D01*
X148254107Y-87901857D01*
X148254107Y-87794714D01*
X148218392Y-87651857D01*
X148182678Y-87580428D01*
X148111250Y-87509000D01*
X148004107Y-87473285D01*
X147932678Y-87473285D01*
X147825535Y-87509000D01*
X147789821Y-87544714D01*
X147646964Y-88294714D02*
X147075535Y-88294714D01*
X146932678Y-88187571D02*
X146825535Y-88223285D01*
X146646964Y-88223285D01*
X146575535Y-88187571D01*
X146539821Y-88151857D01*
X146504107Y-88080428D01*
X146504107Y-88009000D01*
X146539821Y-87937571D01*
X146575535Y-87901857D01*
X146646964Y-87866142D01*
X146789821Y-87830428D01*
X146861250Y-87794714D01*
X146896964Y-87759000D01*
X146932678Y-87687571D01*
X146932678Y-87616142D01*
X146896964Y-87544714D01*
X146861250Y-87509000D01*
X146789821Y-87473285D01*
X146611250Y-87473285D01*
X146504107Y-87509000D01*
X145754107Y-88151857D02*
X145789821Y-88187571D01*
X145896964Y-88223285D01*
X145968392Y-88223285D01*
X146075535Y-88187571D01*
X146146964Y-88116142D01*
X146182678Y-88044714D01*
X146218392Y-87901857D01*
X146218392Y-87794714D01*
X146182678Y-87651857D01*
X146146964Y-87580428D01*
X146075535Y-87509000D01*
X145968392Y-87473285D01*
X145896964Y-87473285D01*
X145789821Y-87509000D01*
X145754107Y-87544714D01*
X145432678Y-88223285D02*
X145432678Y-87473285D01*
X145004107Y-88223285D02*
X145325535Y-87794714D01*
X145004107Y-87473285D02*
X145432678Y-87901857D01*
X147182678Y-88680785D02*
X146718392Y-88680785D01*
X146968392Y-88966500D01*
X146861250Y-88966500D01*
X146789821Y-89002214D01*
X146754107Y-89037928D01*
X146718392Y-89109357D01*
X146718392Y-89287928D01*
X146754107Y-89359357D01*
X146789821Y-89395071D01*
X146861250Y-89430785D01*
X147075535Y-89430785D01*
X147146964Y-89395071D01*
X147182678Y-89359357D01*
X146396964Y-89359357D02*
X146361250Y-89395071D01*
X146396964Y-89430785D01*
X146432678Y-89395071D01*
X146396964Y-89359357D01*
X146396964Y-89430785D01*
X146111250Y-88680785D02*
X145646964Y-88680785D01*
X145896964Y-88966500D01*
X145789821Y-88966500D01*
X145718392Y-89002214D01*
X145682678Y-89037928D01*
X145646964Y-89109357D01*
X145646964Y-89287928D01*
X145682678Y-89359357D01*
X145718392Y-89395071D01*
X145789821Y-89430785D01*
X146004107Y-89430785D01*
X146075535Y-89395071D01*
X146111250Y-89359357D01*
X145432678Y-88680785D02*
X145182678Y-89430785D01*
X144932678Y-88680785D01*
X146575535Y-89924000D02*
X146646964Y-89888285D01*
X146754107Y-89888285D01*
X146861250Y-89924000D01*
X146932678Y-89995428D01*
X146968392Y-90066857D01*
X147004107Y-90209714D01*
X147004107Y-90316857D01*
X146968392Y-90459714D01*
X146932678Y-90531142D01*
X146861250Y-90602571D01*
X146754107Y-90638285D01*
X146682678Y-90638285D01*
X146575535Y-90602571D01*
X146539821Y-90566857D01*
X146539821Y-90316857D01*
X146682678Y-90316857D01*
X146218392Y-90638285D02*
X146218392Y-89888285D01*
X145789821Y-90638285D01*
X145789821Y-89888285D01*
X145432678Y-90638285D02*
X145432678Y-89888285D01*
X145254107Y-89888285D01*
X145146964Y-89924000D01*
X145075535Y-89995428D01*
X145039821Y-90066857D01*
X145004107Y-90209714D01*
X145004107Y-90316857D01*
X145039821Y-90459714D01*
X145075535Y-90531142D01*
X145146964Y-90602571D01*
X145254107Y-90638285D01*
X145432678Y-90638285D01*
X147575535Y-91631500D02*
X147218392Y-91631500D01*
X147646964Y-91845785D02*
X147396964Y-91095785D01*
X147146964Y-91845785D01*
X146896964Y-91845785D02*
X146896964Y-91095785D01*
X146718392Y-91095785D01*
X146611250Y-91131500D01*
X146539821Y-91202928D01*
X146504107Y-91274357D01*
X146468392Y-91417214D01*
X146468392Y-91524357D01*
X146504107Y-91667214D01*
X146539821Y-91738642D01*
X146611250Y-91810071D01*
X146718392Y-91845785D01*
X146896964Y-91845785D01*
X145718392Y-91774357D02*
X145754107Y-91810071D01*
X145861250Y-91845785D01*
X145932678Y-91845785D01*
X146039821Y-91810071D01*
X146111250Y-91738642D01*
X146146964Y-91667214D01*
X146182678Y-91524357D01*
X146182678Y-91417214D01*
X146146964Y-91274357D01*
X146111250Y-91202928D01*
X146039821Y-91131500D01*
X145932678Y-91095785D01*
X145861250Y-91095785D01*
X145754107Y-91131500D01*
X145718392Y-91167214D01*
X145004107Y-91845785D02*
X145432678Y-91845785D01*
X145218392Y-91845785D02*
X145218392Y-91095785D01*
X145289821Y-91202928D01*
X145361250Y-91274357D01*
X145432678Y-91310071D01*
D13*
X140675714Y-90197714D02*
X140604285Y-90269142D01*
X140675714Y-90340571D01*
X140747142Y-90269142D01*
X140675714Y-90197714D01*
X140675714Y-90340571D01*
X140675714Y-89769142D02*
X140747142Y-88912000D01*
X140675714Y-88840571D01*
X140604285Y-88912000D01*
X140675714Y-89769142D01*
X140675714Y-88840571D01*
X139961428Y-90340571D02*
X139961428Y-88840571D01*
X139461428Y-89912000D01*
X138961428Y-88840571D01*
X138961428Y-90340571D01*
X137604285Y-90340571D02*
X137604285Y-89554857D01*
X137675714Y-89412000D01*
X137818571Y-89340571D01*
X138104285Y-89340571D01*
X138247142Y-89412000D01*
X137604285Y-90269142D02*
X137747142Y-90340571D01*
X138104285Y-90340571D01*
X138247142Y-90269142D01*
X138318571Y-90126285D01*
X138318571Y-89983428D01*
X138247142Y-89840571D01*
X138104285Y-89769142D01*
X137747142Y-89769142D01*
X137604285Y-89697714D01*
X137032857Y-90340571D02*
X136247142Y-89340571D01*
X137032857Y-89340571D02*
X136247142Y-90340571D01*
X135675714Y-90197714D02*
X135604285Y-90269142D01*
X135675714Y-90340571D01*
X135747142Y-90269142D01*
X135675714Y-90197714D01*
X135675714Y-90340571D01*
X133104285Y-88840571D02*
X133818571Y-88840571D01*
X133890000Y-89554857D01*
X133818571Y-89483428D01*
X133675714Y-89412000D01*
X133318571Y-89412000D01*
X133175714Y-89483428D01*
X133104285Y-89554857D01*
X133032857Y-89697714D01*
X133032857Y-90054857D01*
X133104285Y-90197714D01*
X133175714Y-90269142D01*
X133318571Y-90340571D01*
X133675714Y-90340571D01*
X133818571Y-90269142D01*
X133890000Y-90197714D01*
X132461428Y-89912000D02*
X131747142Y-89912000D01*
X132604285Y-90340571D02*
X132104285Y-88840571D01*
X131604285Y-90340571D01*
X131104285Y-90197714D02*
X131032857Y-90269142D01*
X131104285Y-90340571D01*
X131175714Y-90269142D01*
X131104285Y-90197714D01*
X131104285Y-90340571D01*
X131104285Y-89769142D02*
X131175714Y-88912000D01*
X131104285Y-88840571D01*
X131032857Y-88912000D01*
X131104285Y-89769142D01*
X131104285Y-88840571D01*
D10*
X163590857Y-97736428D02*
X163483714Y-97772142D01*
X163448000Y-97807857D01*
X163412285Y-97879285D01*
X163412285Y-97986428D01*
X163448000Y-98057857D01*
X163483714Y-98093571D01*
X163555142Y-98129285D01*
X163840857Y-98129285D01*
X163840857Y-97379285D01*
X163590857Y-97379285D01*
X163519428Y-97415000D01*
X163483714Y-97450714D01*
X163448000Y-97522142D01*
X163448000Y-97593571D01*
X163483714Y-97665000D01*
X163519428Y-97700714D01*
X163590857Y-97736428D01*
X163840857Y-97736428D01*
X163198000Y-97379285D02*
X162769428Y-97379285D01*
X162983714Y-98129285D02*
X162983714Y-97379285D01*
X162519428Y-98129285D02*
X162519428Y-97379285D01*
X162090857Y-98129285D01*
X162090857Y-97379285D01*
X160769428Y-97415000D02*
X160840857Y-97379285D01*
X160948000Y-97379285D01*
X161055142Y-97415000D01*
X161126571Y-97486428D01*
X161162285Y-97557857D01*
X161198000Y-97700714D01*
X161198000Y-97807857D01*
X161162285Y-97950714D01*
X161126571Y-98022142D01*
X161055142Y-98093571D01*
X160948000Y-98129285D01*
X160876571Y-98129285D01*
X160769428Y-98093571D01*
X160733714Y-98057857D01*
X160733714Y-97807857D01*
X160876571Y-97807857D01*
X160412285Y-98129285D02*
X160412285Y-97379285D01*
X159983714Y-98129285D01*
X159983714Y-97379285D01*
X159626571Y-98129285D02*
X159626571Y-97379285D01*
X159448000Y-97379285D01*
X159340857Y-97415000D01*
X159269428Y-97486428D01*
X159233714Y-97557857D01*
X159198000Y-97700714D01*
X159198000Y-97807857D01*
X159233714Y-97950714D01*
X159269428Y-98022142D01*
X159340857Y-98093571D01*
X159448000Y-98129285D01*
X159626571Y-98129285D01*
X158305142Y-98129285D02*
X158305142Y-97379285D01*
X157805142Y-97379285D02*
X157662285Y-97379285D01*
X157590857Y-97415000D01*
X157519428Y-97486428D01*
X157483714Y-97629285D01*
X157483714Y-97879285D01*
X157519428Y-98022142D01*
X157590857Y-98093571D01*
X157662285Y-98129285D01*
X157805142Y-98129285D01*
X157876571Y-98093571D01*
X157948000Y-98022142D01*
X157983714Y-97879285D01*
X157983714Y-97629285D01*
X157948000Y-97486428D01*
X157876571Y-97415000D01*
X157805142Y-97379285D01*
X157019428Y-97379285D02*
X156948000Y-97379285D01*
X156876571Y-97415000D01*
X156840857Y-97450714D01*
X156805142Y-97522142D01*
X156769428Y-97665000D01*
X156769428Y-97843571D01*
X156805142Y-97986428D01*
X156840857Y-98057857D01*
X156876571Y-98093571D01*
X156948000Y-98129285D01*
X157019428Y-98129285D01*
X157090857Y-98093571D01*
X157126571Y-98057857D01*
X157162285Y-97986428D01*
X157198000Y-97843571D01*
X157198000Y-97665000D01*
X157162285Y-97522142D01*
X157126571Y-97450714D01*
X157090857Y-97415000D01*
X157019428Y-97379285D01*
X155483714Y-97415000D02*
X155555142Y-97379285D01*
X155662285Y-97379285D01*
X155769428Y-97415000D01*
X155840857Y-97486428D01*
X155876571Y-97557857D01*
X155912285Y-97700714D01*
X155912285Y-97807857D01*
X155876571Y-97950714D01*
X155840857Y-98022142D01*
X155769428Y-98093571D01*
X155662285Y-98129285D01*
X155590857Y-98129285D01*
X155483714Y-98093571D01*
X155448000Y-98057857D01*
X155448000Y-97807857D01*
X155590857Y-97807857D01*
X155126571Y-98129285D02*
X155126571Y-97379285D01*
X154698000Y-98129285D01*
X154698000Y-97379285D01*
X154340857Y-98129285D02*
X154340857Y-97379285D01*
X154162285Y-97379285D01*
X154055142Y-97415000D01*
X153983714Y-97486428D01*
X153948000Y-97557857D01*
X153912285Y-97700714D01*
X153912285Y-97807857D01*
X153948000Y-97950714D01*
X153983714Y-98022142D01*
X154055142Y-98093571D01*
X154162285Y-98129285D01*
X154340857Y-98129285D01*
X152590857Y-98129285D02*
X152840857Y-97772142D01*
X153019428Y-98129285D02*
X153019428Y-97379285D01*
X152733714Y-97379285D01*
X152662285Y-97415000D01*
X152626571Y-97450714D01*
X152590857Y-97522142D01*
X152590857Y-97629285D01*
X152626571Y-97700714D01*
X152662285Y-97736428D01*
X152733714Y-97772142D01*
X153019428Y-97772142D01*
X152340857Y-97379285D02*
X151840857Y-98129285D01*
X151840857Y-97379285D02*
X152340857Y-98129285D01*
X151090857Y-97379285D02*
X150662285Y-97379285D01*
X150876571Y-98129285D02*
X150876571Y-97379285D01*
X150483714Y-97379285D02*
X149983714Y-98129285D01*
X149983714Y-97379285D02*
X150483714Y-98129285D01*
X149198000Y-97379285D02*
X148733714Y-97379285D01*
X148983714Y-97665000D01*
X148876571Y-97665000D01*
X148805142Y-97700714D01*
X148769428Y-97736428D01*
X148733714Y-97807857D01*
X148733714Y-97986428D01*
X148769428Y-98057857D01*
X148805142Y-98093571D01*
X148876571Y-98129285D01*
X149090857Y-98129285D01*
X149162285Y-98093571D01*
X149198000Y-98057857D01*
X148412285Y-98057857D02*
X148376571Y-98093571D01*
X148412285Y-98129285D01*
X148448000Y-98093571D01*
X148412285Y-98057857D01*
X148412285Y-98129285D01*
X148126571Y-97379285D02*
X147662285Y-97379285D01*
X147912285Y-97665000D01*
X147805142Y-97665000D01*
X147733714Y-97700714D01*
X147698000Y-97736428D01*
X147662285Y-97807857D01*
X147662285Y-97986428D01*
X147698000Y-98057857D01*
X147733714Y-98093571D01*
X147805142Y-98129285D01*
X148019428Y-98129285D01*
X148090857Y-98093571D01*
X148126571Y-98057857D01*
X147448000Y-97379285D02*
X147198000Y-98129285D01*
X146948000Y-97379285D01*
X133857904Y-90940000D02*
X133953142Y-90892380D01*
X134096000Y-90892380D01*
X134238857Y-90940000D01*
X134334095Y-91035238D01*
X134381714Y-91130476D01*
X134429333Y-91320952D01*
X134429333Y-91463809D01*
X134381714Y-91654285D01*
X134334095Y-91749523D01*
X134238857Y-91844761D01*
X134096000Y-91892380D01*
X134000761Y-91892380D01*
X133857904Y-91844761D01*
X133810285Y-91797142D01*
X133810285Y-91463809D01*
X134000761Y-91463809D01*
X133381714Y-91892380D02*
X133381714Y-90892380D01*
X132810285Y-91892380D01*
X132810285Y-90892380D01*
X132334095Y-91892380D02*
X132334095Y-90892380D01*
X132096000Y-90892380D01*
X131953142Y-90940000D01*
X131857904Y-91035238D01*
X131810285Y-91130476D01*
X131762666Y-91320952D01*
X131762666Y-91463809D01*
X131810285Y-91654285D01*
X131857904Y-91749523D01*
X131953142Y-91844761D01*
X132096000Y-91892380D01*
X132334095Y-91892380D01*
X175474380Y-97091523D02*
X175474380Y-96615333D01*
X175950571Y-96567714D01*
X175902952Y-96615333D01*
X175855333Y-96710571D01*
X175855333Y-96948666D01*
X175902952Y-97043904D01*
X175950571Y-97091523D01*
X176045809Y-97139142D01*
X176283904Y-97139142D01*
X176379142Y-97091523D01*
X176426761Y-97043904D01*
X176474380Y-96948666D01*
X176474380Y-96710571D01*
X176426761Y-96615333D01*
X176379142Y-96567714D01*
X175474380Y-97424857D02*
X176474380Y-97758190D01*
X175474380Y-98091523D01*
%TO.C,G2*%
G36*
X174434468Y-73264408D02*
G01*
X174455485Y-73282346D01*
X174473932Y-73300831D01*
X174489402Y-73319552D01*
X174492551Y-73324009D01*
X174499626Y-73335271D01*
X174506537Y-73347789D01*
X174512796Y-73360589D01*
X174517913Y-73372697D01*
X174521397Y-73383140D01*
X174524448Y-73394453D01*
X174524593Y-73394993D01*
X174636853Y-73395885D01*
X174636853Y-73483893D01*
X174570813Y-73483893D01*
X174567021Y-73483894D01*
X174552680Y-73483909D01*
X174539542Y-73483944D01*
X174527969Y-73483994D01*
X174518326Y-73484059D01*
X174510977Y-73484136D01*
X174506286Y-73484223D01*
X174504618Y-73484316D01*
X174504588Y-73484517D01*
X174504312Y-73487270D01*
X174503787Y-73493012D01*
X174503036Y-73501453D01*
X174502084Y-73512304D01*
X174500956Y-73525275D01*
X174499676Y-73540078D01*
X174498270Y-73556423D01*
X174496760Y-73574021D01*
X174495173Y-73592583D01*
X174493532Y-73611819D01*
X174491862Y-73631441D01*
X174490188Y-73651159D01*
X174488535Y-73670684D01*
X174486926Y-73689727D01*
X174485386Y-73707998D01*
X174483940Y-73725209D01*
X174482613Y-73741070D01*
X174481429Y-73755292D01*
X174480412Y-73767586D01*
X174479588Y-73777662D01*
X174478980Y-73785232D01*
X174478614Y-73790006D01*
X174478513Y-73791695D01*
X174478744Y-73791479D01*
X174480915Y-73789257D01*
X174485308Y-73784697D01*
X174491846Y-73777882D01*
X174500452Y-73768892D01*
X174511048Y-73757808D01*
X174523557Y-73744713D01*
X174537900Y-73729687D01*
X174554001Y-73712812D01*
X174571782Y-73694169D01*
X174591166Y-73673840D01*
X174612074Y-73651905D01*
X174634429Y-73628447D01*
X174658154Y-73603546D01*
X174683172Y-73577284D01*
X174709404Y-73549742D01*
X174736774Y-73521003D01*
X174765203Y-73491146D01*
X174794614Y-73460253D01*
X174824929Y-73428406D01*
X174856072Y-73395686D01*
X174887964Y-73362175D01*
X174920529Y-73327953D01*
X174953687Y-73293103D01*
X175428487Y-72794048D01*
X175428931Y-72858242D01*
X175429374Y-72922436D01*
X175416885Y-72935195D01*
X175416416Y-72935679D01*
X175413672Y-72938546D01*
X175408731Y-72943723D01*
X175401688Y-72951112D01*
X175392641Y-72960609D01*
X175381684Y-72972114D01*
X175368916Y-72985526D01*
X175354431Y-73000743D01*
X175338326Y-73017665D01*
X175320697Y-73036190D01*
X175301641Y-73056216D01*
X175281253Y-73077644D01*
X175259631Y-73100370D01*
X175236870Y-73124295D01*
X175213067Y-73149317D01*
X175188317Y-73175335D01*
X175162717Y-73202247D01*
X175136364Y-73229953D01*
X175109353Y-73258350D01*
X175081782Y-73287339D01*
X175053745Y-73316817D01*
X175025339Y-73346684D01*
X174996662Y-73376838D01*
X174967808Y-73407178D01*
X174938874Y-73437603D01*
X174909956Y-73468011D01*
X174881151Y-73498302D01*
X174852555Y-73528374D01*
X174824265Y-73558126D01*
X174796375Y-73587457D01*
X174768983Y-73616265D01*
X174742185Y-73644450D01*
X174716078Y-73671910D01*
X174690756Y-73698543D01*
X174666317Y-73724249D01*
X174642858Y-73748927D01*
X174620473Y-73772475D01*
X174599260Y-73794792D01*
X174579314Y-73815777D01*
X174560733Y-73835328D01*
X174543611Y-73853345D01*
X174528046Y-73869726D01*
X174514134Y-73884370D01*
X174501971Y-73897175D01*
X174491652Y-73908041D01*
X174483276Y-73916867D01*
X174476937Y-73923550D01*
X174472732Y-73927990D01*
X174470757Y-73930086D01*
X174466034Y-73935166D01*
X174457178Y-74039878D01*
X174415977Y-74527098D01*
X174413195Y-74560001D01*
X174409483Y-74603949D01*
X174405851Y-74646970D01*
X174402311Y-74688940D01*
X174398873Y-74729737D01*
X174395547Y-74769239D01*
X174392343Y-74807324D01*
X174389272Y-74843869D01*
X174386343Y-74878752D01*
X174383568Y-74911850D01*
X174380955Y-74943042D01*
X174378517Y-74972204D01*
X174376261Y-74999216D01*
X174374200Y-75023953D01*
X174372343Y-75046295D01*
X174370701Y-75066118D01*
X174369283Y-75083301D01*
X174368099Y-75097721D01*
X174367161Y-75109255D01*
X174366479Y-75117782D01*
X174366061Y-75123179D01*
X174365920Y-75125324D01*
X174365950Y-75125763D01*
X174366107Y-75126412D01*
X174366460Y-75127231D01*
X174367074Y-75128288D01*
X174368015Y-75129651D01*
X174369351Y-75131389D01*
X174371146Y-75133568D01*
X174373466Y-75136257D01*
X174376379Y-75139524D01*
X174379950Y-75143437D01*
X174384246Y-75148063D01*
X174389332Y-75153471D01*
X174395274Y-75159729D01*
X174398610Y-75163215D01*
X174402139Y-75166904D01*
X174409993Y-75175064D01*
X174418902Y-75184278D01*
X174428933Y-75194612D01*
X174440150Y-75206136D01*
X174452621Y-75218917D01*
X174466411Y-75233023D01*
X174481587Y-75248522D01*
X174498215Y-75265481D01*
X174516360Y-75283969D01*
X174536090Y-75304054D01*
X174557470Y-75325804D01*
X174580566Y-75349285D01*
X174605445Y-75374568D01*
X174632172Y-75401718D01*
X174660814Y-75430805D01*
X174691437Y-75461896D01*
X174724106Y-75495059D01*
X174758889Y-75530363D01*
X174795852Y-75567874D01*
X174835059Y-75607661D01*
X174876578Y-75649791D01*
X174879402Y-75652657D01*
X174914068Y-75687838D01*
X174948119Y-75722406D01*
X174981481Y-75756282D01*
X175014075Y-75789388D01*
X175045825Y-75821646D01*
X175076654Y-75852978D01*
X175106486Y-75883305D01*
X175135244Y-75912550D01*
X175162851Y-75940634D01*
X175189231Y-75967479D01*
X175214306Y-75993008D01*
X175238000Y-76017141D01*
X175260237Y-76039801D01*
X175280939Y-76060910D01*
X175300031Y-76080389D01*
X175317434Y-76098160D01*
X175333073Y-76114145D01*
X175346871Y-76128266D01*
X175358750Y-76140446D01*
X175368635Y-76150604D01*
X175376449Y-76158665D01*
X175382115Y-76164548D01*
X175385556Y-76168177D01*
X175386695Y-76169473D01*
X175385723Y-76170622D01*
X175382572Y-76173853D01*
X175377572Y-76178797D01*
X175371057Y-76185128D01*
X175363364Y-76192518D01*
X175354827Y-76200637D01*
X175353151Y-76202224D01*
X175343904Y-76210943D01*
X175336749Y-76217594D01*
X175331381Y-76222415D01*
X175327496Y-76225644D01*
X175324790Y-76227521D01*
X175322959Y-76228284D01*
X175321698Y-76228172D01*
X175320705Y-76227423D01*
X175319338Y-76226021D01*
X175312793Y-76219324D01*
X175304199Y-76210552D01*
X175293651Y-76199803D01*
X175281246Y-76187173D01*
X175267079Y-76172762D01*
X175251248Y-76156665D01*
X175233847Y-76138981D01*
X175214975Y-76119807D01*
X175194726Y-76099241D01*
X175173197Y-76077380D01*
X175150484Y-76054322D01*
X175126684Y-76030164D01*
X175101892Y-76005004D01*
X175076206Y-75978940D01*
X175049720Y-75952069D01*
X175022532Y-75924489D01*
X174994738Y-75896296D01*
X174966434Y-75867590D01*
X174937715Y-75838466D01*
X174908680Y-75809024D01*
X174879422Y-75779359D01*
X174850040Y-75749571D01*
X174820629Y-75719756D01*
X174791285Y-75690012D01*
X174762105Y-75660437D01*
X174733184Y-75631128D01*
X174704620Y-75602182D01*
X174676507Y-75573698D01*
X174648944Y-75545773D01*
X174622025Y-75518504D01*
X174595847Y-75491988D01*
X174570507Y-75466325D01*
X174546100Y-75441610D01*
X174522722Y-75417941D01*
X174500471Y-75395417D01*
X174479442Y-75374135D01*
X174459731Y-75354191D01*
X174441435Y-75335685D01*
X174424650Y-75318712D01*
X174409472Y-75303372D01*
X174395998Y-75289761D01*
X174384323Y-75277977D01*
X174374544Y-75268117D01*
X174366757Y-75260279D01*
X174361058Y-75254562D01*
X174357544Y-75251061D01*
X174356311Y-75249875D01*
X174356122Y-75250722D01*
X174355627Y-75254670D01*
X174354881Y-75261664D01*
X174353901Y-75271515D01*
X174352705Y-75284030D01*
X174351309Y-75299017D01*
X174349732Y-75316286D01*
X174347989Y-75335644D01*
X174346100Y-75356901D01*
X174344080Y-75379864D01*
X174341948Y-75404342D01*
X174339721Y-75430143D01*
X174337416Y-75457077D01*
X174335050Y-75484951D01*
X174333629Y-75501737D01*
X174330776Y-75535305D01*
X174328175Y-75565682D01*
X174325816Y-75592997D01*
X174323684Y-75617374D01*
X174321770Y-75638940D01*
X174320061Y-75657823D01*
X174318545Y-75674148D01*
X174317211Y-75688043D01*
X174316046Y-75699634D01*
X174315039Y-75709048D01*
X174314177Y-75716411D01*
X174313450Y-75721849D01*
X174312844Y-75725490D01*
X174312349Y-75727460D01*
X174310764Y-75731014D01*
X174304790Y-75739837D01*
X174296858Y-75747458D01*
X174287988Y-75752815D01*
X174279560Y-75756440D01*
X174279560Y-75893506D01*
X174103453Y-75893506D01*
X174103453Y-75756346D01*
X173760977Y-75756349D01*
X173418500Y-75756352D01*
X173408114Y-75772012D01*
X173404472Y-75777367D01*
X173385708Y-75801373D01*
X173364568Y-75823069D01*
X173341255Y-75842319D01*
X173315971Y-75858984D01*
X173288922Y-75872928D01*
X173260308Y-75884013D01*
X173230334Y-75892104D01*
X173224118Y-75893367D01*
X173218121Y-75894375D01*
X173212053Y-75895091D01*
X173205252Y-75895562D01*
X173197053Y-75895831D01*
X173186795Y-75895944D01*
X173173813Y-75895946D01*
X173164607Y-75895904D01*
X173153377Y-75895762D01*
X173144454Y-75895484D01*
X173137194Y-75895027D01*
X173130955Y-75894344D01*
X173125091Y-75893391D01*
X173118959Y-75892124D01*
X173101858Y-75887826D01*
X173072062Y-75877765D01*
X173044034Y-75864869D01*
X173017883Y-75849217D01*
X172993717Y-75830885D01*
X172971644Y-75809950D01*
X172951772Y-75786489D01*
X172934209Y-75760580D01*
X172924291Y-75742473D01*
X172912975Y-75716264D01*
X172904243Y-75688688D01*
X172898248Y-75660364D01*
X172895145Y-75631911D01*
X172895118Y-75618340D01*
X173027480Y-75618340D01*
X173027532Y-75626177D01*
X173027744Y-75634644D01*
X173028214Y-75641266D01*
X173029044Y-75646935D01*
X173030339Y-75652542D01*
X173032202Y-75658980D01*
X173033507Y-75663058D01*
X173042128Y-75683782D01*
X173053401Y-75702681D01*
X173067094Y-75719535D01*
X173082972Y-75734125D01*
X173100803Y-75746229D01*
X173120353Y-75755628D01*
X173141388Y-75762100D01*
X173145110Y-75762898D01*
X173167228Y-75765692D01*
X173189119Y-75765209D01*
X173210487Y-75761544D01*
X173231038Y-75754789D01*
X173250476Y-75745037D01*
X173268505Y-75732381D01*
X173284830Y-75716915D01*
X173289082Y-75712077D01*
X173297612Y-75700822D01*
X173304962Y-75688482D01*
X173311852Y-75673912D01*
X173317150Y-75659626D01*
X173320719Y-75644630D01*
X173322385Y-75628689D01*
X173322321Y-75610773D01*
X173321967Y-75604503D01*
X173320455Y-75590421D01*
X173317806Y-75577876D01*
X173313703Y-75565594D01*
X173307832Y-75552300D01*
X173298744Y-75536212D01*
X173285815Y-75519307D01*
X173270720Y-75504603D01*
X173253791Y-75492245D01*
X173235355Y-75482376D01*
X173215743Y-75475141D01*
X173195282Y-75470683D01*
X173174304Y-75469147D01*
X173153136Y-75470678D01*
X173132109Y-75475418D01*
X173115239Y-75481664D01*
X173095656Y-75492017D01*
X173078093Y-75504985D01*
X173062709Y-75520405D01*
X173049660Y-75538115D01*
X173039103Y-75557951D01*
X173031197Y-75579751D01*
X173030831Y-75581046D01*
X173029375Y-75586913D01*
X173028395Y-75592714D01*
X173027808Y-75599310D01*
X173027531Y-75607564D01*
X173027480Y-75618340D01*
X172895118Y-75618340D01*
X172895089Y-75603946D01*
X172896163Y-75584473D01*
X172888938Y-75592192D01*
X172884151Y-75597293D01*
X172876136Y-75605798D01*
X172866293Y-75616213D01*
X172854740Y-75628412D01*
X172841597Y-75642272D01*
X172826982Y-75657668D01*
X172811015Y-75674475D01*
X172793814Y-75692568D01*
X172775499Y-75711824D01*
X172756189Y-75732116D01*
X172736001Y-75753320D01*
X172715056Y-75775313D01*
X172693472Y-75797968D01*
X172671368Y-75821163D01*
X172648864Y-75844771D01*
X172626077Y-75868668D01*
X172603128Y-75892730D01*
X172580135Y-75916831D01*
X172557216Y-75940848D01*
X172534491Y-75964656D01*
X172512080Y-75988130D01*
X172490100Y-76011145D01*
X172468670Y-76033576D01*
X172447911Y-76055300D01*
X172427940Y-76076191D01*
X172408877Y-76096125D01*
X172390840Y-76114977D01*
X172373948Y-76132623D01*
X172358322Y-76148937D01*
X172344078Y-76163795D01*
X172331337Y-76177073D01*
X172320217Y-76188646D01*
X172310837Y-76198389D01*
X172303317Y-76206177D01*
X172297775Y-76211887D01*
X172294330Y-76215393D01*
X172293100Y-76216570D01*
X172291950Y-76215673D01*
X172288602Y-76212717D01*
X172283433Y-76208010D01*
X172276788Y-76201868D01*
X172269012Y-76194611D01*
X172260450Y-76186553D01*
X172229189Y-76157021D01*
X172241338Y-76144111D01*
X172241441Y-76144002D01*
X172243731Y-76141584D01*
X172248263Y-76136812D01*
X172254950Y-76129773D01*
X172263708Y-76120559D01*
X172274452Y-76109258D01*
X172287096Y-76095959D01*
X172301557Y-76080752D01*
X172317748Y-76063727D01*
X172335584Y-76044973D01*
X172354981Y-76024579D01*
X172375854Y-76002635D01*
X172398117Y-75979229D01*
X172421686Y-75954452D01*
X172446474Y-75928394D01*
X172472399Y-75901142D01*
X172499373Y-75872787D01*
X172527313Y-75843419D01*
X172556133Y-75813126D01*
X172585748Y-75781997D01*
X172616073Y-75750124D01*
X172647023Y-75717594D01*
X172678513Y-75684497D01*
X172698806Y-75663168D01*
X172735698Y-75624389D01*
X172770353Y-75587953D01*
X172802839Y-75553789D01*
X172833221Y-75521828D01*
X172861566Y-75491999D01*
X172887940Y-75464231D01*
X172912409Y-75438454D01*
X172935041Y-75414598D01*
X172955901Y-75392591D01*
X172975055Y-75372364D01*
X172992570Y-75353847D01*
X173008512Y-75336967D01*
X173022948Y-75321656D01*
X173035944Y-75307842D01*
X173047566Y-75295456D01*
X173057881Y-75284426D01*
X173066954Y-75274683D01*
X173072876Y-75268289D01*
X173197346Y-75268289D01*
X173200049Y-75300228D01*
X173200655Y-75307395D01*
X173201599Y-75318270D01*
X173202384Y-75326391D01*
X173203100Y-75332159D01*
X173203834Y-75335977D01*
X173204675Y-75338247D01*
X173205710Y-75339370D01*
X173207028Y-75339749D01*
X173208716Y-75339786D01*
X173210611Y-75339924D01*
X173215708Y-75340629D01*
X173222576Y-75341797D01*
X173230274Y-75343274D01*
X173245115Y-75346715D01*
X173273770Y-75355890D01*
X173301096Y-75368015D01*
X173326878Y-75382907D01*
X173350901Y-75400383D01*
X173372952Y-75420260D01*
X173392816Y-75442355D01*
X173410279Y-75466484D01*
X173425127Y-75492464D01*
X173437146Y-75520113D01*
X173439350Y-75526302D01*
X173447221Y-75554054D01*
X173452291Y-75582769D01*
X173454456Y-75611682D01*
X173453947Y-75628689D01*
X173453609Y-75640031D01*
X173453440Y-75641984D01*
X173452690Y-75650379D01*
X173452015Y-75657502D01*
X173451484Y-75662653D01*
X173451164Y-75665129D01*
X173451367Y-75665334D01*
X173452410Y-75665579D01*
X173454443Y-75665807D01*
X173457586Y-75666017D01*
X173461958Y-75666211D01*
X173467681Y-75666391D01*
X173474872Y-75666555D01*
X173483653Y-75666706D01*
X173494144Y-75666845D01*
X173506463Y-75666971D01*
X173520730Y-75667087D01*
X173537067Y-75667192D01*
X173555592Y-75667289D01*
X173576425Y-75667376D01*
X173599686Y-75667456D01*
X173625494Y-75667529D01*
X173653971Y-75667597D01*
X173685235Y-75667659D01*
X173719407Y-75667717D01*
X173756605Y-75667771D01*
X173796951Y-75667823D01*
X173840563Y-75667873D01*
X173881120Y-75667917D01*
X173920936Y-75667957D01*
X173957614Y-75667991D01*
X173991283Y-75668017D01*
X174022072Y-75668035D01*
X174050108Y-75668043D01*
X174075520Y-75668042D01*
X174098436Y-75668029D01*
X174118985Y-75668005D01*
X174137294Y-75667968D01*
X174153492Y-75667918D01*
X174167708Y-75667853D01*
X174180069Y-75667773D01*
X174190704Y-75667677D01*
X174199741Y-75667565D01*
X174207309Y-75667435D01*
X174213535Y-75667286D01*
X174218549Y-75667118D01*
X174222478Y-75666930D01*
X174225450Y-75666721D01*
X174227595Y-75666491D01*
X174229040Y-75666237D01*
X174229913Y-75665961D01*
X174230343Y-75665659D01*
X174230458Y-75665333D01*
X174230460Y-75665273D01*
X174230632Y-75662903D01*
X174231074Y-75657368D01*
X174231768Y-75648857D01*
X174232700Y-75637559D01*
X174233853Y-75623662D01*
X174235212Y-75607355D01*
X174236760Y-75588828D01*
X174238483Y-75568267D01*
X174240365Y-75545863D01*
X174242388Y-75521804D01*
X174244539Y-75496279D01*
X174246801Y-75469476D01*
X174249157Y-75441583D01*
X174251594Y-75412791D01*
X174272724Y-75163215D01*
X174167207Y-75056344D01*
X174157872Y-75046887D01*
X174140469Y-75029253D01*
X174121222Y-75009744D01*
X174100464Y-74988698D01*
X174078527Y-74966452D01*
X174055746Y-74943345D01*
X174032453Y-74919715D01*
X174008980Y-74895899D01*
X173985663Y-74872236D01*
X173962832Y-74849063D01*
X173940822Y-74826718D01*
X173919966Y-74805540D01*
X173907540Y-74792924D01*
X173889803Y-74774929D01*
X173872819Y-74757713D01*
X173856734Y-74741424D01*
X173841697Y-74726212D01*
X173827854Y-74712225D01*
X173815353Y-74699611D01*
X173804342Y-74688520D01*
X173794968Y-74679100D01*
X173787378Y-74671500D01*
X173781721Y-74665869D01*
X173778143Y-74662355D01*
X173776791Y-74661107D01*
X173776406Y-74661398D01*
X173774232Y-74663490D01*
X173770136Y-74667613D01*
X173764098Y-74673788D01*
X173756101Y-74682034D01*
X173746125Y-74692369D01*
X173734153Y-74704814D01*
X173720166Y-74719388D01*
X173704146Y-74736110D01*
X173686073Y-74754999D01*
X173665929Y-74776075D01*
X173643697Y-74799358D01*
X173619357Y-74824866D01*
X173592891Y-74852619D01*
X173564280Y-74882637D01*
X173533507Y-74914939D01*
X173500551Y-74949544D01*
X173465396Y-74986471D01*
X173428022Y-75025740D01*
X173388411Y-75067371D01*
X173346545Y-75111382D01*
X173302404Y-75157794D01*
X173255971Y-75206624D01*
X173207227Y-75257894D01*
X173197346Y-75268289D01*
X173072876Y-75268289D01*
X173074853Y-75266155D01*
X173081644Y-75258773D01*
X173087392Y-75252465D01*
X173092165Y-75247162D01*
X173096028Y-75242792D01*
X173099049Y-75239286D01*
X173101292Y-75236573D01*
X173102825Y-75234582D01*
X173103715Y-75233243D01*
X173104026Y-75232486D01*
X173104022Y-75232191D01*
X173103814Y-75229083D01*
X173103315Y-75222758D01*
X173102537Y-75213336D01*
X173101489Y-75200935D01*
X173100183Y-75185674D01*
X173098629Y-75167672D01*
X173096838Y-75147047D01*
X173094819Y-75123918D01*
X173092583Y-75098404D01*
X173090141Y-75070624D01*
X173087504Y-75040697D01*
X173084681Y-75008740D01*
X173081684Y-74974874D01*
X173078522Y-74939217D01*
X173075206Y-74901887D01*
X173071747Y-74863004D01*
X173068156Y-74822686D01*
X173064441Y-74781052D01*
X173060615Y-74738220D01*
X173056687Y-74694310D01*
X173052669Y-74649440D01*
X173048570Y-74603729D01*
X173047215Y-74588626D01*
X173043140Y-74543211D01*
X173039148Y-74498688D01*
X173035247Y-74455177D01*
X173031448Y-74412795D01*
X173027763Y-74371660D01*
X173024201Y-74331891D01*
X173020773Y-74293605D01*
X173017490Y-74256920D01*
X173014363Y-74221955D01*
X173011400Y-74188827D01*
X173008615Y-74157656D01*
X173006016Y-74128558D01*
X173003614Y-74101653D01*
X173001421Y-74077057D01*
X172999446Y-74054890D01*
X172997700Y-74035269D01*
X172996194Y-74018313D01*
X172994938Y-74004139D01*
X172993943Y-73992866D01*
X172993219Y-73984611D01*
X172992777Y-73979494D01*
X172992627Y-73977631D01*
X172992557Y-73977339D01*
X172991957Y-73976849D01*
X172990549Y-73976427D01*
X172988099Y-73976067D01*
X172984898Y-73975806D01*
X173081420Y-73975806D01*
X173133967Y-74561143D01*
X173136523Y-74589601D01*
X173140451Y-74633295D01*
X173144300Y-74676046D01*
X173148057Y-74717732D01*
X173151713Y-74758232D01*
X173155256Y-74797423D01*
X173158674Y-74835185D01*
X173161958Y-74871396D01*
X173165095Y-74905935D01*
X173168074Y-74938679D01*
X173170885Y-74969509D01*
X173173516Y-74998301D01*
X173175957Y-75024935D01*
X173178196Y-75049289D01*
X173180222Y-75071241D01*
X173182024Y-75090671D01*
X173183590Y-75107457D01*
X173184911Y-75121477D01*
X173185974Y-75132609D01*
X173186769Y-75140733D01*
X173187285Y-75145726D01*
X173187510Y-75147468D01*
X173188168Y-75146972D01*
X173190997Y-75144260D01*
X173195934Y-75139311D01*
X173202853Y-75132260D01*
X173211626Y-75123240D01*
X173222126Y-75112385D01*
X173234227Y-75099829D01*
X173247801Y-75085705D01*
X173262721Y-75070147D01*
X173278861Y-75053290D01*
X173296093Y-75035265D01*
X173314291Y-75016208D01*
X173333327Y-74996253D01*
X173353075Y-74975532D01*
X173373407Y-74954180D01*
X173394197Y-74932330D01*
X173415318Y-74910116D01*
X173436642Y-74887672D01*
X173458042Y-74865132D01*
X173479393Y-74842629D01*
X173500566Y-74820297D01*
X173521435Y-74798270D01*
X173541873Y-74776682D01*
X173561752Y-74755666D01*
X173580946Y-74735356D01*
X173599328Y-74715886D01*
X173616771Y-74697390D01*
X173633148Y-74680000D01*
X173648332Y-74663852D01*
X173662196Y-74649079D01*
X173674613Y-74635815D01*
X173685456Y-74624192D01*
X173694598Y-74614346D01*
X173701912Y-74606410D01*
X173707271Y-74600517D01*
X173710548Y-74596801D01*
X173711616Y-74595397D01*
X173711574Y-74595349D01*
X173837412Y-74595349D01*
X173837460Y-74595397D01*
X173872800Y-74631017D01*
X173876826Y-74635082D01*
X173883962Y-74642301D01*
X173893171Y-74651628D01*
X173904286Y-74662894D01*
X173917137Y-74675927D01*
X173931556Y-74690556D01*
X173947375Y-74706610D01*
X173964424Y-74723916D01*
X173982534Y-74742305D01*
X174001538Y-74761605D01*
X174021266Y-74781644D01*
X174041549Y-74802251D01*
X174062220Y-74823256D01*
X174083109Y-74844486D01*
X174103317Y-74865027D01*
X174123240Y-74885279D01*
X174142513Y-74904870D01*
X174160993Y-74923654D01*
X174178534Y-74941485D01*
X174194994Y-74958217D01*
X174210228Y-74973704D01*
X174224094Y-74987800D01*
X174236447Y-75000358D01*
X174247143Y-75011232D01*
X174256039Y-75020277D01*
X174262991Y-75027346D01*
X174267856Y-75032293D01*
X174270489Y-75034973D01*
X174273981Y-75038448D01*
X174278823Y-75042869D01*
X174281881Y-75045044D01*
X174282947Y-75044810D01*
X174282947Y-75044809D01*
X174283089Y-75042898D01*
X174283506Y-75037745D01*
X174284186Y-75029482D01*
X174285119Y-75018241D01*
X174286293Y-75004155D01*
X174287697Y-74987355D01*
X174289321Y-74967974D01*
X174291152Y-74946143D01*
X174293181Y-74921996D01*
X174295395Y-74895663D01*
X174297784Y-74867277D01*
X174300336Y-74836971D01*
X174303041Y-74804876D01*
X174305887Y-74771124D01*
X174308864Y-74735849D01*
X174311959Y-74699180D01*
X174315163Y-74661252D01*
X174318463Y-74622196D01*
X174321849Y-74582144D01*
X174325310Y-74541228D01*
X174325357Y-74540678D01*
X174328813Y-74499801D01*
X174332190Y-74459803D01*
X174335478Y-74420815D01*
X174338665Y-74382969D01*
X174341740Y-74346396D01*
X174344694Y-74311227D01*
X174347513Y-74277594D01*
X174350189Y-74245628D01*
X174352709Y-74215460D01*
X174355063Y-74187223D01*
X174357240Y-74161046D01*
X174359229Y-74137062D01*
X174361019Y-74115402D01*
X174362599Y-74096196D01*
X174363957Y-74079578D01*
X174365085Y-74065677D01*
X174365969Y-74054625D01*
X174366600Y-74046554D01*
X174366966Y-74041594D01*
X174367057Y-74039878D01*
X174366748Y-74040144D01*
X174364432Y-74042462D01*
X174359937Y-74047073D01*
X174353369Y-74053867D01*
X174344832Y-74062736D01*
X174334428Y-74073571D01*
X174322263Y-74086263D01*
X174308440Y-74100703D01*
X174293063Y-74116783D01*
X174276237Y-74134393D01*
X174258065Y-74153424D01*
X174238652Y-74173768D01*
X174218101Y-74195316D01*
X174196517Y-74217960D01*
X174174003Y-74241589D01*
X174150664Y-74266095D01*
X174126603Y-74291370D01*
X174101926Y-74317305D01*
X173837412Y-74595349D01*
X173711574Y-74595349D01*
X173710915Y-74594594D01*
X173707969Y-74591485D01*
X173702817Y-74586140D01*
X173695558Y-74578660D01*
X173686292Y-74569147D01*
X173675116Y-74557701D01*
X173662132Y-74544423D01*
X173647436Y-74529415D01*
X173631129Y-74512778D01*
X173613309Y-74494611D01*
X173594076Y-74475017D01*
X173573529Y-74454096D01*
X173551766Y-74431949D01*
X173528886Y-74408677D01*
X173504990Y-74384382D01*
X173480175Y-74359163D01*
X173454541Y-74333123D01*
X173428187Y-74306362D01*
X173401211Y-74278980D01*
X173379450Y-74256897D01*
X173348834Y-74225831D01*
X173320452Y-74197040D01*
X173294221Y-74170439D01*
X173270057Y-74145946D01*
X173247876Y-74123475D01*
X173227593Y-74102943D01*
X173209124Y-74084267D01*
X173192386Y-74067362D01*
X173177295Y-74052145D01*
X173163766Y-74038532D01*
X173151715Y-74026438D01*
X173141059Y-74015782D01*
X173131713Y-74006477D01*
X173123593Y-73998441D01*
X173116615Y-73991591D01*
X173110695Y-73985841D01*
X173105750Y-73981108D01*
X173101694Y-73977309D01*
X173098444Y-73974359D01*
X173095916Y-73972175D01*
X173094026Y-73970673D01*
X173092690Y-73969769D01*
X173091824Y-73969380D01*
X173091343Y-73969421D01*
X173091164Y-73969809D01*
X173090974Y-73971170D01*
X173089518Y-73974166D01*
X173086030Y-73975283D01*
X173081420Y-73975806D01*
X172984898Y-73975806D01*
X172984371Y-73975763D01*
X172979132Y-73975507D01*
X172972146Y-73975294D01*
X172963181Y-73975117D01*
X172952000Y-73974970D01*
X172938371Y-73974846D01*
X172922058Y-73974738D01*
X172902827Y-73974641D01*
X172880443Y-73974548D01*
X172768260Y-73974113D01*
X172768260Y-73902146D01*
X172841920Y-73902146D01*
X172985970Y-73902146D01*
X172985037Y-73894103D01*
X172984809Y-73892075D01*
X172984133Y-73885654D01*
X172983333Y-73877691D01*
X172982537Y-73869451D01*
X172980971Y-73852843D01*
X172916309Y-73786901D01*
X172905232Y-73775617D01*
X172892598Y-73762791D01*
X172881982Y-73752083D01*
X172873191Y-73743312D01*
X172866037Y-73736297D01*
X172860327Y-73730857D01*
X172855872Y-73726812D01*
X172852481Y-73723980D01*
X172849963Y-73722181D01*
X172848127Y-73721235D01*
X172846783Y-73720960D01*
X172841920Y-73720960D01*
X172841920Y-73902146D01*
X172768260Y-73902146D01*
X172768260Y-73648993D01*
X172773537Y-73648146D01*
X172773786Y-73648092D01*
X172774148Y-73647889D01*
X172774282Y-73647492D01*
X172774109Y-73646820D01*
X172773553Y-73645796D01*
X172772538Y-73644340D01*
X172770987Y-73642372D01*
X172768823Y-73639814D01*
X172765969Y-73636587D01*
X172762348Y-73632610D01*
X172757884Y-73627806D01*
X172752501Y-73622095D01*
X172746120Y-73615397D01*
X172738666Y-73607634D01*
X172730062Y-73598726D01*
X172720231Y-73588594D01*
X172709096Y-73577160D01*
X172696581Y-73564343D01*
X172682609Y-73550065D01*
X172667103Y-73534247D01*
X172649986Y-73516809D01*
X172631182Y-73497672D01*
X172610614Y-73476757D01*
X172588205Y-73453985D01*
X172563878Y-73429277D01*
X172537557Y-73402553D01*
X172509165Y-73373734D01*
X172478625Y-73342742D01*
X172445861Y-73309497D01*
X172410795Y-73273920D01*
X172042777Y-72900540D01*
X172042722Y-72837047D01*
X172042667Y-72773555D01*
X172064483Y-72795561D01*
X172065394Y-72796481D01*
X172069215Y-72800349D01*
X172075282Y-72806498D01*
X172083503Y-72814834D01*
X172093786Y-72825264D01*
X172106038Y-72837694D01*
X172120169Y-72852031D01*
X172136086Y-72868182D01*
X172153697Y-72886053D01*
X172172909Y-72905551D01*
X172193632Y-72926582D01*
X172215773Y-72949053D01*
X172239239Y-72972871D01*
X172263940Y-72997943D01*
X172289783Y-73024174D01*
X172316675Y-73051473D01*
X172344526Y-73079744D01*
X172373242Y-73108895D01*
X172402733Y-73138833D01*
X172432906Y-73169464D01*
X172463669Y-73200695D01*
X172494929Y-73232433D01*
X172903560Y-73647300D01*
X172932853Y-73647762D01*
X172962147Y-73648224D01*
X172962126Y-73643529D01*
X172962014Y-73641203D01*
X172961627Y-73635826D01*
X172960998Y-73628007D01*
X172960166Y-73618161D01*
X172959170Y-73606705D01*
X172958047Y-73594054D01*
X172956836Y-73580622D01*
X172955575Y-73566825D01*
X172954303Y-73553080D01*
X172953058Y-73539800D01*
X172951877Y-73527402D01*
X172950799Y-73516301D01*
X172949863Y-73506912D01*
X172949106Y-73499651D01*
X172948567Y-73494932D01*
X172948284Y-73493173D01*
X172948280Y-73493169D01*
X172946456Y-73493416D01*
X172942396Y-73494708D01*
X172936968Y-73496768D01*
X172931796Y-73498696D01*
X172913871Y-73503317D01*
X172894927Y-73505401D01*
X172875971Y-73504887D01*
X172858007Y-73501711D01*
X172840894Y-73495914D01*
X172828960Y-73489816D01*
X173038347Y-73489816D01*
X173038416Y-73491431D01*
X173038759Y-73496399D01*
X173039358Y-73504109D01*
X173040184Y-73514187D01*
X173041205Y-73526258D01*
X173042388Y-73539946D01*
X173043704Y-73554876D01*
X173045120Y-73570672D01*
X173046156Y-73582147D01*
X173047493Y-73597010D01*
X173048710Y-73610577D01*
X173049774Y-73622504D01*
X173050655Y-73632444D01*
X173051322Y-73640050D01*
X173051746Y-73644976D01*
X173051893Y-73646876D01*
X173053298Y-73647349D01*
X173057454Y-73647763D01*
X173063700Y-73648043D01*
X173071367Y-73648146D01*
X173090840Y-73648146D01*
X173090840Y-73837421D01*
X173154616Y-73902146D01*
X173321980Y-74072001D01*
X173322882Y-73981733D01*
X173915493Y-73981733D01*
X173915493Y-74169682D01*
X173419113Y-74170540D01*
X173596345Y-74350456D01*
X173600113Y-74354281D01*
X173620347Y-74374808D01*
X173639917Y-74394643D01*
X173658691Y-74413651D01*
X173676537Y-74431702D01*
X173693324Y-74448661D01*
X173708920Y-74464398D01*
X173723194Y-74478779D01*
X173736014Y-74491673D01*
X173747249Y-74502946D01*
X173756767Y-74512467D01*
X173764436Y-74520102D01*
X173770126Y-74525720D01*
X173773704Y-74529187D01*
X173775040Y-74530373D01*
X173775134Y-74530296D01*
X173776933Y-74528493D01*
X173780917Y-74524392D01*
X173786967Y-74518119D01*
X173794965Y-74509798D01*
X173804791Y-74499554D01*
X173816326Y-74487513D01*
X173829451Y-74473798D01*
X173844048Y-74458535D01*
X173859997Y-74441849D01*
X173877178Y-74423864D01*
X173895475Y-74404706D01*
X173914766Y-74384499D01*
X173934933Y-74363368D01*
X173955858Y-74341438D01*
X173977420Y-74318835D01*
X173999502Y-74295682D01*
X174021983Y-74272104D01*
X174044746Y-74248228D01*
X174067670Y-74224176D01*
X174090638Y-74200076D01*
X174113530Y-74176050D01*
X174136226Y-74152224D01*
X174158609Y-74128724D01*
X174180558Y-74105673D01*
X174201955Y-74083197D01*
X174222681Y-74061420D01*
X174242617Y-74040468D01*
X174261644Y-74020465D01*
X174279643Y-74001537D01*
X174296494Y-73983807D01*
X174312079Y-73967402D01*
X174326279Y-73952445D01*
X174338975Y-73939062D01*
X174350047Y-73927378D01*
X174359377Y-73917517D01*
X174366846Y-73909604D01*
X174372334Y-73903765D01*
X174375723Y-73900124D01*
X174376174Y-73899624D01*
X174376776Y-73898843D01*
X174377338Y-73897824D01*
X174377880Y-73896383D01*
X174378420Y-73894335D01*
X174378978Y-73891496D01*
X174379573Y-73887681D01*
X174380224Y-73882706D01*
X174380950Y-73876385D01*
X174381769Y-73868536D01*
X174382701Y-73858972D01*
X174383766Y-73847510D01*
X174384981Y-73833965D01*
X174386366Y-73818152D01*
X174387940Y-73799888D01*
X174389723Y-73778986D01*
X174391732Y-73755264D01*
X174393988Y-73728536D01*
X174396508Y-73698617D01*
X174397575Y-73685961D01*
X174399710Y-73660657D01*
X174401770Y-73636287D01*
X174403736Y-73613074D01*
X174405590Y-73591238D01*
X174407311Y-73571003D01*
X174408881Y-73552588D01*
X174410282Y-73536218D01*
X174411494Y-73522112D01*
X174412499Y-73510494D01*
X174413277Y-73501586D01*
X174413809Y-73495608D01*
X174414077Y-73492783D01*
X174415056Y-73483893D01*
X173038347Y-73483893D01*
X173038347Y-73489816D01*
X172828960Y-73489816D01*
X172822901Y-73486720D01*
X172806776Y-73475062D01*
X172792732Y-73461232D01*
X172780981Y-73445520D01*
X172771738Y-73428216D01*
X172765215Y-73409611D01*
X172762516Y-73394867D01*
X173033267Y-73394867D01*
X173033360Y-73394884D01*
X173035808Y-73394959D01*
X173041490Y-73395032D01*
X173050282Y-73395103D01*
X173062059Y-73395172D01*
X173076697Y-73395239D01*
X173094073Y-73395304D01*
X173114062Y-73395366D01*
X173136541Y-73395425D01*
X173161384Y-73395482D01*
X173188469Y-73395534D01*
X173217671Y-73395584D01*
X173248866Y-73395629D01*
X173281930Y-73395671D01*
X173316739Y-73395709D01*
X173353168Y-73395742D01*
X173391095Y-73395771D01*
X173430395Y-73395795D01*
X173470943Y-73395814D01*
X173512616Y-73395828D01*
X173555290Y-73395837D01*
X173598840Y-73395840D01*
X174164413Y-73395840D01*
X174330360Y-73395840D01*
X174381160Y-73395840D01*
X174385901Y-73395833D01*
X174398250Y-73395758D01*
X174409282Y-73395606D01*
X174418583Y-73395388D01*
X174425739Y-73395116D01*
X174430336Y-73394800D01*
X174431960Y-73394453D01*
X174431950Y-73394328D01*
X174430872Y-73391718D01*
X174428325Y-73387138D01*
X174424762Y-73381308D01*
X174420633Y-73374945D01*
X174416391Y-73368768D01*
X174412487Y-73363494D01*
X174406028Y-73356155D01*
X174396872Y-73347292D01*
X174386100Y-73337996D01*
X174374419Y-73328875D01*
X174362533Y-73320536D01*
X174361955Y-73320155D01*
X174353415Y-73314684D01*
X174345544Y-73309900D01*
X174338874Y-73306106D01*
X174333940Y-73303607D01*
X174331274Y-73302706D01*
X174331251Y-73302721D01*
X174331014Y-73304635D01*
X174330801Y-73309464D01*
X174330621Y-73316774D01*
X174330482Y-73326134D01*
X174330392Y-73337111D01*
X174330360Y-73349273D01*
X174330360Y-73395840D01*
X174164413Y-73395840D01*
X174164413Y-73247193D01*
X174160603Y-73246250D01*
X174159285Y-73245932D01*
X174152527Y-73244425D01*
X174143229Y-73242477D01*
X174132015Y-73240208D01*
X174119508Y-73237740D01*
X174106333Y-73235192D01*
X174093114Y-73232688D01*
X174080474Y-73230346D01*
X174069037Y-73228288D01*
X174059427Y-73226636D01*
X174052744Y-73225547D01*
X174035065Y-73222836D01*
X174016620Y-73220224D01*
X173997921Y-73217768D01*
X173979482Y-73215528D01*
X173961815Y-73213562D01*
X173945435Y-73211927D01*
X173930854Y-73210682D01*
X173918586Y-73209885D01*
X173909143Y-73209594D01*
X173900253Y-73209573D01*
X173900253Y-73292546D01*
X173441360Y-73292546D01*
X173441360Y-73256140D01*
X173441357Y-73253541D01*
X173441258Y-73242460D01*
X173441036Y-73233131D01*
X173440707Y-73225960D01*
X173440290Y-73221358D01*
X173439802Y-73219733D01*
X173439055Y-73219764D01*
X173435379Y-73219979D01*
X173429277Y-73220367D01*
X173421371Y-73220886D01*
X173412285Y-73221497D01*
X173405051Y-73222015D01*
X173360842Y-73226381D01*
X173318841Y-73232645D01*
X173279167Y-73240776D01*
X173241938Y-73250742D01*
X173207275Y-73262512D01*
X173175296Y-73276055D01*
X173146121Y-73291340D01*
X173134980Y-73298002D01*
X173118459Y-73308773D01*
X173103567Y-73319830D01*
X173089291Y-73331943D01*
X173074619Y-73345886D01*
X173070139Y-73350418D01*
X173062558Y-73358403D01*
X173055136Y-73366567D01*
X173048241Y-73374476D01*
X173042240Y-73381695D01*
X173037500Y-73387789D01*
X173034386Y-73392325D01*
X173033267Y-73394867D01*
X172762516Y-73394867D01*
X172761625Y-73389997D01*
X172761181Y-73369662D01*
X172761946Y-73360197D01*
X172764163Y-73346302D01*
X172767847Y-73333513D01*
X172773332Y-73320486D01*
X172775174Y-73316789D01*
X172786011Y-73299468D01*
X172799428Y-73284048D01*
X172815041Y-73270920D01*
X172832467Y-73260473D01*
X172835616Y-73258950D01*
X172847521Y-73253907D01*
X172858877Y-73250502D01*
X172870974Y-73248411D01*
X172885100Y-73247313D01*
X172885588Y-73247291D01*
X172895351Y-73247035D01*
X172903221Y-73247339D01*
X172910602Y-73248317D01*
X172918898Y-73250084D01*
X172926027Y-73252003D01*
X172943789Y-73258689D01*
X172960386Y-73267622D01*
X172975132Y-73278396D01*
X172987338Y-73290603D01*
X172994504Y-73299162D01*
X173010488Y-73283282D01*
X173031244Y-73264045D01*
X173060710Y-73240769D01*
X173092747Y-73219676D01*
X173127339Y-73200772D01*
X173164471Y-73184066D01*
X173204125Y-73169564D01*
X173223716Y-73163853D01*
X173514173Y-73163853D01*
X173514173Y-73219733D01*
X173827440Y-73219733D01*
X173827440Y-73163853D01*
X173514173Y-73163853D01*
X173223716Y-73163853D01*
X173246287Y-73157273D01*
X173290940Y-73147200D01*
X173338067Y-73139353D01*
X173344654Y-73138483D01*
X173356573Y-73137075D01*
X173369562Y-73135705D01*
X173382882Y-73134436D01*
X173395795Y-73133335D01*
X173407563Y-73132466D01*
X173417448Y-73131896D01*
X173424712Y-73131688D01*
X173427770Y-73131690D01*
X173433707Y-73131557D01*
X173437604Y-73130786D01*
X173439890Y-73128827D01*
X173440992Y-73125131D01*
X173441340Y-73119149D01*
X173441360Y-73110332D01*
X173441360Y-73091040D01*
X173900253Y-73091040D01*
X173900253Y-73105433D01*
X173900285Y-73111467D01*
X173900504Y-73116128D01*
X173901089Y-73118629D01*
X173902217Y-73119642D01*
X173904063Y-73119833D01*
X173904593Y-73119843D01*
X173908428Y-73120027D01*
X173914698Y-73120406D01*
X173922661Y-73120933D01*
X173931580Y-73121562D01*
X173957395Y-73123727D01*
X173991136Y-73127287D01*
X174026167Y-73131706D01*
X174061439Y-73136840D01*
X174095902Y-73142544D01*
X174128507Y-73148674D01*
X174130488Y-73149072D01*
X174140531Y-73151074D01*
X174149340Y-73152807D01*
X174156392Y-73154170D01*
X174161167Y-73155062D01*
X174163143Y-73155383D01*
X174163601Y-73154813D01*
X174164185Y-73151749D01*
X174164413Y-73146920D01*
X174164413Y-73138453D01*
X174330360Y-73138453D01*
X174330360Y-73202955D01*
X174344929Y-73209654D01*
X174360092Y-73216982D01*
X174386364Y-73231415D01*
X174411083Y-73247193D01*
X174411292Y-73247327D01*
X174434468Y-73264408D01*
G37*
D14*
X174434468Y-73264408D02*
X174455485Y-73282346D01*
X174473932Y-73300831D01*
X174489402Y-73319552D01*
X174492551Y-73324009D01*
X174499626Y-73335271D01*
X174506537Y-73347789D01*
X174512796Y-73360589D01*
X174517913Y-73372697D01*
X174521397Y-73383140D01*
X174524448Y-73394453D01*
X174524593Y-73394993D01*
X174636853Y-73395885D01*
X174636853Y-73483893D01*
X174570813Y-73483893D01*
X174567021Y-73483894D01*
X174552680Y-73483909D01*
X174539542Y-73483944D01*
X174527969Y-73483994D01*
X174518326Y-73484059D01*
X174510977Y-73484136D01*
X174506286Y-73484223D01*
X174504618Y-73484316D01*
X174504588Y-73484517D01*
X174504312Y-73487270D01*
X174503787Y-73493012D01*
X174503036Y-73501453D01*
X174502084Y-73512304D01*
X174500956Y-73525275D01*
X174499676Y-73540078D01*
X174498270Y-73556423D01*
X174496760Y-73574021D01*
X174495173Y-73592583D01*
X174493532Y-73611819D01*
X174491862Y-73631441D01*
X174490188Y-73651159D01*
X174488535Y-73670684D01*
X174486926Y-73689727D01*
X174485386Y-73707998D01*
X174483940Y-73725209D01*
X174482613Y-73741070D01*
X174481429Y-73755292D01*
X174480412Y-73767586D01*
X174479588Y-73777662D01*
X174478980Y-73785232D01*
X174478614Y-73790006D01*
X174478513Y-73791695D01*
X174478744Y-73791479D01*
X174480915Y-73789257D01*
X174485308Y-73784697D01*
X174491846Y-73777882D01*
X174500452Y-73768892D01*
X174511048Y-73757808D01*
X174523557Y-73744713D01*
X174537900Y-73729687D01*
X174554001Y-73712812D01*
X174571782Y-73694169D01*
X174591166Y-73673840D01*
X174612074Y-73651905D01*
X174634429Y-73628447D01*
X174658154Y-73603546D01*
X174683172Y-73577284D01*
X174709404Y-73549742D01*
X174736774Y-73521003D01*
X174765203Y-73491146D01*
X174794614Y-73460253D01*
X174824929Y-73428406D01*
X174856072Y-73395686D01*
X174887964Y-73362175D01*
X174920529Y-73327953D01*
X174953687Y-73293103D01*
X175428487Y-72794048D01*
X175428931Y-72858242D01*
X175429374Y-72922436D01*
X175416885Y-72935195D01*
X175416416Y-72935679D01*
X175413672Y-72938546D01*
X175408731Y-72943723D01*
X175401688Y-72951112D01*
X175392641Y-72960609D01*
X175381684Y-72972114D01*
X175368916Y-72985526D01*
X175354431Y-73000743D01*
X175338326Y-73017665D01*
X175320697Y-73036190D01*
X175301641Y-73056216D01*
X175281253Y-73077644D01*
X175259631Y-73100370D01*
X175236870Y-73124295D01*
X175213067Y-73149317D01*
X175188317Y-73175335D01*
X175162717Y-73202247D01*
X175136364Y-73229953D01*
X175109353Y-73258350D01*
X175081782Y-73287339D01*
X175053745Y-73316817D01*
X175025339Y-73346684D01*
X174996662Y-73376838D01*
X174967808Y-73407178D01*
X174938874Y-73437603D01*
X174909956Y-73468011D01*
X174881151Y-73498302D01*
X174852555Y-73528374D01*
X174824265Y-73558126D01*
X174796375Y-73587457D01*
X174768983Y-73616265D01*
X174742185Y-73644450D01*
X174716078Y-73671910D01*
X174690756Y-73698543D01*
X174666317Y-73724249D01*
X174642858Y-73748927D01*
X174620473Y-73772475D01*
X174599260Y-73794792D01*
X174579314Y-73815777D01*
X174560733Y-73835328D01*
X174543611Y-73853345D01*
X174528046Y-73869726D01*
X174514134Y-73884370D01*
X174501971Y-73897175D01*
X174491652Y-73908041D01*
X174483276Y-73916867D01*
X174476937Y-73923550D01*
X174472732Y-73927990D01*
X174470757Y-73930086D01*
X174466034Y-73935166D01*
X174457178Y-74039878D01*
X174415977Y-74527098D01*
X174413195Y-74560001D01*
X174409483Y-74603949D01*
X174405851Y-74646970D01*
X174402311Y-74688940D01*
X174398873Y-74729737D01*
X174395547Y-74769239D01*
X174392343Y-74807324D01*
X174389272Y-74843869D01*
X174386343Y-74878752D01*
X174383568Y-74911850D01*
X174380955Y-74943042D01*
X174378517Y-74972204D01*
X174376261Y-74999216D01*
X174374200Y-75023953D01*
X174372343Y-75046295D01*
X174370701Y-75066118D01*
X174369283Y-75083301D01*
X174368099Y-75097721D01*
X174367161Y-75109255D01*
X174366479Y-75117782D01*
X174366061Y-75123179D01*
X174365920Y-75125324D01*
X174365950Y-75125763D01*
X174366107Y-75126412D01*
X174366460Y-75127231D01*
X174367074Y-75128288D01*
X174368015Y-75129651D01*
X174369351Y-75131389D01*
X174371146Y-75133568D01*
X174373466Y-75136257D01*
X174376379Y-75139524D01*
X174379950Y-75143437D01*
X174384246Y-75148063D01*
X174389332Y-75153471D01*
X174395274Y-75159729D01*
X174398610Y-75163215D01*
X174402139Y-75166904D01*
X174409993Y-75175064D01*
X174418902Y-75184278D01*
X174428933Y-75194612D01*
X174440150Y-75206136D01*
X174452621Y-75218917D01*
X174466411Y-75233023D01*
X174481587Y-75248522D01*
X174498215Y-75265481D01*
X174516360Y-75283969D01*
X174536090Y-75304054D01*
X174557470Y-75325804D01*
X174580566Y-75349285D01*
X174605445Y-75374568D01*
X174632172Y-75401718D01*
X174660814Y-75430805D01*
X174691437Y-75461896D01*
X174724106Y-75495059D01*
X174758889Y-75530363D01*
X174795852Y-75567874D01*
X174835059Y-75607661D01*
X174876578Y-75649791D01*
X174879402Y-75652657D01*
X174914068Y-75687838D01*
X174948119Y-75722406D01*
X174981481Y-75756282D01*
X175014075Y-75789388D01*
X175045825Y-75821646D01*
X175076654Y-75852978D01*
X175106486Y-75883305D01*
X175135244Y-75912550D01*
X175162851Y-75940634D01*
X175189231Y-75967479D01*
X175214306Y-75993008D01*
X175238000Y-76017141D01*
X175260237Y-76039801D01*
X175280939Y-76060910D01*
X175300031Y-76080389D01*
X175317434Y-76098160D01*
X175333073Y-76114145D01*
X175346871Y-76128266D01*
X175358750Y-76140446D01*
X175368635Y-76150604D01*
X175376449Y-76158665D01*
X175382115Y-76164548D01*
X175385556Y-76168177D01*
X175386695Y-76169473D01*
X175385723Y-76170622D01*
X175382572Y-76173853D01*
X175377572Y-76178797D01*
X175371057Y-76185128D01*
X175363364Y-76192518D01*
X175354827Y-76200637D01*
X175353151Y-76202224D01*
X175343904Y-76210943D01*
X175336749Y-76217594D01*
X175331381Y-76222415D01*
X175327496Y-76225644D01*
X175324790Y-76227521D01*
X175322959Y-76228284D01*
X175321698Y-76228172D01*
X175320705Y-76227423D01*
X175319338Y-76226021D01*
X175312793Y-76219324D01*
X175304199Y-76210552D01*
X175293651Y-76199803D01*
X175281246Y-76187173D01*
X175267079Y-76172762D01*
X175251248Y-76156665D01*
X175233847Y-76138981D01*
X175214975Y-76119807D01*
X175194726Y-76099241D01*
X175173197Y-76077380D01*
X175150484Y-76054322D01*
X175126684Y-76030164D01*
X175101892Y-76005004D01*
X175076206Y-75978940D01*
X175049720Y-75952069D01*
X175022532Y-75924489D01*
X174994738Y-75896296D01*
X174966434Y-75867590D01*
X174937715Y-75838466D01*
X174908680Y-75809024D01*
X174879422Y-75779359D01*
X174850040Y-75749571D01*
X174820629Y-75719756D01*
X174791285Y-75690012D01*
X174762105Y-75660437D01*
X174733184Y-75631128D01*
X174704620Y-75602182D01*
X174676507Y-75573698D01*
X174648944Y-75545773D01*
X174622025Y-75518504D01*
X174595847Y-75491988D01*
X174570507Y-75466325D01*
X174546100Y-75441610D01*
X174522722Y-75417941D01*
X174500471Y-75395417D01*
X174479442Y-75374135D01*
X174459731Y-75354191D01*
X174441435Y-75335685D01*
X174424650Y-75318712D01*
X174409472Y-75303372D01*
X174395998Y-75289761D01*
X174384323Y-75277977D01*
X174374544Y-75268117D01*
X174366757Y-75260279D01*
X174361058Y-75254562D01*
X174357544Y-75251061D01*
X174356311Y-75249875D01*
X174356122Y-75250722D01*
X174355627Y-75254670D01*
X174354881Y-75261664D01*
X174353901Y-75271515D01*
X174352705Y-75284030D01*
X174351309Y-75299017D01*
X174349732Y-75316286D01*
X174347989Y-75335644D01*
X174346100Y-75356901D01*
X174344080Y-75379864D01*
X174341948Y-75404342D01*
X174339721Y-75430143D01*
X174337416Y-75457077D01*
X174335050Y-75484951D01*
X174333629Y-75501737D01*
X174330776Y-75535305D01*
X174328175Y-75565682D01*
X174325816Y-75592997D01*
X174323684Y-75617374D01*
X174321770Y-75638940D01*
X174320061Y-75657823D01*
X174318545Y-75674148D01*
X174317211Y-75688043D01*
X174316046Y-75699634D01*
X174315039Y-75709048D01*
X174314177Y-75716411D01*
X174313450Y-75721849D01*
X174312844Y-75725490D01*
X174312349Y-75727460D01*
X174310764Y-75731014D01*
X174304790Y-75739837D01*
X174296858Y-75747458D01*
X174287988Y-75752815D01*
X174279560Y-75756440D01*
X174279560Y-75893506D01*
X174103453Y-75893506D01*
X174103453Y-75756346D01*
X173760977Y-75756349D01*
X173418500Y-75756352D01*
X173408114Y-75772012D01*
X173404472Y-75777367D01*
X173385708Y-75801373D01*
X173364568Y-75823069D01*
X173341255Y-75842319D01*
X173315971Y-75858984D01*
X173288922Y-75872928D01*
X173260308Y-75884013D01*
X173230334Y-75892104D01*
X173224118Y-75893367D01*
X173218121Y-75894375D01*
X173212053Y-75895091D01*
X173205252Y-75895562D01*
X173197053Y-75895831D01*
X173186795Y-75895944D01*
X173173813Y-75895946D01*
X173164607Y-75895904D01*
X173153377Y-75895762D01*
X173144454Y-75895484D01*
X173137194Y-75895027D01*
X173130955Y-75894344D01*
X173125091Y-75893391D01*
X173118959Y-75892124D01*
X173101858Y-75887826D01*
X173072062Y-75877765D01*
X173044034Y-75864869D01*
X173017883Y-75849217D01*
X172993717Y-75830885D01*
X172971644Y-75809950D01*
X172951772Y-75786489D01*
X172934209Y-75760580D01*
X172924291Y-75742473D01*
X172912975Y-75716264D01*
X172904243Y-75688688D01*
X172898248Y-75660364D01*
X172895145Y-75631911D01*
X172895118Y-75618340D01*
X173027480Y-75618340D01*
X173027532Y-75626177D01*
X173027744Y-75634644D01*
X173028214Y-75641266D01*
X173029044Y-75646935D01*
X173030339Y-75652542D01*
X173032202Y-75658980D01*
X173033507Y-75663058D01*
X173042128Y-75683782D01*
X173053401Y-75702681D01*
X173067094Y-75719535D01*
X173082972Y-75734125D01*
X173100803Y-75746229D01*
X173120353Y-75755628D01*
X173141388Y-75762100D01*
X173145110Y-75762898D01*
X173167228Y-75765692D01*
X173189119Y-75765209D01*
X173210487Y-75761544D01*
X173231038Y-75754789D01*
X173250476Y-75745037D01*
X173268505Y-75732381D01*
X173284830Y-75716915D01*
X173289082Y-75712077D01*
X173297612Y-75700822D01*
X173304962Y-75688482D01*
X173311852Y-75673912D01*
X173317150Y-75659626D01*
X173320719Y-75644630D01*
X173322385Y-75628689D01*
X173322321Y-75610773D01*
X173321967Y-75604503D01*
X173320455Y-75590421D01*
X173317806Y-75577876D01*
X173313703Y-75565594D01*
X173307832Y-75552300D01*
X173298744Y-75536212D01*
X173285815Y-75519307D01*
X173270720Y-75504603D01*
X173253791Y-75492245D01*
X173235355Y-75482376D01*
X173215743Y-75475141D01*
X173195282Y-75470683D01*
X173174304Y-75469147D01*
X173153136Y-75470678D01*
X173132109Y-75475418D01*
X173115239Y-75481664D01*
X173095656Y-75492017D01*
X173078093Y-75504985D01*
X173062709Y-75520405D01*
X173049660Y-75538115D01*
X173039103Y-75557951D01*
X173031197Y-75579751D01*
X173030831Y-75581046D01*
X173029375Y-75586913D01*
X173028395Y-75592714D01*
X173027808Y-75599310D01*
X173027531Y-75607564D01*
X173027480Y-75618340D01*
X172895118Y-75618340D01*
X172895089Y-75603946D01*
X172896163Y-75584473D01*
X172888938Y-75592192D01*
X172884151Y-75597293D01*
X172876136Y-75605798D01*
X172866293Y-75616213D01*
X172854740Y-75628412D01*
X172841597Y-75642272D01*
X172826982Y-75657668D01*
X172811015Y-75674475D01*
X172793814Y-75692568D01*
X172775499Y-75711824D01*
X172756189Y-75732116D01*
X172736001Y-75753320D01*
X172715056Y-75775313D01*
X172693472Y-75797968D01*
X172671368Y-75821163D01*
X172648864Y-75844771D01*
X172626077Y-75868668D01*
X172603128Y-75892730D01*
X172580135Y-75916831D01*
X172557216Y-75940848D01*
X172534491Y-75964656D01*
X172512080Y-75988130D01*
X172490100Y-76011145D01*
X172468670Y-76033576D01*
X172447911Y-76055300D01*
X172427940Y-76076191D01*
X172408877Y-76096125D01*
X172390840Y-76114977D01*
X172373948Y-76132623D01*
X172358322Y-76148937D01*
X172344078Y-76163795D01*
X172331337Y-76177073D01*
X172320217Y-76188646D01*
X172310837Y-76198389D01*
X172303317Y-76206177D01*
X172297775Y-76211887D01*
X172294330Y-76215393D01*
X172293100Y-76216570D01*
X172291950Y-76215673D01*
X172288602Y-76212717D01*
X172283433Y-76208010D01*
X172276788Y-76201868D01*
X172269012Y-76194611D01*
X172260450Y-76186553D01*
X172229189Y-76157021D01*
X172241338Y-76144111D01*
X172241441Y-76144002D01*
X172243731Y-76141584D01*
X172248263Y-76136812D01*
X172254950Y-76129773D01*
X172263708Y-76120559D01*
X172274452Y-76109258D01*
X172287096Y-76095959D01*
X172301557Y-76080752D01*
X172317748Y-76063727D01*
X172335584Y-76044973D01*
X172354981Y-76024579D01*
X172375854Y-76002635D01*
X172398117Y-75979229D01*
X172421686Y-75954452D01*
X172446474Y-75928394D01*
X172472399Y-75901142D01*
X172499373Y-75872787D01*
X172527313Y-75843419D01*
X172556133Y-75813126D01*
X172585748Y-75781997D01*
X172616073Y-75750124D01*
X172647023Y-75717594D01*
X172678513Y-75684497D01*
X172698806Y-75663168D01*
X172735698Y-75624389D01*
X172770353Y-75587953D01*
X172802839Y-75553789D01*
X172833221Y-75521828D01*
X172861566Y-75491999D01*
X172887940Y-75464231D01*
X172912409Y-75438454D01*
X172935041Y-75414598D01*
X172955901Y-75392591D01*
X172975055Y-75372364D01*
X172992570Y-75353847D01*
X173008512Y-75336967D01*
X173022948Y-75321656D01*
X173035944Y-75307842D01*
X173047566Y-75295456D01*
X173057881Y-75284426D01*
X173066954Y-75274683D01*
X173072876Y-75268289D01*
X173197346Y-75268289D01*
X173200049Y-75300228D01*
X173200655Y-75307395D01*
X173201599Y-75318270D01*
X173202384Y-75326391D01*
X173203100Y-75332159D01*
X173203834Y-75335977D01*
X173204675Y-75338247D01*
X173205710Y-75339370D01*
X173207028Y-75339749D01*
X173208716Y-75339786D01*
X173210611Y-75339924D01*
X173215708Y-75340629D01*
X173222576Y-75341797D01*
X173230274Y-75343274D01*
X173245115Y-75346715D01*
X173273770Y-75355890D01*
X173301096Y-75368015D01*
X173326878Y-75382907D01*
X173350901Y-75400383D01*
X173372952Y-75420260D01*
X173392816Y-75442355D01*
X173410279Y-75466484D01*
X173425127Y-75492464D01*
X173437146Y-75520113D01*
X173439350Y-75526302D01*
X173447221Y-75554054D01*
X173452291Y-75582769D01*
X173454456Y-75611682D01*
X173453947Y-75628689D01*
X173453609Y-75640031D01*
X173453440Y-75641984D01*
X173452690Y-75650379D01*
X173452015Y-75657502D01*
X173451484Y-75662653D01*
X173451164Y-75665129D01*
X173451367Y-75665334D01*
X173452410Y-75665579D01*
X173454443Y-75665807D01*
X173457586Y-75666017D01*
X173461958Y-75666211D01*
X173467681Y-75666391D01*
X173474872Y-75666555D01*
X173483653Y-75666706D01*
X173494144Y-75666845D01*
X173506463Y-75666971D01*
X173520730Y-75667087D01*
X173537067Y-75667192D01*
X173555592Y-75667289D01*
X173576425Y-75667376D01*
X173599686Y-75667456D01*
X173625494Y-75667529D01*
X173653971Y-75667597D01*
X173685235Y-75667659D01*
X173719407Y-75667717D01*
X173756605Y-75667771D01*
X173796951Y-75667823D01*
X173840563Y-75667873D01*
X173881120Y-75667917D01*
X173920936Y-75667957D01*
X173957614Y-75667991D01*
X173991283Y-75668017D01*
X174022072Y-75668035D01*
X174050108Y-75668043D01*
X174075520Y-75668042D01*
X174098436Y-75668029D01*
X174118985Y-75668005D01*
X174137294Y-75667968D01*
X174153492Y-75667918D01*
X174167708Y-75667853D01*
X174180069Y-75667773D01*
X174190704Y-75667677D01*
X174199741Y-75667565D01*
X174207309Y-75667435D01*
X174213535Y-75667286D01*
X174218549Y-75667118D01*
X174222478Y-75666930D01*
X174225450Y-75666721D01*
X174227595Y-75666491D01*
X174229040Y-75666237D01*
X174229913Y-75665961D01*
X174230343Y-75665659D01*
X174230458Y-75665333D01*
X174230460Y-75665273D01*
X174230632Y-75662903D01*
X174231074Y-75657368D01*
X174231768Y-75648857D01*
X174232700Y-75637559D01*
X174233853Y-75623662D01*
X174235212Y-75607355D01*
X174236760Y-75588828D01*
X174238483Y-75568267D01*
X174240365Y-75545863D01*
X174242388Y-75521804D01*
X174244539Y-75496279D01*
X174246801Y-75469476D01*
X174249157Y-75441583D01*
X174251594Y-75412791D01*
X174272724Y-75163215D01*
X174167207Y-75056344D01*
X174157872Y-75046887D01*
X174140469Y-75029253D01*
X174121222Y-75009744D01*
X174100464Y-74988698D01*
X174078527Y-74966452D01*
X174055746Y-74943345D01*
X174032453Y-74919715D01*
X174008980Y-74895899D01*
X173985663Y-74872236D01*
X173962832Y-74849063D01*
X173940822Y-74826718D01*
X173919966Y-74805540D01*
X173907540Y-74792924D01*
X173889803Y-74774929D01*
X173872819Y-74757713D01*
X173856734Y-74741424D01*
X173841697Y-74726212D01*
X173827854Y-74712225D01*
X173815353Y-74699611D01*
X173804342Y-74688520D01*
X173794968Y-74679100D01*
X173787378Y-74671500D01*
X173781721Y-74665869D01*
X173778143Y-74662355D01*
X173776791Y-74661107D01*
X173776406Y-74661398D01*
X173774232Y-74663490D01*
X173770136Y-74667613D01*
X173764098Y-74673788D01*
X173756101Y-74682034D01*
X173746125Y-74692369D01*
X173734153Y-74704814D01*
X173720166Y-74719388D01*
X173704146Y-74736110D01*
X173686073Y-74754999D01*
X173665929Y-74776075D01*
X173643697Y-74799358D01*
X173619357Y-74824866D01*
X173592891Y-74852619D01*
X173564280Y-74882637D01*
X173533507Y-74914939D01*
X173500551Y-74949544D01*
X173465396Y-74986471D01*
X173428022Y-75025740D01*
X173388411Y-75067371D01*
X173346545Y-75111382D01*
X173302404Y-75157794D01*
X173255971Y-75206624D01*
X173207227Y-75257894D01*
X173197346Y-75268289D01*
X173072876Y-75268289D01*
X173074853Y-75266155D01*
X173081644Y-75258773D01*
X173087392Y-75252465D01*
X173092165Y-75247162D01*
X173096028Y-75242792D01*
X173099049Y-75239286D01*
X173101292Y-75236573D01*
X173102825Y-75234582D01*
X173103715Y-75233243D01*
X173104026Y-75232486D01*
X173104022Y-75232191D01*
X173103814Y-75229083D01*
X173103315Y-75222758D01*
X173102537Y-75213336D01*
X173101489Y-75200935D01*
X173100183Y-75185674D01*
X173098629Y-75167672D01*
X173096838Y-75147047D01*
X173094819Y-75123918D01*
X173092583Y-75098404D01*
X173090141Y-75070624D01*
X173087504Y-75040697D01*
X173084681Y-75008740D01*
X173081684Y-74974874D01*
X173078522Y-74939217D01*
X173075206Y-74901887D01*
X173071747Y-74863004D01*
X173068156Y-74822686D01*
X173064441Y-74781052D01*
X173060615Y-74738220D01*
X173056687Y-74694310D01*
X173052669Y-74649440D01*
X173048570Y-74603729D01*
X173047215Y-74588626D01*
X173043140Y-74543211D01*
X173039148Y-74498688D01*
X173035247Y-74455177D01*
X173031448Y-74412795D01*
X173027763Y-74371660D01*
X173024201Y-74331891D01*
X173020773Y-74293605D01*
X173017490Y-74256920D01*
X173014363Y-74221955D01*
X173011400Y-74188827D01*
X173008615Y-74157656D01*
X173006016Y-74128558D01*
X173003614Y-74101653D01*
X173001421Y-74077057D01*
X172999446Y-74054890D01*
X172997700Y-74035269D01*
X172996194Y-74018313D01*
X172994938Y-74004139D01*
X172993943Y-73992866D01*
X172993219Y-73984611D01*
X172992777Y-73979494D01*
X172992627Y-73977631D01*
X172992557Y-73977339D01*
X172991957Y-73976849D01*
X172990549Y-73976427D01*
X172988099Y-73976067D01*
X172984898Y-73975806D01*
X173081420Y-73975806D01*
X173133967Y-74561143D01*
X173136523Y-74589601D01*
X173140451Y-74633295D01*
X173144300Y-74676046D01*
X173148057Y-74717732D01*
X173151713Y-74758232D01*
X173155256Y-74797423D01*
X173158674Y-74835185D01*
X173161958Y-74871396D01*
X173165095Y-74905935D01*
X173168074Y-74938679D01*
X173170885Y-74969509D01*
X173173516Y-74998301D01*
X173175957Y-75024935D01*
X173178196Y-75049289D01*
X173180222Y-75071241D01*
X173182024Y-75090671D01*
X173183590Y-75107457D01*
X173184911Y-75121477D01*
X173185974Y-75132609D01*
X173186769Y-75140733D01*
X173187285Y-75145726D01*
X173187510Y-75147468D01*
X173188168Y-75146972D01*
X173190997Y-75144260D01*
X173195934Y-75139311D01*
X173202853Y-75132260D01*
X173211626Y-75123240D01*
X173222126Y-75112385D01*
X173234227Y-75099829D01*
X173247801Y-75085705D01*
X173262721Y-75070147D01*
X173278861Y-75053290D01*
X173296093Y-75035265D01*
X173314291Y-75016208D01*
X173333327Y-74996253D01*
X173353075Y-74975532D01*
X173373407Y-74954180D01*
X173394197Y-74932330D01*
X173415318Y-74910116D01*
X173436642Y-74887672D01*
X173458042Y-74865132D01*
X173479393Y-74842629D01*
X173500566Y-74820297D01*
X173521435Y-74798270D01*
X173541873Y-74776682D01*
X173561752Y-74755666D01*
X173580946Y-74735356D01*
X173599328Y-74715886D01*
X173616771Y-74697390D01*
X173633148Y-74680000D01*
X173648332Y-74663852D01*
X173662196Y-74649079D01*
X173674613Y-74635815D01*
X173685456Y-74624192D01*
X173694598Y-74614346D01*
X173701912Y-74606410D01*
X173707271Y-74600517D01*
X173710548Y-74596801D01*
X173711616Y-74595397D01*
X173711574Y-74595349D01*
X173837412Y-74595349D01*
X173837460Y-74595397D01*
X173872800Y-74631017D01*
X173876826Y-74635082D01*
X173883962Y-74642301D01*
X173893171Y-74651628D01*
X173904286Y-74662894D01*
X173917137Y-74675927D01*
X173931556Y-74690556D01*
X173947375Y-74706610D01*
X173964424Y-74723916D01*
X173982534Y-74742305D01*
X174001538Y-74761605D01*
X174021266Y-74781644D01*
X174041549Y-74802251D01*
X174062220Y-74823256D01*
X174083109Y-74844486D01*
X174103317Y-74865027D01*
X174123240Y-74885279D01*
X174142513Y-74904870D01*
X174160993Y-74923654D01*
X174178534Y-74941485D01*
X174194994Y-74958217D01*
X174210228Y-74973704D01*
X174224094Y-74987800D01*
X174236447Y-75000358D01*
X174247143Y-75011232D01*
X174256039Y-75020277D01*
X174262991Y-75027346D01*
X174267856Y-75032293D01*
X174270489Y-75034973D01*
X174273981Y-75038448D01*
X174278823Y-75042869D01*
X174281881Y-75045044D01*
X174282947Y-75044810D01*
X174282947Y-75044809D01*
X174283089Y-75042898D01*
X174283506Y-75037745D01*
X174284186Y-75029482D01*
X174285119Y-75018241D01*
X174286293Y-75004155D01*
X174287697Y-74987355D01*
X174289321Y-74967974D01*
X174291152Y-74946143D01*
X174293181Y-74921996D01*
X174295395Y-74895663D01*
X174297784Y-74867277D01*
X174300336Y-74836971D01*
X174303041Y-74804876D01*
X174305887Y-74771124D01*
X174308864Y-74735849D01*
X174311959Y-74699180D01*
X174315163Y-74661252D01*
X174318463Y-74622196D01*
X174321849Y-74582144D01*
X174325310Y-74541228D01*
X174325357Y-74540678D01*
X174328813Y-74499801D01*
X174332190Y-74459803D01*
X174335478Y-74420815D01*
X174338665Y-74382969D01*
X174341740Y-74346396D01*
X174344694Y-74311227D01*
X174347513Y-74277594D01*
X174350189Y-74245628D01*
X174352709Y-74215460D01*
X174355063Y-74187223D01*
X174357240Y-74161046D01*
X174359229Y-74137062D01*
X174361019Y-74115402D01*
X174362599Y-74096196D01*
X174363957Y-74079578D01*
X174365085Y-74065677D01*
X174365969Y-74054625D01*
X174366600Y-74046554D01*
X174366966Y-74041594D01*
X174367057Y-74039878D01*
X174366748Y-74040144D01*
X174364432Y-74042462D01*
X174359937Y-74047073D01*
X174353369Y-74053867D01*
X174344832Y-74062736D01*
X174334428Y-74073571D01*
X174322263Y-74086263D01*
X174308440Y-74100703D01*
X174293063Y-74116783D01*
X174276237Y-74134393D01*
X174258065Y-74153424D01*
X174238652Y-74173768D01*
X174218101Y-74195316D01*
X174196517Y-74217960D01*
X174174003Y-74241589D01*
X174150664Y-74266095D01*
X174126603Y-74291370D01*
X174101926Y-74317305D01*
X173837412Y-74595349D01*
X173711574Y-74595349D01*
X173710915Y-74594594D01*
X173707969Y-74591485D01*
X173702817Y-74586140D01*
X173695558Y-74578660D01*
X173686292Y-74569147D01*
X173675116Y-74557701D01*
X173662132Y-74544423D01*
X173647436Y-74529415D01*
X173631129Y-74512778D01*
X173613309Y-74494611D01*
X173594076Y-74475017D01*
X173573529Y-74454096D01*
X173551766Y-74431949D01*
X173528886Y-74408677D01*
X173504990Y-74384382D01*
X173480175Y-74359163D01*
X173454541Y-74333123D01*
X173428187Y-74306362D01*
X173401211Y-74278980D01*
X173379450Y-74256897D01*
X173348834Y-74225831D01*
X173320452Y-74197040D01*
X173294221Y-74170439D01*
X173270057Y-74145946D01*
X173247876Y-74123475D01*
X173227593Y-74102943D01*
X173209124Y-74084267D01*
X173192386Y-74067362D01*
X173177295Y-74052145D01*
X173163766Y-74038532D01*
X173151715Y-74026438D01*
X173141059Y-74015782D01*
X173131713Y-74006477D01*
X173123593Y-73998441D01*
X173116615Y-73991591D01*
X173110695Y-73985841D01*
X173105750Y-73981108D01*
X173101694Y-73977309D01*
X173098444Y-73974359D01*
X173095916Y-73972175D01*
X173094026Y-73970673D01*
X173092690Y-73969769D01*
X173091824Y-73969380D01*
X173091343Y-73969421D01*
X173091164Y-73969809D01*
X173090974Y-73971170D01*
X173089518Y-73974166D01*
X173086030Y-73975283D01*
X173081420Y-73975806D01*
X172984898Y-73975806D01*
X172984371Y-73975763D01*
X172979132Y-73975507D01*
X172972146Y-73975294D01*
X172963181Y-73975117D01*
X172952000Y-73974970D01*
X172938371Y-73974846D01*
X172922058Y-73974738D01*
X172902827Y-73974641D01*
X172880443Y-73974548D01*
X172768260Y-73974113D01*
X172768260Y-73902146D01*
X172841920Y-73902146D01*
X172985970Y-73902146D01*
X172985037Y-73894103D01*
X172984809Y-73892075D01*
X172984133Y-73885654D01*
X172983333Y-73877691D01*
X172982537Y-73869451D01*
X172980971Y-73852843D01*
X172916309Y-73786901D01*
X172905232Y-73775617D01*
X172892598Y-73762791D01*
X172881982Y-73752083D01*
X172873191Y-73743312D01*
X172866037Y-73736297D01*
X172860327Y-73730857D01*
X172855872Y-73726812D01*
X172852481Y-73723980D01*
X172849963Y-73722181D01*
X172848127Y-73721235D01*
X172846783Y-73720960D01*
X172841920Y-73720960D01*
X172841920Y-73902146D01*
X172768260Y-73902146D01*
X172768260Y-73648993D01*
X172773537Y-73648146D01*
X172773786Y-73648092D01*
X172774148Y-73647889D01*
X172774282Y-73647492D01*
X172774109Y-73646820D01*
X172773553Y-73645796D01*
X172772538Y-73644340D01*
X172770987Y-73642372D01*
X172768823Y-73639814D01*
X172765969Y-73636587D01*
X172762348Y-73632610D01*
X172757884Y-73627806D01*
X172752501Y-73622095D01*
X172746120Y-73615397D01*
X172738666Y-73607634D01*
X172730062Y-73598726D01*
X172720231Y-73588594D01*
X172709096Y-73577160D01*
X172696581Y-73564343D01*
X172682609Y-73550065D01*
X172667103Y-73534247D01*
X172649986Y-73516809D01*
X172631182Y-73497672D01*
X172610614Y-73476757D01*
X172588205Y-73453985D01*
X172563878Y-73429277D01*
X172537557Y-73402553D01*
X172509165Y-73373734D01*
X172478625Y-73342742D01*
X172445861Y-73309497D01*
X172410795Y-73273920D01*
X172042777Y-72900540D01*
X172042722Y-72837047D01*
X172042667Y-72773555D01*
X172064483Y-72795561D01*
X172065394Y-72796481D01*
X172069215Y-72800349D01*
X172075282Y-72806498D01*
X172083503Y-72814834D01*
X172093786Y-72825264D01*
X172106038Y-72837694D01*
X172120169Y-72852031D01*
X172136086Y-72868182D01*
X172153697Y-72886053D01*
X172172909Y-72905551D01*
X172193632Y-72926582D01*
X172215773Y-72949053D01*
X172239239Y-72972871D01*
X172263940Y-72997943D01*
X172289783Y-73024174D01*
X172316675Y-73051473D01*
X172344526Y-73079744D01*
X172373242Y-73108895D01*
X172402733Y-73138833D01*
X172432906Y-73169464D01*
X172463669Y-73200695D01*
X172494929Y-73232433D01*
X172903560Y-73647300D01*
X172932853Y-73647762D01*
X172962147Y-73648224D01*
X172962126Y-73643529D01*
X172962014Y-73641203D01*
X172961627Y-73635826D01*
X172960998Y-73628007D01*
X172960166Y-73618161D01*
X172959170Y-73606705D01*
X172958047Y-73594054D01*
X172956836Y-73580622D01*
X172955575Y-73566825D01*
X172954303Y-73553080D01*
X172953058Y-73539800D01*
X172951877Y-73527402D01*
X172950799Y-73516301D01*
X172949863Y-73506912D01*
X172949106Y-73499651D01*
X172948567Y-73494932D01*
X172948284Y-73493173D01*
X172948280Y-73493169D01*
X172946456Y-73493416D01*
X172942396Y-73494708D01*
X172936968Y-73496768D01*
X172931796Y-73498696D01*
X172913871Y-73503317D01*
X172894927Y-73505401D01*
X172875971Y-73504887D01*
X172858007Y-73501711D01*
X172840894Y-73495914D01*
X172828960Y-73489816D01*
X173038347Y-73489816D01*
X173038416Y-73491431D01*
X173038759Y-73496399D01*
X173039358Y-73504109D01*
X173040184Y-73514187D01*
X173041205Y-73526258D01*
X173042388Y-73539946D01*
X173043704Y-73554876D01*
X173045120Y-73570672D01*
X173046156Y-73582147D01*
X173047493Y-73597010D01*
X173048710Y-73610577D01*
X173049774Y-73622504D01*
X173050655Y-73632444D01*
X173051322Y-73640050D01*
X173051746Y-73644976D01*
X173051893Y-73646876D01*
X173053298Y-73647349D01*
X173057454Y-73647763D01*
X173063700Y-73648043D01*
X173071367Y-73648146D01*
X173090840Y-73648146D01*
X173090840Y-73837421D01*
X173154616Y-73902146D01*
X173321980Y-74072001D01*
X173322882Y-73981733D01*
X173915493Y-73981733D01*
X173915493Y-74169682D01*
X173419113Y-74170540D01*
X173596345Y-74350456D01*
X173600113Y-74354281D01*
X173620347Y-74374808D01*
X173639917Y-74394643D01*
X173658691Y-74413651D01*
X173676537Y-74431702D01*
X173693324Y-74448661D01*
X173708920Y-74464398D01*
X173723194Y-74478779D01*
X173736014Y-74491673D01*
X173747249Y-74502946D01*
X173756767Y-74512467D01*
X173764436Y-74520102D01*
X173770126Y-74525720D01*
X173773704Y-74529187D01*
X173775040Y-74530373D01*
X173775134Y-74530296D01*
X173776933Y-74528493D01*
X173780917Y-74524392D01*
X173786967Y-74518119D01*
X173794965Y-74509798D01*
X173804791Y-74499554D01*
X173816326Y-74487513D01*
X173829451Y-74473798D01*
X173844048Y-74458535D01*
X173859997Y-74441849D01*
X173877178Y-74423864D01*
X173895475Y-74404706D01*
X173914766Y-74384499D01*
X173934933Y-74363368D01*
X173955858Y-74341438D01*
X173977420Y-74318835D01*
X173999502Y-74295682D01*
X174021983Y-74272104D01*
X174044746Y-74248228D01*
X174067670Y-74224176D01*
X174090638Y-74200076D01*
X174113530Y-74176050D01*
X174136226Y-74152224D01*
X174158609Y-74128724D01*
X174180558Y-74105673D01*
X174201955Y-74083197D01*
X174222681Y-74061420D01*
X174242617Y-74040468D01*
X174261644Y-74020465D01*
X174279643Y-74001537D01*
X174296494Y-73983807D01*
X174312079Y-73967402D01*
X174326279Y-73952445D01*
X174338975Y-73939062D01*
X174350047Y-73927378D01*
X174359377Y-73917517D01*
X174366846Y-73909604D01*
X174372334Y-73903765D01*
X174375723Y-73900124D01*
X174376174Y-73899624D01*
X174376776Y-73898843D01*
X174377338Y-73897824D01*
X174377880Y-73896383D01*
X174378420Y-73894335D01*
X174378978Y-73891496D01*
X174379573Y-73887681D01*
X174380224Y-73882706D01*
X174380950Y-73876385D01*
X174381769Y-73868536D01*
X174382701Y-73858972D01*
X174383766Y-73847510D01*
X174384981Y-73833965D01*
X174386366Y-73818152D01*
X174387940Y-73799888D01*
X174389723Y-73778986D01*
X174391732Y-73755264D01*
X174393988Y-73728536D01*
X174396508Y-73698617D01*
X174397575Y-73685961D01*
X174399710Y-73660657D01*
X174401770Y-73636287D01*
X174403736Y-73613074D01*
X174405590Y-73591238D01*
X174407311Y-73571003D01*
X174408881Y-73552588D01*
X174410282Y-73536218D01*
X174411494Y-73522112D01*
X174412499Y-73510494D01*
X174413277Y-73501586D01*
X174413809Y-73495608D01*
X174414077Y-73492783D01*
X174415056Y-73483893D01*
X173038347Y-73483893D01*
X173038347Y-73489816D01*
X172828960Y-73489816D01*
X172822901Y-73486720D01*
X172806776Y-73475062D01*
X172792732Y-73461232D01*
X172780981Y-73445520D01*
X172771738Y-73428216D01*
X172765215Y-73409611D01*
X172762516Y-73394867D01*
X173033267Y-73394867D01*
X173033360Y-73394884D01*
X173035808Y-73394959D01*
X173041490Y-73395032D01*
X173050282Y-73395103D01*
X173062059Y-73395172D01*
X173076697Y-73395239D01*
X173094073Y-73395304D01*
X173114062Y-73395366D01*
X173136541Y-73395425D01*
X173161384Y-73395482D01*
X173188469Y-73395534D01*
X173217671Y-73395584D01*
X173248866Y-73395629D01*
X173281930Y-73395671D01*
X173316739Y-73395709D01*
X173353168Y-73395742D01*
X173391095Y-73395771D01*
X173430395Y-73395795D01*
X173470943Y-73395814D01*
X173512616Y-73395828D01*
X173555290Y-73395837D01*
X173598840Y-73395840D01*
X174164413Y-73395840D01*
X174330360Y-73395840D01*
X174381160Y-73395840D01*
X174385901Y-73395833D01*
X174398250Y-73395758D01*
X174409282Y-73395606D01*
X174418583Y-73395388D01*
X174425739Y-73395116D01*
X174430336Y-73394800D01*
X174431960Y-73394453D01*
X174431950Y-73394328D01*
X174430872Y-73391718D01*
X174428325Y-73387138D01*
X174424762Y-73381308D01*
X174420633Y-73374945D01*
X174416391Y-73368768D01*
X174412487Y-73363494D01*
X174406028Y-73356155D01*
X174396872Y-73347292D01*
X174386100Y-73337996D01*
X174374419Y-73328875D01*
X174362533Y-73320536D01*
X174361955Y-73320155D01*
X174353415Y-73314684D01*
X174345544Y-73309900D01*
X174338874Y-73306106D01*
X174333940Y-73303607D01*
X174331274Y-73302706D01*
X174331251Y-73302721D01*
X174331014Y-73304635D01*
X174330801Y-73309464D01*
X174330621Y-73316774D01*
X174330482Y-73326134D01*
X174330392Y-73337111D01*
X174330360Y-73349273D01*
X174330360Y-73395840D01*
X174164413Y-73395840D01*
X174164413Y-73247193D01*
X174160603Y-73246250D01*
X174159285Y-73245932D01*
X174152527Y-73244425D01*
X174143229Y-73242477D01*
X174132015Y-73240208D01*
X174119508Y-73237740D01*
X174106333Y-73235192D01*
X174093114Y-73232688D01*
X174080474Y-73230346D01*
X174069037Y-73228288D01*
X174059427Y-73226636D01*
X174052744Y-73225547D01*
X174035065Y-73222836D01*
X174016620Y-73220224D01*
X173997921Y-73217768D01*
X173979482Y-73215528D01*
X173961815Y-73213562D01*
X173945435Y-73211927D01*
X173930854Y-73210682D01*
X173918586Y-73209885D01*
X173909143Y-73209594D01*
X173900253Y-73209573D01*
X173900253Y-73292546D01*
X173441360Y-73292546D01*
X173441360Y-73256140D01*
X173441357Y-73253541D01*
X173441258Y-73242460D01*
X173441036Y-73233131D01*
X173440707Y-73225960D01*
X173440290Y-73221358D01*
X173439802Y-73219733D01*
X173439055Y-73219764D01*
X173435379Y-73219979D01*
X173429277Y-73220367D01*
X173421371Y-73220886D01*
X173412285Y-73221497D01*
X173405051Y-73222015D01*
X173360842Y-73226381D01*
X173318841Y-73232645D01*
X173279167Y-73240776D01*
X173241938Y-73250742D01*
X173207275Y-73262512D01*
X173175296Y-73276055D01*
X173146121Y-73291340D01*
X173134980Y-73298002D01*
X173118459Y-73308773D01*
X173103567Y-73319830D01*
X173089291Y-73331943D01*
X173074619Y-73345886D01*
X173070139Y-73350418D01*
X173062558Y-73358403D01*
X173055136Y-73366567D01*
X173048241Y-73374476D01*
X173042240Y-73381695D01*
X173037500Y-73387789D01*
X173034386Y-73392325D01*
X173033267Y-73394867D01*
X172762516Y-73394867D01*
X172761625Y-73389997D01*
X172761181Y-73369662D01*
X172761946Y-73360197D01*
X172764163Y-73346302D01*
X172767847Y-73333513D01*
X172773332Y-73320486D01*
X172775174Y-73316789D01*
X172786011Y-73299468D01*
X172799428Y-73284048D01*
X172815041Y-73270920D01*
X172832467Y-73260473D01*
X172835616Y-73258950D01*
X172847521Y-73253907D01*
X172858877Y-73250502D01*
X172870974Y-73248411D01*
X172885100Y-73247313D01*
X172885588Y-73247291D01*
X172895351Y-73247035D01*
X172903221Y-73247339D01*
X172910602Y-73248317D01*
X172918898Y-73250084D01*
X172926027Y-73252003D01*
X172943789Y-73258689D01*
X172960386Y-73267622D01*
X172975132Y-73278396D01*
X172987338Y-73290603D01*
X172994504Y-73299162D01*
X173010488Y-73283282D01*
X173031244Y-73264045D01*
X173060710Y-73240769D01*
X173092747Y-73219676D01*
X173127339Y-73200772D01*
X173164471Y-73184066D01*
X173204125Y-73169564D01*
X173223716Y-73163853D01*
X173514173Y-73163853D01*
X173514173Y-73219733D01*
X173827440Y-73219733D01*
X173827440Y-73163853D01*
X173514173Y-73163853D01*
X173223716Y-73163853D01*
X173246287Y-73157273D01*
X173290940Y-73147200D01*
X173338067Y-73139353D01*
X173344654Y-73138483D01*
X173356573Y-73137075D01*
X173369562Y-73135705D01*
X173382882Y-73134436D01*
X173395795Y-73133335D01*
X173407563Y-73132466D01*
X173417448Y-73131896D01*
X173424712Y-73131688D01*
X173427770Y-73131690D01*
X173433707Y-73131557D01*
X173437604Y-73130786D01*
X173439890Y-73128827D01*
X173440992Y-73125131D01*
X173441340Y-73119149D01*
X173441360Y-73110332D01*
X173441360Y-73091040D01*
X173900253Y-73091040D01*
X173900253Y-73105433D01*
X173900285Y-73111467D01*
X173900504Y-73116128D01*
X173901089Y-73118629D01*
X173902217Y-73119642D01*
X173904063Y-73119833D01*
X173904593Y-73119843D01*
X173908428Y-73120027D01*
X173914698Y-73120406D01*
X173922661Y-73120933D01*
X173931580Y-73121562D01*
X173957395Y-73123727D01*
X173991136Y-73127287D01*
X174026167Y-73131706D01*
X174061439Y-73136840D01*
X174095902Y-73142544D01*
X174128507Y-73148674D01*
X174130488Y-73149072D01*
X174140531Y-73151074D01*
X174149340Y-73152807D01*
X174156392Y-73154170D01*
X174161167Y-73155062D01*
X174163143Y-73155383D01*
X174163601Y-73154813D01*
X174164185Y-73151749D01*
X174164413Y-73146920D01*
X174164413Y-73138453D01*
X174330360Y-73138453D01*
X174330360Y-73202955D01*
X174344929Y-73209654D01*
X174360092Y-73216982D01*
X174386364Y-73231415D01*
X174411083Y-73247193D01*
X174411292Y-73247327D01*
X174434468Y-73264408D01*
G36*
X175158400Y-77597000D02*
G01*
X172345773Y-77597000D01*
X172345773Y-76911200D01*
X175158400Y-76911200D01*
X175158400Y-77597000D01*
G37*
X175158400Y-77597000D02*
X172345773Y-77597000D01*
X172345773Y-76911200D01*
X175158400Y-76911200D01*
X175158400Y-77597000D01*
G36*
X173181893Y-75522422D02*
G01*
X173198853Y-75524932D01*
X173214359Y-75530368D01*
X173228759Y-75538874D01*
X173242398Y-75550597D01*
X173252077Y-75561789D01*
X173261191Y-75576725D01*
X173267245Y-75592731D01*
X173270190Y-75609502D01*
X173269977Y-75626736D01*
X173266561Y-75644130D01*
X173259891Y-75661380D01*
X173257470Y-75665911D01*
X173248504Y-75678372D01*
X173237052Y-75689632D01*
X173223750Y-75699206D01*
X173209232Y-75706614D01*
X173194133Y-75711371D01*
X173190642Y-75712082D01*
X173179063Y-75713597D01*
X173168120Y-75713390D01*
X173156033Y-75711465D01*
X173144888Y-75708465D01*
X173129171Y-75701680D01*
X173115411Y-75692594D01*
X173103709Y-75681546D01*
X173094166Y-75668875D01*
X173086883Y-75654920D01*
X173081962Y-75640020D01*
X173079504Y-75624514D01*
X173079610Y-75608741D01*
X173082382Y-75593040D01*
X173087921Y-75577750D01*
X173096328Y-75563210D01*
X173107705Y-75549760D01*
X173111389Y-75546258D01*
X173125361Y-75535586D01*
X173140404Y-75528086D01*
X173156757Y-75523658D01*
X173174660Y-75522204D01*
X173181893Y-75522422D01*
G37*
X173181893Y-75522422D02*
X173198853Y-75524932D01*
X173214359Y-75530368D01*
X173228759Y-75538874D01*
X173242398Y-75550597D01*
X173252077Y-75561789D01*
X173261191Y-75576725D01*
X173267245Y-75592731D01*
X173270190Y-75609502D01*
X173269977Y-75626736D01*
X173266561Y-75644130D01*
X173259891Y-75661380D01*
X173257470Y-75665911D01*
X173248504Y-75678372D01*
X173237052Y-75689632D01*
X173223750Y-75699206D01*
X173209232Y-75706614D01*
X173194133Y-75711371D01*
X173190642Y-75712082D01*
X173179063Y-75713597D01*
X173168120Y-75713390D01*
X173156033Y-75711465D01*
X173144888Y-75708465D01*
X173129171Y-75701680D01*
X173115411Y-75692594D01*
X173103709Y-75681546D01*
X173094166Y-75668875D01*
X173086883Y-75654920D01*
X173081962Y-75640020D01*
X173079504Y-75624514D01*
X173079610Y-75608741D01*
X173082382Y-75593040D01*
X173087921Y-75577750D01*
X173096328Y-75563210D01*
X173107705Y-75549760D01*
X173111389Y-75546258D01*
X173125361Y-75535586D01*
X173140404Y-75528086D01*
X173156757Y-75523658D01*
X173174660Y-75522204D01*
X173181893Y-75522422D01*
%TO.C,G1*%
G36*
X135864600Y-74218800D02*
G01*
X135077200Y-74218800D01*
X135077200Y-73431400D01*
X135864600Y-73431400D01*
X135864600Y-74218800D01*
G37*
X135864600Y-74218800D02*
X135077200Y-74218800D01*
X135077200Y-73431400D01*
X135864600Y-73431400D01*
X135864600Y-74218800D01*
G36*
X133223000Y-74485500D02*
G01*
X133223000Y-74752200D01*
X133489700Y-74752200D01*
X133489700Y-74485500D01*
X133756400Y-74485500D01*
X133756400Y-75018900D01*
X132956300Y-75018900D01*
X132956300Y-74485500D01*
X133223000Y-74485500D01*
G37*
X133223000Y-74485500D02*
X133223000Y-74752200D01*
X133489700Y-74752200D01*
X133489700Y-74485500D01*
X133756400Y-74485500D01*
X133756400Y-75018900D01*
X132956300Y-75018900D01*
X132956300Y-74485500D01*
X133223000Y-74485500D01*
G36*
X131902200Y-76339700D02*
G01*
X131902200Y-76873100D01*
X131635500Y-76873100D01*
X131635500Y-77127100D01*
X131902200Y-77127100D01*
X131902200Y-76873100D01*
X132168900Y-76873100D01*
X132168900Y-76339700D01*
X132422900Y-76339700D01*
X132422900Y-77127100D01*
X132956300Y-77127100D01*
X132956300Y-77393800D01*
X132689600Y-77393800D01*
X132689600Y-78193900D01*
X132956300Y-78193900D01*
X132956300Y-77660500D01*
X133223000Y-77660500D01*
X133223000Y-77393800D01*
X133489700Y-77393800D01*
X133489700Y-76873100D01*
X133756400Y-76873100D01*
X133756400Y-77127100D01*
X134010400Y-77127100D01*
X134010400Y-76873100D01*
X133756400Y-76873100D01*
X133489700Y-76873100D01*
X133489700Y-76606400D01*
X133756400Y-76606400D01*
X133756400Y-76339700D01*
X134010400Y-76339700D01*
X134010400Y-76606400D01*
X134277100Y-76606400D01*
X134277100Y-76339700D01*
X134010400Y-76339700D01*
X133756400Y-76339700D01*
X133756400Y-75806300D01*
X133489700Y-75806300D01*
X133489700Y-75539600D01*
X133756400Y-75539600D01*
X133756400Y-75018900D01*
X134010400Y-75018900D01*
X134010400Y-75539600D01*
X133756400Y-75539600D01*
X133756400Y-75806300D01*
X134277100Y-75806300D01*
X134277100Y-75018900D01*
X135077200Y-75018900D01*
X135077200Y-75285600D01*
X134543800Y-75285600D01*
X134543800Y-75539600D01*
X135077200Y-75539600D01*
X135077200Y-75285600D01*
X135343900Y-75285600D01*
X135343900Y-75539600D01*
X135077200Y-75539600D01*
X135077200Y-75806300D01*
X134543800Y-75806300D01*
X134543800Y-76073000D01*
X135077200Y-76073000D01*
X135077200Y-75806300D01*
X135864600Y-75806300D01*
X135864600Y-75539600D01*
X136131300Y-75539600D01*
X136131300Y-75806300D01*
X136398000Y-75806300D01*
X136398000Y-77393800D01*
X136131300Y-77393800D01*
X136131300Y-76073000D01*
X135077200Y-76073000D01*
X135077200Y-76339700D01*
X134543800Y-76339700D01*
X134543800Y-76606400D01*
X134277100Y-76606400D01*
X134277100Y-76873100D01*
X134543800Y-76873100D01*
X134543800Y-77127100D01*
X134810500Y-77127100D01*
X134810500Y-76873100D01*
X134543800Y-76873100D01*
X134543800Y-76606400D01*
X135077200Y-76606400D01*
X135077200Y-76873100D01*
X135343900Y-76873100D01*
X135343900Y-76339700D01*
X135864600Y-76339700D01*
X135864600Y-76606400D01*
X135597900Y-76606400D01*
X135597900Y-77127100D01*
X135864600Y-77127100D01*
X135864600Y-77393800D01*
X134543800Y-77393800D01*
X134543800Y-77127100D01*
X134010400Y-77127100D01*
X134010400Y-77393800D01*
X134277100Y-77393800D01*
X134277100Y-78193900D01*
X133756400Y-78193900D01*
X133756400Y-77393800D01*
X133489700Y-77393800D01*
X133489700Y-77927200D01*
X133223000Y-77927200D01*
X133223000Y-78193900D01*
X132956300Y-78193900D01*
X132956300Y-78460600D01*
X132689600Y-78460600D01*
X132689600Y-79248000D01*
X132168900Y-79248000D01*
X132168900Y-79514700D01*
X131368800Y-79514700D01*
X131368800Y-79248000D01*
X131902200Y-79248000D01*
X131902200Y-78981300D01*
X132422900Y-78981300D01*
X132422900Y-78727300D01*
X131368800Y-78727300D01*
X131368800Y-78460600D01*
X130835400Y-78460600D01*
X130835400Y-77393800D01*
X131102100Y-77393800D01*
X131102100Y-78193900D01*
X131902200Y-78193900D01*
X131902200Y-77393800D01*
X132168900Y-77393800D01*
X132168900Y-77927200D01*
X132422900Y-77927200D01*
X132422900Y-77393800D01*
X132168900Y-77393800D01*
X131902200Y-77393800D01*
X131102100Y-77393800D01*
X130835400Y-77393800D01*
X130835400Y-77127100D01*
X130568700Y-77127100D01*
X130568700Y-77393800D01*
X130314700Y-77393800D01*
X130314700Y-76873100D01*
X130048000Y-76873100D01*
X130048000Y-77127100D01*
X129781300Y-77127100D01*
X129781300Y-76606400D01*
X130048000Y-76606400D01*
X130048000Y-76339700D01*
X130314700Y-76339700D01*
X130314700Y-76873100D01*
X130568700Y-76873100D01*
X130835400Y-76873100D01*
X130835400Y-77127100D01*
X131102100Y-77127100D01*
X131102100Y-76873100D01*
X130835400Y-76873100D01*
X130568700Y-76873100D01*
X130568700Y-76606400D01*
X131102100Y-76606400D01*
X131368800Y-76606400D01*
X131635500Y-76606400D01*
X131635500Y-76339700D01*
X131902200Y-76339700D01*
X131902200Y-76073000D01*
X131635500Y-76073000D01*
X131635500Y-76339700D01*
X131368800Y-76339700D01*
X131368800Y-76606400D01*
X131102100Y-76606400D01*
X131102100Y-75806300D01*
X130835400Y-75806300D01*
X130835400Y-76073000D01*
X130568700Y-76073000D01*
X130568700Y-75539600D01*
X130314700Y-75539600D01*
X130314700Y-75806300D01*
X130048000Y-75806300D01*
X130048000Y-76339700D01*
X129781300Y-76339700D01*
X129781300Y-75539600D01*
X130048000Y-75539600D01*
X130048000Y-75285600D01*
X130568700Y-75285600D01*
X130568700Y-75018900D01*
X131102100Y-75018900D01*
X131102100Y-75285600D01*
X131368800Y-75285600D01*
X131368800Y-75806300D01*
X132168900Y-75806300D01*
X132168900Y-74752200D01*
X131902200Y-74752200D01*
X131902200Y-73952100D01*
X132168900Y-73952100D01*
X132168900Y-74752200D01*
X132422900Y-74752200D01*
X132422900Y-74218800D01*
X132689600Y-74218800D01*
X132689600Y-73952100D01*
X132168900Y-73952100D01*
X131902200Y-73952100D01*
X131902200Y-73164700D01*
X132168900Y-73164700D01*
X132168900Y-73698100D01*
X132422900Y-73698100D01*
X132422900Y-72898000D01*
X132689600Y-72898000D01*
X132689600Y-73698100D01*
X133223000Y-73698100D01*
X133223000Y-73431400D01*
X133489700Y-73431400D01*
X133489700Y-74218800D01*
X132956300Y-74218800D01*
X132956300Y-74485500D01*
X132689600Y-74485500D01*
X132689600Y-75285600D01*
X132956300Y-75285600D01*
X132956300Y-75539600D01*
X132422900Y-75539600D01*
X132422900Y-76073000D01*
X132168900Y-76073000D01*
X132168900Y-76339700D01*
X131902200Y-76339700D01*
G37*
X131902200Y-76339700D02*
X131902200Y-76873100D01*
X131635500Y-76873100D01*
X131635500Y-77127100D01*
X131902200Y-77127100D01*
X131902200Y-76873100D01*
X132168900Y-76873100D01*
X132168900Y-76339700D01*
X132422900Y-76339700D01*
X132422900Y-77127100D01*
X132956300Y-77127100D01*
X132956300Y-77393800D01*
X132689600Y-77393800D01*
X132689600Y-78193900D01*
X132956300Y-78193900D01*
X132956300Y-77660500D01*
X133223000Y-77660500D01*
X133223000Y-77393800D01*
X133489700Y-77393800D01*
X133489700Y-76873100D01*
X133756400Y-76873100D01*
X133756400Y-77127100D01*
X134010400Y-77127100D01*
X134010400Y-76873100D01*
X133756400Y-76873100D01*
X133489700Y-76873100D01*
X133489700Y-76606400D01*
X133756400Y-76606400D01*
X133756400Y-76339700D01*
X134010400Y-76339700D01*
X134010400Y-76606400D01*
X134277100Y-76606400D01*
X134277100Y-76339700D01*
X134010400Y-76339700D01*
X133756400Y-76339700D01*
X133756400Y-75806300D01*
X133489700Y-75806300D01*
X133489700Y-75539600D01*
X133756400Y-75539600D01*
X133756400Y-75018900D01*
X134010400Y-75018900D01*
X134010400Y-75539600D01*
X133756400Y-75539600D01*
X133756400Y-75806300D01*
X134277100Y-75806300D01*
X134277100Y-75018900D01*
X135077200Y-75018900D01*
X135077200Y-75285600D01*
X134543800Y-75285600D01*
X134543800Y-75539600D01*
X135077200Y-75539600D01*
X135077200Y-75285600D01*
X135343900Y-75285600D01*
X135343900Y-75539600D01*
X135077200Y-75539600D01*
X135077200Y-75806300D01*
X134543800Y-75806300D01*
X134543800Y-76073000D01*
X135077200Y-76073000D01*
X135077200Y-75806300D01*
X135864600Y-75806300D01*
X135864600Y-75539600D01*
X136131300Y-75539600D01*
X136131300Y-75806300D01*
X136398000Y-75806300D01*
X136398000Y-77393800D01*
X136131300Y-77393800D01*
X136131300Y-76073000D01*
X135077200Y-76073000D01*
X135077200Y-76339700D01*
X134543800Y-76339700D01*
X134543800Y-76606400D01*
X134277100Y-76606400D01*
X134277100Y-76873100D01*
X134543800Y-76873100D01*
X134543800Y-77127100D01*
X134810500Y-77127100D01*
X134810500Y-76873100D01*
X134543800Y-76873100D01*
X134543800Y-76606400D01*
X135077200Y-76606400D01*
X135077200Y-76873100D01*
X135343900Y-76873100D01*
X135343900Y-76339700D01*
X135864600Y-76339700D01*
X135864600Y-76606400D01*
X135597900Y-76606400D01*
X135597900Y-77127100D01*
X135864600Y-77127100D01*
X135864600Y-77393800D01*
X134543800Y-77393800D01*
X134543800Y-77127100D01*
X134010400Y-77127100D01*
X134010400Y-77393800D01*
X134277100Y-77393800D01*
X134277100Y-78193900D01*
X133756400Y-78193900D01*
X133756400Y-77393800D01*
X133489700Y-77393800D01*
X133489700Y-77927200D01*
X133223000Y-77927200D01*
X133223000Y-78193900D01*
X132956300Y-78193900D01*
X132956300Y-78460600D01*
X132689600Y-78460600D01*
X132689600Y-79248000D01*
X132168900Y-79248000D01*
X132168900Y-79514700D01*
X131368800Y-79514700D01*
X131368800Y-79248000D01*
X131902200Y-79248000D01*
X131902200Y-78981300D01*
X132422900Y-78981300D01*
X132422900Y-78727300D01*
X131368800Y-78727300D01*
X131368800Y-78460600D01*
X130835400Y-78460600D01*
X130835400Y-77393800D01*
X131102100Y-77393800D01*
X131102100Y-78193900D01*
X131902200Y-78193900D01*
X131902200Y-77393800D01*
X132168900Y-77393800D01*
X132168900Y-77927200D01*
X132422900Y-77927200D01*
X132422900Y-77393800D01*
X132168900Y-77393800D01*
X131902200Y-77393800D01*
X131102100Y-77393800D01*
X130835400Y-77393800D01*
X130835400Y-77127100D01*
X130568700Y-77127100D01*
X130568700Y-77393800D01*
X130314700Y-77393800D01*
X130314700Y-76873100D01*
X130048000Y-76873100D01*
X130048000Y-77127100D01*
X129781300Y-77127100D01*
X129781300Y-76606400D01*
X130048000Y-76606400D01*
X130048000Y-76339700D01*
X130314700Y-76339700D01*
X130314700Y-76873100D01*
X130568700Y-76873100D01*
X130835400Y-76873100D01*
X130835400Y-77127100D01*
X131102100Y-77127100D01*
X131102100Y-76873100D01*
X130835400Y-76873100D01*
X130568700Y-76873100D01*
X130568700Y-76606400D01*
X131102100Y-76606400D01*
X131368800Y-76606400D01*
X131635500Y-76606400D01*
X131635500Y-76339700D01*
X131902200Y-76339700D01*
X131902200Y-76073000D01*
X131635500Y-76073000D01*
X131635500Y-76339700D01*
X131368800Y-76339700D01*
X131368800Y-76606400D01*
X131102100Y-76606400D01*
X131102100Y-75806300D01*
X130835400Y-75806300D01*
X130835400Y-76073000D01*
X130568700Y-76073000D01*
X130568700Y-75539600D01*
X130314700Y-75539600D01*
X130314700Y-75806300D01*
X130048000Y-75806300D01*
X130048000Y-76339700D01*
X129781300Y-76339700D01*
X129781300Y-75539600D01*
X130048000Y-75539600D01*
X130048000Y-75285600D01*
X130568700Y-75285600D01*
X130568700Y-75018900D01*
X131102100Y-75018900D01*
X131102100Y-75285600D01*
X131368800Y-75285600D01*
X131368800Y-75806300D01*
X132168900Y-75806300D01*
X132168900Y-74752200D01*
X131902200Y-74752200D01*
X131902200Y-73952100D01*
X132168900Y-73952100D01*
X132168900Y-74752200D01*
X132422900Y-74752200D01*
X132422900Y-74218800D01*
X132689600Y-74218800D01*
X132689600Y-73952100D01*
X132168900Y-73952100D01*
X131902200Y-73952100D01*
X131902200Y-73164700D01*
X132168900Y-73164700D01*
X132168900Y-73698100D01*
X132422900Y-73698100D01*
X132422900Y-72898000D01*
X132689600Y-72898000D01*
X132689600Y-73698100D01*
X133223000Y-73698100D01*
X133223000Y-73431400D01*
X133489700Y-73431400D01*
X133489700Y-74218800D01*
X132956300Y-74218800D01*
X132956300Y-74485500D01*
X132689600Y-74485500D01*
X132689600Y-75285600D01*
X132956300Y-75285600D01*
X132956300Y-75539600D01*
X132422900Y-75539600D01*
X132422900Y-76073000D01*
X132168900Y-76073000D01*
X132168900Y-76339700D01*
X131902200Y-76339700D01*
G36*
X134277100Y-74752200D02*
G01*
X134010400Y-74752200D01*
X134010400Y-74485500D01*
X134277100Y-74485500D01*
X134277100Y-74752200D01*
G37*
X134277100Y-74752200D02*
X134010400Y-74752200D01*
X134010400Y-74485500D01*
X134277100Y-74485500D01*
X134277100Y-74752200D01*
G36*
X133756400Y-73164700D02*
G01*
X134010400Y-73164700D01*
X134010400Y-73431400D01*
X133489700Y-73431400D01*
X133489700Y-73164700D01*
X132956300Y-73164700D01*
X132956300Y-72898000D01*
X133756400Y-72898000D01*
X133756400Y-73164700D01*
G37*
X133756400Y-73164700D02*
X134010400Y-73164700D01*
X134010400Y-73431400D01*
X133489700Y-73431400D01*
X133489700Y-73164700D01*
X132956300Y-73164700D01*
X132956300Y-72898000D01*
X133756400Y-72898000D01*
X133756400Y-73164700D01*
G36*
X136398000Y-75285600D02*
G01*
X135864600Y-75285600D01*
X135864600Y-75018900D01*
X136398000Y-75018900D01*
X136398000Y-75285600D01*
G37*
X136398000Y-75285600D02*
X135864600Y-75285600D01*
X135864600Y-75018900D01*
X136398000Y-75018900D01*
X136398000Y-75285600D01*
G36*
X130835400Y-79514700D02*
G01*
X130568700Y-79514700D01*
X130568700Y-79248000D01*
X130835400Y-79248000D01*
X130835400Y-79514700D01*
G37*
X130835400Y-79514700D02*
X130568700Y-79514700D01*
X130568700Y-79248000D01*
X130835400Y-79248000D01*
X130835400Y-79514700D01*
G36*
X131368800Y-79248000D02*
G01*
X130835400Y-79248000D01*
X130835400Y-78981300D01*
X131368800Y-78981300D01*
X131368800Y-79248000D01*
G37*
X131368800Y-79248000D02*
X130835400Y-79248000D01*
X130835400Y-78981300D01*
X131368800Y-78981300D01*
X131368800Y-79248000D01*
G36*
X133223000Y-76073000D02*
G01*
X132956300Y-76073000D01*
X132956300Y-75539600D01*
X133223000Y-75539600D01*
X133223000Y-76073000D01*
G37*
X133223000Y-76073000D02*
X132956300Y-76073000D01*
X132956300Y-75539600D01*
X133223000Y-75539600D01*
X133223000Y-76073000D01*
G36*
X131635500Y-77927200D02*
G01*
X131368800Y-77927200D01*
X131368800Y-77660500D01*
X131635500Y-77660500D01*
X131635500Y-77927200D01*
G37*
X131635500Y-77927200D02*
X131368800Y-77927200D01*
X131368800Y-77660500D01*
X131635500Y-77660500D01*
X131635500Y-77927200D01*
G36*
X133489700Y-78727300D02*
G01*
X133223000Y-78727300D01*
X133223000Y-78981300D01*
X133489700Y-78981300D01*
X133489700Y-78727300D01*
X133756400Y-78727300D01*
X133756400Y-78981300D01*
X133489700Y-78981300D01*
X133489700Y-79248000D01*
X133756400Y-79248000D01*
X133756400Y-78981300D01*
X134277100Y-78981300D01*
X134277100Y-79514700D01*
X134010400Y-79514700D01*
X134010400Y-79248000D01*
X133756400Y-79248000D01*
X133756400Y-79514700D01*
X133489700Y-79514700D01*
X133489700Y-79248000D01*
X133223000Y-79248000D01*
X133223000Y-78981300D01*
X132956300Y-78981300D01*
X132956300Y-78727300D01*
X133223000Y-78727300D01*
X133223000Y-78460600D01*
X133489700Y-78460600D01*
X133489700Y-78727300D01*
G37*
X133489700Y-78727300D02*
X133223000Y-78727300D01*
X133223000Y-78981300D01*
X133489700Y-78981300D01*
X133489700Y-78727300D01*
X133756400Y-78727300D01*
X133756400Y-78981300D01*
X133489700Y-78981300D01*
X133489700Y-79248000D01*
X133756400Y-79248000D01*
X133756400Y-78981300D01*
X134277100Y-78981300D01*
X134277100Y-79514700D01*
X134010400Y-79514700D01*
X134010400Y-79248000D01*
X133756400Y-79248000D01*
X133756400Y-79514700D01*
X133489700Y-79514700D01*
X133489700Y-79248000D01*
X133223000Y-79248000D01*
X133223000Y-78981300D01*
X132956300Y-78981300D01*
X132956300Y-78727300D01*
X133223000Y-78727300D01*
X133223000Y-78460600D01*
X133489700Y-78460600D01*
X133489700Y-78727300D01*
G36*
X129781300Y-74752200D02*
G01*
X129781300Y-73164700D01*
X130048000Y-73164700D01*
X130048000Y-74485500D01*
X131368800Y-74485500D01*
X131368800Y-73164700D01*
X130048000Y-73164700D01*
X129781300Y-73164700D01*
X129781300Y-72898000D01*
X131635500Y-72898000D01*
X131635500Y-74752200D01*
X129781300Y-74752200D01*
G37*
X129781300Y-74752200D02*
X129781300Y-73164700D01*
X130048000Y-73164700D01*
X130048000Y-74485500D01*
X131368800Y-74485500D01*
X131368800Y-73164700D01*
X130048000Y-73164700D01*
X129781300Y-73164700D01*
X129781300Y-72898000D01*
X131635500Y-72898000D01*
X131635500Y-74752200D01*
X129781300Y-74752200D01*
G36*
X130048000Y-77927200D02*
G01*
X130314700Y-77927200D01*
X130314700Y-78193900D01*
X130568700Y-78193900D01*
X130568700Y-78460600D01*
X130314700Y-78460600D01*
X130314700Y-78727300D01*
X130048000Y-78727300D01*
X130048000Y-79514700D01*
X129781300Y-79514700D01*
X129781300Y-78460600D01*
X130048000Y-78460600D01*
X130048000Y-78193900D01*
X129781300Y-78193900D01*
X129781300Y-77660500D01*
X130048000Y-77660500D01*
X130048000Y-77927200D01*
G37*
X130048000Y-77927200D02*
X130314700Y-77927200D01*
X130314700Y-78193900D01*
X130568700Y-78193900D01*
X130568700Y-78460600D01*
X130314700Y-78460600D01*
X130314700Y-78727300D01*
X130048000Y-78727300D01*
X130048000Y-79514700D01*
X129781300Y-79514700D01*
X129781300Y-78460600D01*
X130048000Y-78460600D01*
X130048000Y-78193900D01*
X129781300Y-78193900D01*
X129781300Y-77660500D01*
X130048000Y-77660500D01*
X130048000Y-77927200D01*
G36*
X134277100Y-74218800D02*
G01*
X133756400Y-74218800D01*
X133756400Y-73952100D01*
X134010400Y-73952100D01*
X134010400Y-73698100D01*
X134277100Y-73698100D01*
X134277100Y-74218800D01*
G37*
X134277100Y-74218800D02*
X133756400Y-74218800D01*
X133756400Y-73952100D01*
X134010400Y-73952100D01*
X134010400Y-73698100D01*
X134277100Y-73698100D01*
X134277100Y-74218800D01*
G36*
X134543800Y-79514700D02*
G01*
X134543800Y-77927200D01*
X134810500Y-77927200D01*
X134810500Y-79248000D01*
X136131300Y-79248000D01*
X136131300Y-77927200D01*
X134810500Y-77927200D01*
X134543800Y-77927200D01*
X134543800Y-77660500D01*
X136398000Y-77660500D01*
X136398000Y-79514700D01*
X134543800Y-79514700D01*
G37*
X134543800Y-79514700D02*
X134543800Y-77927200D01*
X134810500Y-77927200D01*
X134810500Y-79248000D01*
X136131300Y-79248000D01*
X136131300Y-77927200D01*
X134810500Y-77927200D01*
X134543800Y-77927200D01*
X134543800Y-77660500D01*
X136398000Y-77660500D01*
X136398000Y-79514700D01*
X134543800Y-79514700D01*
G36*
X133223000Y-79514700D02*
G01*
X132956300Y-79514700D01*
X132956300Y-79248000D01*
X133223000Y-79248000D01*
X133223000Y-79514700D01*
G37*
X133223000Y-79514700D02*
X132956300Y-79514700D01*
X132956300Y-79248000D01*
X133223000Y-79248000D01*
X133223000Y-79514700D01*
G36*
X130835400Y-78981300D02*
G01*
X130314700Y-78981300D01*
X130314700Y-78727300D01*
X130835400Y-78727300D01*
X130835400Y-78981300D01*
G37*
X130835400Y-78981300D02*
X130314700Y-78981300D01*
X130314700Y-78727300D01*
X130835400Y-78727300D01*
X130835400Y-78981300D01*
G36*
X135864600Y-78981300D02*
G01*
X135077200Y-78981300D01*
X135077200Y-78193900D01*
X135864600Y-78193900D01*
X135864600Y-78981300D01*
G37*
X135864600Y-78981300D02*
X135077200Y-78981300D01*
X135077200Y-78193900D01*
X135864600Y-78193900D01*
X135864600Y-78981300D01*
G36*
X133489700Y-76606400D02*
G01*
X133223000Y-76606400D01*
X133223000Y-76073000D01*
X133489700Y-76073000D01*
X133489700Y-76606400D01*
G37*
X133489700Y-76606400D02*
X133223000Y-76606400D01*
X133223000Y-76073000D01*
X133489700Y-76073000D01*
X133489700Y-76606400D01*
G36*
X133489700Y-75539600D02*
G01*
X133223000Y-75539600D01*
X133223000Y-75285600D01*
X133489700Y-75285600D01*
X133489700Y-75539600D01*
G37*
X133489700Y-75539600D02*
X133223000Y-75539600D01*
X133223000Y-75285600D01*
X133489700Y-75285600D01*
X133489700Y-75539600D01*
G36*
X134010400Y-78727300D02*
G01*
X133756400Y-78727300D01*
X133756400Y-78460600D01*
X134010400Y-78460600D01*
X134010400Y-78727300D01*
G37*
X134010400Y-78727300D02*
X133756400Y-78727300D01*
X133756400Y-78460600D01*
X134010400Y-78460600D01*
X134010400Y-78727300D01*
G36*
X131102100Y-74218800D02*
G01*
X130314700Y-74218800D01*
X130314700Y-73431400D01*
X131102100Y-73431400D01*
X131102100Y-74218800D01*
G37*
X131102100Y-74218800D02*
X130314700Y-74218800D01*
X130314700Y-73431400D01*
X131102100Y-73431400D01*
X131102100Y-74218800D01*
G36*
X134543800Y-74752200D02*
G01*
X134543800Y-73164700D01*
X134810500Y-73164700D01*
X134810500Y-74485500D01*
X136131300Y-74485500D01*
X136131300Y-73164700D01*
X134810500Y-73164700D01*
X134543800Y-73164700D01*
X134543800Y-72898000D01*
X136398000Y-72898000D01*
X136398000Y-74752200D01*
X134543800Y-74752200D01*
G37*
X134543800Y-74752200D02*
X134543800Y-73164700D01*
X134810500Y-73164700D01*
X134810500Y-74485500D01*
X136131300Y-74485500D01*
X136131300Y-73164700D01*
X134810500Y-73164700D01*
X134543800Y-73164700D01*
X134543800Y-72898000D01*
X136398000Y-72898000D01*
X136398000Y-74752200D01*
X134543800Y-74752200D01*
%TD*%
%LPC*%
D15*
%TO.C,J2*%
X139192000Y-94488000D03*
D16*
X133192000Y-94488000D03*
D17*
X136192000Y-99188000D03*
%TD*%
D18*
%TO.C,J3*%
X173228000Y-97282000D03*
D19*
X173228000Y-92202000D03*
X173228000Y-87122000D03*
X173228000Y-82042000D03*
%TD*%
D20*
%TO.C,J4*%
X167132000Y-80010000D03*
D21*
X167132000Y-82550000D03*
X167132000Y-85090000D03*
%TD*%
D20*
%TO.C,J1*%
X147569000Y-99822000D03*
D21*
X150109000Y-99822000D03*
X152649000Y-99822000D03*
X155189000Y-99822000D03*
X157729000Y-99822000D03*
X160269000Y-99822000D03*
X162809000Y-99822000D03*
%TD*%
D20*
%TO.C,J5*%
X143256000Y-84577000D03*
D21*
X143256000Y-87117000D03*
X143256000Y-89657000D03*
X143256000Y-92197000D03*
X143256000Y-94737000D03*
X143256000Y-97277000D03*
X143256000Y-99817000D03*
%TD*%
M02*
