%TF.GenerationSoftware,KiCad,Pcbnew,(6.0.9)*%
%TF.CreationDate,2023-01-18T13:19:17+01:00*%
%TF.ProjectId,WLED_All-in-one_ESP32_Controller,574c4544-5f41-46c6-9c2d-696e2d6f6e65,rev?*%
%TF.SameCoordinates,Original*%
%TF.FileFunction,Copper,L2,Bot*%
%TF.FilePolarity,Positive*%
%FSLAX46Y46*%
G04 Gerber Fmt 4.6, Leading zero omitted, Abs format (unit mm)*
G04 Created by KiCad (PCBNEW (6.0.9)) date 2023-01-18 13:19:17*
%MOMM*%
%LPD*%
G01*
G04 APERTURE LIST*
G04 Aperture macros list*
%AMRoundRect*
0 Rectangle with rounded corners*
0 $1 Rounding radius*
0 $2 $3 $4 $5 $6 $7 $8 $9 X,Y pos of 4 corners*
0 Add a 4 corners polygon primitive as box body*
4,1,4,$2,$3,$4,$5,$6,$7,$8,$9,$2,$3,0*
0 Add four circle primitives for the rounded corners*
1,1,$1+$1,$2,$3*
1,1,$1+$1,$4,$5*
1,1,$1+$1,$6,$7*
1,1,$1+$1,$8,$9*
0 Add four rect primitives between the rounded corners*
20,1,$1+$1,$2,$3,$4,$5,0*
20,1,$1+$1,$4,$5,$6,$7,0*
20,1,$1+$1,$6,$7,$8,$9,0*
20,1,$1+$1,$8,$9,$2,$3,0*%
G04 Aperture macros list end*
%TA.AperFunction,ComponentPad*%
%ADD10R,3.500000X3.500000*%
%TD*%
%TA.AperFunction,ComponentPad*%
%ADD11RoundRect,0.750000X-0.750000X-1.000000X0.750000X-1.000000X0.750000X1.000000X-0.750000X1.000000X0*%
%TD*%
%TA.AperFunction,ComponentPad*%
%ADD12RoundRect,0.875000X-0.875000X-0.875000X0.875000X-0.875000X0.875000X0.875000X-0.875000X0.875000X0*%
%TD*%
%TA.AperFunction,ComponentPad*%
%ADD13R,3.000000X3.000000*%
%TD*%
%TA.AperFunction,ComponentPad*%
%ADD14C,3.000000*%
%TD*%
%TA.AperFunction,ComponentPad*%
%ADD15R,1.700000X1.700000*%
%TD*%
%TA.AperFunction,ComponentPad*%
%ADD16O,1.700000X1.700000*%
%TD*%
%TA.AperFunction,ViaPad*%
%ADD17C,0.800000*%
%TD*%
%TA.AperFunction,Conductor*%
%ADD18C,2.500000*%
%TD*%
%TA.AperFunction,Conductor*%
%ADD19C,0.250000*%
%TD*%
G04 APERTURE END LIST*
D10*
%TO.P,J2,1*%
%TO.N,+5V*%
X139192000Y-94488000D03*
D11*
%TO.P,J2,2*%
%TO.N,GND*%
X133192000Y-94488000D03*
D12*
%TO.P,J2,3*%
%TO.N,N/C*%
X136192000Y-99188000D03*
%TD*%
D13*
%TO.P,J3,1,Pin_1*%
%TO.N,+5V*%
X173228000Y-97282000D03*
D14*
%TO.P,J3,2,Pin_2*%
%TO.N,GND*%
X173228000Y-92202000D03*
%TO.P,J3,3,Pin_3*%
%TO.N,OUT1*%
X173228000Y-87122000D03*
%TO.P,J3,4,Pin_4*%
%TO.N,OUT2*%
X173228000Y-82042000D03*
%TD*%
D15*
%TO.P,J4,1,Pin_1*%
%TO.N,+3V3*%
X167132000Y-80010000D03*
D16*
%TO.P,J4,2,Pin_2*%
%TO.N,GND*%
X167132000Y-82550000D03*
%TO.P,J4,3,Pin_3*%
%TO.N,IR*%
X167132000Y-85090000D03*
%TD*%
D15*
%TO.P,J1,1,Pin_1*%
%TO.N,+3V3*%
X147569000Y-99822000D03*
D16*
%TO.P,J1,2,Pin_2*%
%TO.N,TX*%
X150109000Y-99822000D03*
%TO.P,J1,3,Pin_3*%
%TO.N,RX*%
X152649000Y-99822000D03*
%TO.P,J1,4,Pin_4*%
%TO.N,GND*%
X155189000Y-99822000D03*
%TO.P,J1,5,Pin_5*%
%TO.N,IO0*%
X157729000Y-99822000D03*
%TO.P,J1,6,Pin_6*%
%TO.N,GND*%
X160269000Y-99822000D03*
%TO.P,J1,7,Pin_7*%
%TO.N,Button*%
X162809000Y-99822000D03*
%TD*%
D15*
%TO.P,J5,1,Pin_1*%
%TO.N,GND*%
X143256000Y-84577000D03*
D16*
%TO.P,J5,2,Pin_2*%
%TO.N,MIC_SD*%
X143256000Y-87117000D03*
%TO.P,J5,3,Pin_3*%
%TO.N,MIC_WS*%
X143256000Y-89657000D03*
%TO.P,J5,4,Pin_4*%
%TO.N,MIC_SCK*%
X143256000Y-92197000D03*
%TO.P,J5,5,Pin_5*%
%TO.N,+3V3*%
X143256000Y-94737000D03*
%TO.P,J5,6,Pin_6*%
%TO.N,GND*%
X143256000Y-97277000D03*
%TO.P,J5,7,Pin_7*%
%TO.N,ADC1*%
X143256000Y-99817000D03*
%TD*%
D17*
%TO.N,+5V*%
X169164000Y-93980000D03*
%TO.N,+3V3*%
X149352000Y-80264000D03*
%TO.N,GND*%
X139700000Y-77978000D03*
X165608000Y-93472000D03*
X167640000Y-91186000D03*
X166624000Y-86868000D03*
%TO.N,RX*%
X153670000Y-94488000D03*
%TO.N,TX*%
X152654000Y-94488000D03*
%TO.N,MIC_WS*%
X159766000Y-94742000D03*
%TO.N,Button*%
X148844000Y-91694000D03*
%TO.N,LED*%
X162052000Y-89408000D03*
X171450000Y-77978000D03*
%TD*%
D18*
%TO.N,+5V*%
X140956489Y-82277489D02*
X151797884Y-82277489D01*
D19*
X169926000Y-93980000D02*
X173228000Y-97282000D01*
X169164000Y-93980000D02*
X169926000Y-93980000D01*
D18*
X166802395Y-97282000D02*
X173228000Y-97282000D01*
X139192000Y-94488000D02*
X139192000Y-84041978D01*
X151797884Y-82277489D02*
X166802395Y-97282000D01*
X139192000Y-84041978D02*
X140956489Y-82277489D01*
D19*
%TO.N,+3V3*%
X149352000Y-80264000D02*
X166878000Y-80264000D01*
X166878000Y-80264000D02*
X167132000Y-80010000D01*
%TO.N,RX*%
X153670000Y-94488000D02*
X153670000Y-98801000D01*
X153670000Y-98801000D02*
X152649000Y-99822000D01*
%TO.N,TX*%
X150109000Y-97033000D02*
X150109000Y-99822000D01*
X152654000Y-94488000D02*
X150109000Y-97033000D01*
%TO.N,MIC_WS*%
X143256000Y-89657000D02*
X154681000Y-89657000D01*
X154681000Y-89657000D02*
X159766000Y-94742000D01*
%TO.N,Button*%
X148844000Y-91694000D02*
X154681000Y-91694000D01*
X154681000Y-91694000D02*
X162809000Y-99822000D01*
%TO.N,LED*%
X162052000Y-85968990D02*
X162052000Y-89408000D01*
X166645501Y-81375489D02*
X162052000Y-85968990D01*
X168052511Y-81375489D02*
X166645501Y-81375489D01*
X171450000Y-77978000D02*
X168052511Y-81375489D01*
%TD*%
%TA.AperFunction,Conductor*%
%TO.N,GND*%
G36*
X139670018Y-71884000D02*
G01*
X139684852Y-71886310D01*
X139684855Y-71886310D01*
X139693724Y-71887691D01*
X139703659Y-71886392D01*
X139704746Y-71886250D01*
X139733431Y-71885793D01*
X139806741Y-71893013D01*
X139836212Y-71895916D01*
X139860432Y-71900733D01*
X139979546Y-71936866D01*
X140002355Y-71946315D01*
X140112124Y-72004987D01*
X140132655Y-72018705D01*
X140228876Y-72097671D01*
X140246329Y-72115124D01*
X140325295Y-72211345D01*
X140339013Y-72231876D01*
X140397685Y-72341645D01*
X140407134Y-72364454D01*
X140443267Y-72483568D01*
X140448084Y-72507789D01*
X140457541Y-72603809D01*
X140457091Y-72619868D01*
X140457800Y-72619877D01*
X140457690Y-72628853D01*
X140456309Y-72637724D01*
X140457473Y-72646626D01*
X140457473Y-72646628D01*
X140460436Y-72669283D01*
X140461500Y-72685621D01*
X140461500Y-76404633D01*
X140460000Y-76424018D01*
X140457690Y-76438851D01*
X140457690Y-76438855D01*
X140456309Y-76447724D01*
X140457130Y-76454000D01*
X140456957Y-76454000D01*
X140475106Y-76707753D01*
X140529183Y-76956341D01*
X140618087Y-77194703D01*
X140740009Y-77417986D01*
X140742706Y-77421589D01*
X140742710Y-77421595D01*
X140761559Y-77446774D01*
X140892466Y-77621645D01*
X141072355Y-77801534D01*
X141075958Y-77804231D01*
X141272405Y-77951290D01*
X141272411Y-77951294D01*
X141276014Y-77953991D01*
X141499297Y-78075913D01*
X141503509Y-78077484D01*
X141733441Y-78163244D01*
X141733444Y-78163245D01*
X141737659Y-78164817D01*
X141742050Y-78165772D01*
X141742056Y-78165774D01*
X141927513Y-78206117D01*
X141986247Y-78218894D01*
X141990735Y-78219215D01*
X142206668Y-78234659D01*
X142218577Y-78236083D01*
X142221251Y-78236533D01*
X142222645Y-78236768D01*
X142222647Y-78236768D01*
X142227448Y-78237576D01*
X142233991Y-78237656D01*
X142235140Y-78237670D01*
X142235143Y-78237670D01*
X142240000Y-78237729D01*
X142267624Y-78233773D01*
X142285486Y-78232500D01*
X168602750Y-78232500D01*
X168623655Y-78234246D01*
X168638656Y-78236770D01*
X168638659Y-78236770D01*
X168643448Y-78237576D01*
X168649445Y-78237649D01*
X168651132Y-78237670D01*
X168651136Y-78237670D01*
X168656000Y-78237729D01*
X168660994Y-78237014D01*
X168661149Y-78236992D01*
X168670016Y-78236041D01*
X168905265Y-78219215D01*
X168909753Y-78218894D01*
X168968487Y-78206117D01*
X169153944Y-78165774D01*
X169153950Y-78165772D01*
X169158341Y-78164817D01*
X169162556Y-78163245D01*
X169162559Y-78163244D01*
X169392491Y-78077484D01*
X169396703Y-78075913D01*
X169619986Y-77953991D01*
X169623589Y-77951294D01*
X169623595Y-77951290D01*
X169820042Y-77804231D01*
X169823645Y-77801534D01*
X170003534Y-77621645D01*
X170134441Y-77446774D01*
X170153290Y-77421595D01*
X170153294Y-77421589D01*
X170155991Y-77417986D01*
X170277913Y-77194703D01*
X170366817Y-76956341D01*
X170420894Y-76707753D01*
X170436659Y-76487332D01*
X170438084Y-76475418D01*
X170438768Y-76471355D01*
X170438768Y-76471353D01*
X170439576Y-76466552D01*
X170439729Y-76454000D01*
X170435773Y-76426376D01*
X170434500Y-76408514D01*
X170434500Y-72697250D01*
X170436246Y-72676345D01*
X170438770Y-72661344D01*
X170438770Y-72661341D01*
X170439576Y-72656552D01*
X170439729Y-72644000D01*
X170438788Y-72637429D01*
X170438123Y-72607218D01*
X170447916Y-72507789D01*
X170452733Y-72483568D01*
X170488866Y-72364454D01*
X170498315Y-72341645D01*
X170556987Y-72231876D01*
X170570705Y-72211345D01*
X170649671Y-72115124D01*
X170667124Y-72097671D01*
X170763345Y-72018705D01*
X170783876Y-72004987D01*
X170893645Y-71946315D01*
X170916454Y-71936866D01*
X171035568Y-71900733D01*
X171059789Y-71895916D01*
X171155809Y-71886459D01*
X171171868Y-71886909D01*
X171171877Y-71886200D01*
X171180853Y-71886310D01*
X171189724Y-71887691D01*
X171198626Y-71886527D01*
X171198628Y-71886527D01*
X171215059Y-71884378D01*
X171221286Y-71883564D01*
X171237621Y-71882500D01*
X176226633Y-71882500D01*
X176246018Y-71884000D01*
X176260852Y-71886310D01*
X176260855Y-71886310D01*
X176269724Y-71887691D01*
X176279659Y-71886392D01*
X176280746Y-71886250D01*
X176309431Y-71885793D01*
X176382741Y-71893013D01*
X176412212Y-71895916D01*
X176436432Y-71900733D01*
X176555546Y-71936866D01*
X176578355Y-71946315D01*
X176688124Y-72004987D01*
X176708655Y-72018705D01*
X176804876Y-72097671D01*
X176822329Y-72115124D01*
X176901295Y-72211345D01*
X176915013Y-72231876D01*
X176973685Y-72341645D01*
X176983134Y-72364454D01*
X177019267Y-72483568D01*
X177024084Y-72507789D01*
X177033541Y-72603809D01*
X177033091Y-72619868D01*
X177033800Y-72619877D01*
X177033690Y-72628853D01*
X177032309Y-72637724D01*
X177033473Y-72646626D01*
X177033473Y-72646628D01*
X177036436Y-72669283D01*
X177037500Y-72685621D01*
X177037500Y-100534633D01*
X177036000Y-100554018D01*
X177032309Y-100577724D01*
X177033473Y-100586626D01*
X177033750Y-100588746D01*
X177034207Y-100617431D01*
X177032872Y-100630990D01*
X177024084Y-100720212D01*
X177019267Y-100744432D01*
X176983134Y-100863546D01*
X176973685Y-100886355D01*
X176915013Y-100996124D01*
X176901295Y-101016655D01*
X176822329Y-101112876D01*
X176804876Y-101130329D01*
X176708655Y-101209295D01*
X176688124Y-101223013D01*
X176578355Y-101281685D01*
X176555546Y-101291134D01*
X176436432Y-101327267D01*
X176412211Y-101332084D01*
X176316191Y-101341541D01*
X176300132Y-101341091D01*
X176300123Y-101341800D01*
X176291147Y-101341690D01*
X176282276Y-101340309D01*
X176273374Y-101341473D01*
X176273372Y-101341473D01*
X176260856Y-101343110D01*
X176250714Y-101344436D01*
X176234379Y-101345500D01*
X163317127Y-101345500D01*
X163249006Y-101325498D01*
X163202513Y-101271842D01*
X163192409Y-101201568D01*
X163221903Y-101136988D01*
X163280919Y-101098815D01*
X163301418Y-101092665D01*
X163301430Y-101092660D01*
X163306384Y-101091174D01*
X163506994Y-100992896D01*
X163688860Y-100863173D01*
X163847096Y-100705489D01*
X163874359Y-100667549D01*
X163974435Y-100528277D01*
X163977453Y-100524077D01*
X163990995Y-100496678D01*
X164074136Y-100328453D01*
X164074137Y-100328451D01*
X164076430Y-100323811D01*
X164111434Y-100208599D01*
X164139865Y-100115023D01*
X164139865Y-100115021D01*
X164141370Y-100110069D01*
X164170529Y-99888590D01*
X164172156Y-99822000D01*
X164153852Y-99599361D01*
X164099431Y-99382702D01*
X164010354Y-99177840D01*
X163921505Y-99040500D01*
X163891822Y-98994617D01*
X163891820Y-98994614D01*
X163889014Y-98990277D01*
X163738670Y-98825051D01*
X163734619Y-98821852D01*
X163734615Y-98821848D01*
X163567414Y-98689800D01*
X163567410Y-98689798D01*
X163563359Y-98686598D01*
X163558831Y-98684098D01*
X163451712Y-98624966D01*
X163367789Y-98578638D01*
X163362920Y-98576914D01*
X163362916Y-98576912D01*
X163162087Y-98505795D01*
X163162083Y-98505794D01*
X163157212Y-98504069D01*
X163152119Y-98503162D01*
X163152116Y-98503161D01*
X162942373Y-98465800D01*
X162942367Y-98465799D01*
X162937284Y-98464894D01*
X162863452Y-98463992D01*
X162719081Y-98462228D01*
X162719079Y-98462228D01*
X162713911Y-98462165D01*
X162493091Y-98495955D01*
X162483564Y-98499069D01*
X162480532Y-98500060D01*
X162409568Y-98502210D01*
X162352294Y-98469389D01*
X161059988Y-97177083D01*
X159748499Y-95865595D01*
X159714474Y-95803283D01*
X159719538Y-95732468D01*
X159762085Y-95675632D01*
X159828605Y-95650821D01*
X159837594Y-95650500D01*
X159861487Y-95650500D01*
X159867939Y-95649128D01*
X159867944Y-95649128D01*
X159985514Y-95624137D01*
X160048288Y-95610794D01*
X160177939Y-95553070D01*
X160216722Y-95535803D01*
X160216724Y-95535802D01*
X160222752Y-95533118D01*
X160229647Y-95528109D01*
X160346407Y-95443277D01*
X160377253Y-95420866D01*
X160443916Y-95346829D01*
X160500621Y-95283852D01*
X160500622Y-95283851D01*
X160505040Y-95278944D01*
X160600527Y-95113556D01*
X160659542Y-94931928D01*
X160664107Y-94888500D01*
X160678814Y-94748565D01*
X160679504Y-94742000D01*
X160672080Y-94671365D01*
X160660232Y-94558635D01*
X160660232Y-94558633D01*
X160659542Y-94552072D01*
X160600527Y-94370444D01*
X160505040Y-94205056D01*
X160479064Y-94176206D01*
X160381675Y-94068045D01*
X160381674Y-94068044D01*
X160377253Y-94063134D01*
X160262829Y-93980000D01*
X160228094Y-93954763D01*
X160228093Y-93954762D01*
X160222752Y-93950882D01*
X160216724Y-93948198D01*
X160216722Y-93948197D01*
X160054319Y-93875891D01*
X160054318Y-93875891D01*
X160048288Y-93873206D01*
X159954888Y-93853353D01*
X159867944Y-93834872D01*
X159867939Y-93834872D01*
X159861487Y-93833500D01*
X159805594Y-93833500D01*
X159737473Y-93813498D01*
X159716499Y-93796595D01*
X155184652Y-89264747D01*
X155177112Y-89256461D01*
X155173000Y-89249982D01*
X155123348Y-89203356D01*
X155120507Y-89200602D01*
X155100770Y-89180865D01*
X155097573Y-89178385D01*
X155088551Y-89170680D01*
X155056321Y-89140414D01*
X155049375Y-89136595D01*
X155049372Y-89136593D01*
X155038566Y-89130652D01*
X155022047Y-89119801D01*
X155021583Y-89119441D01*
X155006041Y-89107386D01*
X154998772Y-89104241D01*
X154998768Y-89104238D01*
X154965463Y-89089826D01*
X154954813Y-89084609D01*
X154916060Y-89063305D01*
X154896437Y-89058267D01*
X154877734Y-89051863D01*
X154866420Y-89046967D01*
X154866419Y-89046967D01*
X154859145Y-89043819D01*
X154851322Y-89042580D01*
X154851312Y-89042577D01*
X154815476Y-89036901D01*
X154803856Y-89034495D01*
X154768711Y-89025472D01*
X154768710Y-89025472D01*
X154761030Y-89023500D01*
X154740776Y-89023500D01*
X154721065Y-89021949D01*
X154708886Y-89020020D01*
X154701057Y-89018780D01*
X154693165Y-89019526D01*
X154657039Y-89022941D01*
X154645181Y-89023500D01*
X144532805Y-89023500D01*
X144464684Y-89003498D01*
X144427013Y-88965940D01*
X144338822Y-88829617D01*
X144338820Y-88829614D01*
X144336014Y-88825277D01*
X144185670Y-88660051D01*
X144181619Y-88656852D01*
X144181615Y-88656848D01*
X144014414Y-88524800D01*
X144014410Y-88524798D01*
X144010359Y-88521598D01*
X143969053Y-88498796D01*
X143919084Y-88448364D01*
X143904312Y-88378921D01*
X143929428Y-88312516D01*
X143956780Y-88285909D01*
X144000603Y-88254650D01*
X144135860Y-88158173D01*
X144143727Y-88150334D01*
X144290435Y-88004137D01*
X144294096Y-88000489D01*
X144353594Y-87917689D01*
X144421435Y-87823277D01*
X144424453Y-87819077D01*
X144523430Y-87618811D01*
X144588370Y-87405069D01*
X144617529Y-87183590D01*
X144617611Y-87180240D01*
X144619074Y-87120365D01*
X144619074Y-87120361D01*
X144619156Y-87117000D01*
X144600852Y-86894361D01*
X144546431Y-86677702D01*
X144457354Y-86472840D01*
X144360072Y-86322465D01*
X144338822Y-86289617D01*
X144338820Y-86289614D01*
X144336014Y-86285277D01*
X144332540Y-86281459D01*
X144332533Y-86281450D01*
X144188435Y-86123088D01*
X144157383Y-86059242D01*
X144165779Y-85988744D01*
X144210956Y-85933976D01*
X144237400Y-85920307D01*
X144344052Y-85880325D01*
X144359649Y-85871786D01*
X144461724Y-85795285D01*
X144474285Y-85782724D01*
X144550786Y-85680649D01*
X144559324Y-85665054D01*
X144604478Y-85544606D01*
X144608105Y-85529351D01*
X144613631Y-85478486D01*
X144614000Y-85471672D01*
X144614000Y-84849115D01*
X144609525Y-84833876D01*
X144608135Y-84832671D01*
X144600452Y-84831000D01*
X141916116Y-84831000D01*
X141900877Y-84835475D01*
X141899672Y-84836865D01*
X141898001Y-84844548D01*
X141898001Y-85471669D01*
X141898371Y-85478490D01*
X141903895Y-85529352D01*
X141907521Y-85544604D01*
X141952676Y-85665054D01*
X141961214Y-85680649D01*
X142037715Y-85782724D01*
X142050276Y-85795285D01*
X142152351Y-85871786D01*
X142167946Y-85880324D01*
X142276827Y-85921142D01*
X142333591Y-85963784D01*
X142358291Y-86030345D01*
X142343083Y-86099694D01*
X142323691Y-86126175D01*
X142238366Y-86215463D01*
X142196629Y-86259138D01*
X142193715Y-86263410D01*
X142193714Y-86263411D01*
X142155563Y-86319338D01*
X142070743Y-86443680D01*
X142055003Y-86477590D01*
X142007182Y-86580612D01*
X141976688Y-86646305D01*
X141916989Y-86861570D01*
X141893251Y-87083695D01*
X141893548Y-87088848D01*
X141893548Y-87088851D01*
X141899011Y-87183590D01*
X141906110Y-87306715D01*
X141907247Y-87311761D01*
X141907248Y-87311767D01*
X141922295Y-87378533D01*
X141955222Y-87524639D01*
X142039266Y-87731616D01*
X142155987Y-87922088D01*
X142302250Y-88090938D01*
X142474126Y-88233632D01*
X142544595Y-88274811D01*
X142547445Y-88276476D01*
X142596169Y-88328114D01*
X142609240Y-88397897D01*
X142582509Y-88463669D01*
X142542055Y-88497027D01*
X142529607Y-88503507D01*
X142525474Y-88506610D01*
X142525471Y-88506612D01*
X142376991Y-88618094D01*
X142350965Y-88637635D01*
X142347393Y-88641373D01*
X142206091Y-88789237D01*
X142196629Y-88799138D01*
X142070743Y-88983680D01*
X142032154Y-89066813D01*
X141995471Y-89145841D01*
X141976688Y-89186305D01*
X141916989Y-89401570D01*
X141893251Y-89623695D01*
X141906110Y-89846715D01*
X141907247Y-89851761D01*
X141907248Y-89851767D01*
X141928247Y-89944944D01*
X141955222Y-90064639D01*
X142039266Y-90271616D01*
X142155987Y-90462088D01*
X142302250Y-90630938D01*
X142474126Y-90773632D01*
X142494436Y-90785500D01*
X142547445Y-90816476D01*
X142596169Y-90868114D01*
X142609240Y-90937897D01*
X142582509Y-91003669D01*
X142542055Y-91037027D01*
X142529607Y-91043507D01*
X142525474Y-91046610D01*
X142525471Y-91046612D01*
X142355100Y-91174530D01*
X142350965Y-91177635D01*
X142347393Y-91181373D01*
X142238329Y-91295502D01*
X142196629Y-91339138D01*
X142193715Y-91343410D01*
X142193714Y-91343411D01*
X142150538Y-91406705D01*
X142070743Y-91523680D01*
X142055003Y-91557590D01*
X142014582Y-91644670D01*
X141976688Y-91726305D01*
X141916989Y-91941570D01*
X141893251Y-92163695D01*
X141893548Y-92168848D01*
X141893548Y-92168851D01*
X141901093Y-92299701D01*
X141906110Y-92386715D01*
X141907247Y-92391761D01*
X141907248Y-92391767D01*
X141907762Y-92394046D01*
X141955222Y-92604639D01*
X142039266Y-92811616D01*
X142155987Y-93002088D01*
X142302250Y-93170938D01*
X142474126Y-93313632D01*
X142530373Y-93346500D01*
X142547445Y-93356476D01*
X142596169Y-93408114D01*
X142609240Y-93477897D01*
X142582509Y-93543669D01*
X142542055Y-93577027D01*
X142529607Y-93583507D01*
X142525474Y-93586610D01*
X142525471Y-93586612D01*
X142355100Y-93714530D01*
X142350965Y-93717635D01*
X142347393Y-93721373D01*
X142211087Y-93864009D01*
X142196629Y-93879138D01*
X142193715Y-93883410D01*
X142193714Y-93883411D01*
X142147570Y-93951056D01*
X142070743Y-94063680D01*
X142024471Y-94163365D01*
X141993761Y-94229525D01*
X141976688Y-94266305D01*
X141916989Y-94481570D01*
X141893251Y-94703695D01*
X141893548Y-94708848D01*
X141893548Y-94708851D01*
X141899011Y-94803590D01*
X141906110Y-94926715D01*
X141907247Y-94931761D01*
X141907248Y-94931767D01*
X141927119Y-95019939D01*
X141955222Y-95144639D01*
X142039266Y-95351616D01*
X142050971Y-95370717D01*
X142152136Y-95535803D01*
X142155987Y-95542088D01*
X142302250Y-95710938D01*
X142474126Y-95853632D01*
X142547955Y-95896774D01*
X142596679Y-95948412D01*
X142609750Y-96018195D01*
X142583019Y-96083967D01*
X142542562Y-96117327D01*
X142534457Y-96121546D01*
X142525738Y-96127036D01*
X142355433Y-96254905D01*
X142347726Y-96261748D01*
X142200590Y-96415717D01*
X142194104Y-96423727D01*
X142074098Y-96599649D01*
X142069000Y-96608623D01*
X141979338Y-96801783D01*
X141975775Y-96811470D01*
X141920389Y-97011183D01*
X141921912Y-97019607D01*
X141934292Y-97023000D01*
X144574344Y-97023000D01*
X144587875Y-97019027D01*
X144589180Y-97009947D01*
X144547214Y-96842875D01*
X144543894Y-96833124D01*
X144458972Y-96637814D01*
X144454105Y-96628739D01*
X144338426Y-96449926D01*
X144332136Y-96441757D01*
X144188806Y-96284240D01*
X144181273Y-96277215D01*
X144014139Y-96145222D01*
X144005556Y-96139520D01*
X143968602Y-96119120D01*
X143918631Y-96068687D01*
X143903859Y-95999245D01*
X143928975Y-95932839D01*
X143956327Y-95906232D01*
X144013298Y-95865595D01*
X144135860Y-95778173D01*
X144294096Y-95620489D01*
X144342541Y-95553071D01*
X144421435Y-95443277D01*
X144424453Y-95439077D01*
X144427257Y-95433405D01*
X144521136Y-95243453D01*
X144521137Y-95243451D01*
X144523430Y-95238811D01*
X144563395Y-95107271D01*
X144586865Y-95030023D01*
X144586865Y-95030021D01*
X144588370Y-95025069D01*
X144617529Y-94803590D01*
X144618257Y-94773803D01*
X144619074Y-94740365D01*
X144619074Y-94740361D01*
X144619156Y-94737000D01*
X144600852Y-94514361D01*
X144546431Y-94297702D01*
X144457354Y-94092840D01*
X144388602Y-93986565D01*
X144338822Y-93909617D01*
X144338820Y-93909614D01*
X144336014Y-93905277D01*
X144185670Y-93740051D01*
X144181619Y-93736852D01*
X144181615Y-93736848D01*
X144014414Y-93604800D01*
X144014410Y-93604798D01*
X144010359Y-93601598D01*
X143969053Y-93578796D01*
X143919084Y-93528364D01*
X143904312Y-93458921D01*
X143929428Y-93392516D01*
X143956780Y-93365909D01*
X144012032Y-93326498D01*
X144135860Y-93238173D01*
X144143983Y-93230079D01*
X144290435Y-93084137D01*
X144294096Y-93080489D01*
X144299570Y-93072872D01*
X144421435Y-92903277D01*
X144424453Y-92899077D01*
X144513590Y-92718722D01*
X144521136Y-92703453D01*
X144521137Y-92703451D01*
X144523430Y-92698811D01*
X144579032Y-92515803D01*
X144586865Y-92490023D01*
X144586865Y-92490021D01*
X144588370Y-92485069D01*
X144617529Y-92263590D01*
X144618036Y-92242852D01*
X144619074Y-92200365D01*
X144619074Y-92200361D01*
X144619156Y-92197000D01*
X144600852Y-91974361D01*
X144546431Y-91757702D01*
X144457354Y-91552840D01*
X144336014Y-91365277D01*
X144185670Y-91200051D01*
X144181619Y-91196852D01*
X144181615Y-91196848D01*
X144014414Y-91064800D01*
X144014410Y-91064798D01*
X144010359Y-91061598D01*
X143969053Y-91038796D01*
X143919084Y-90988364D01*
X143904312Y-90918921D01*
X143929428Y-90852516D01*
X143956780Y-90825909D01*
X144013431Y-90785500D01*
X144135860Y-90698173D01*
X144294096Y-90540489D01*
X144353594Y-90457689D01*
X144421435Y-90363277D01*
X144424453Y-90359077D01*
X144426746Y-90354437D01*
X144428446Y-90351608D01*
X144480674Y-90303518D01*
X144536451Y-90290500D01*
X154366406Y-90290500D01*
X154434527Y-90310502D01*
X154455501Y-90327405D01*
X155008686Y-90880590D01*
X155042712Y-90942902D01*
X155037647Y-91013717D01*
X154995100Y-91070553D01*
X154928580Y-91095364D01*
X154874055Y-91086088D01*
X154874029Y-91086178D01*
X154873247Y-91085951D01*
X154869551Y-91085322D01*
X154866420Y-91083967D01*
X154866419Y-91083967D01*
X154859145Y-91080819D01*
X154851322Y-91079580D01*
X154851312Y-91079577D01*
X154815476Y-91073901D01*
X154803856Y-91071495D01*
X154768711Y-91062472D01*
X154768710Y-91062472D01*
X154761030Y-91060500D01*
X154740776Y-91060500D01*
X154721065Y-91058949D01*
X154708886Y-91057020D01*
X154701057Y-91055780D01*
X154693165Y-91056526D01*
X154657039Y-91059941D01*
X154645181Y-91060500D01*
X149552200Y-91060500D01*
X149484079Y-91040498D01*
X149464853Y-91024157D01*
X149464580Y-91024460D01*
X149459668Y-91020037D01*
X149455253Y-91015134D01*
X149300752Y-90902882D01*
X149294724Y-90900198D01*
X149294722Y-90900197D01*
X149132319Y-90827891D01*
X149132318Y-90827891D01*
X149126288Y-90825206D01*
X149032888Y-90805353D01*
X148945944Y-90786872D01*
X148945939Y-90786872D01*
X148939487Y-90785500D01*
X148748513Y-90785500D01*
X148742061Y-90786872D01*
X148742056Y-90786872D01*
X148655112Y-90805353D01*
X148561712Y-90825206D01*
X148555682Y-90827891D01*
X148555681Y-90827891D01*
X148393278Y-90900197D01*
X148393276Y-90900198D01*
X148387248Y-90902882D01*
X148232747Y-91015134D01*
X148228326Y-91020044D01*
X148228325Y-91020045D01*
X148169550Y-91085322D01*
X148104960Y-91157056D01*
X148009473Y-91322444D01*
X147950458Y-91504072D01*
X147949768Y-91510633D01*
X147949768Y-91510635D01*
X147945789Y-91548492D01*
X147930496Y-91694000D01*
X147950458Y-91883928D01*
X148009473Y-92065556D01*
X148104960Y-92230944D01*
X148109378Y-92235851D01*
X148109379Y-92235852D01*
X148160629Y-92292771D01*
X148232747Y-92372866D01*
X148254279Y-92388510D01*
X148380120Y-92479939D01*
X148387248Y-92485118D01*
X148393276Y-92487802D01*
X148393278Y-92487803D01*
X148555681Y-92560109D01*
X148561712Y-92562794D01*
X148655113Y-92582647D01*
X148742056Y-92601128D01*
X148742061Y-92601128D01*
X148748513Y-92602500D01*
X148939487Y-92602500D01*
X148945939Y-92601128D01*
X148945944Y-92601128D01*
X149032887Y-92582647D01*
X149126288Y-92562794D01*
X149132319Y-92560109D01*
X149294722Y-92487803D01*
X149294724Y-92487802D01*
X149300752Y-92485118D01*
X149307881Y-92479939D01*
X149443305Y-92381547D01*
X149455253Y-92372866D01*
X149459668Y-92367963D01*
X149464580Y-92363540D01*
X149465705Y-92364789D01*
X149519014Y-92331949D01*
X149552200Y-92327500D01*
X154366406Y-92327500D01*
X154434527Y-92347502D01*
X154455501Y-92364405D01*
X160486976Y-98395881D01*
X160521001Y-98458191D01*
X160519694Y-98487795D01*
X160523000Y-98487795D01*
X160523000Y-99950000D01*
X160502998Y-100018121D01*
X160449342Y-100064614D01*
X160397000Y-100076000D01*
X160141000Y-100076000D01*
X160072879Y-100055998D01*
X160026386Y-100002342D01*
X160015000Y-99950000D01*
X160015000Y-98505102D01*
X160011082Y-98491758D01*
X159996806Y-98489771D01*
X159958324Y-98495660D01*
X159948288Y-98498051D01*
X159745868Y-98564212D01*
X159736359Y-98568209D01*
X159547463Y-98666542D01*
X159538738Y-98672036D01*
X159368433Y-98799905D01*
X159360726Y-98806748D01*
X159213590Y-98960717D01*
X159207109Y-98968722D01*
X159102498Y-99122074D01*
X159047587Y-99167076D01*
X158977062Y-99175247D01*
X158913315Y-99143993D01*
X158892618Y-99119509D01*
X158811822Y-98994617D01*
X158811820Y-98994614D01*
X158809014Y-98990277D01*
X158658670Y-98825051D01*
X158654619Y-98821852D01*
X158654615Y-98821848D01*
X158487414Y-98689800D01*
X158487410Y-98689798D01*
X158483359Y-98686598D01*
X158478831Y-98684098D01*
X158371712Y-98624966D01*
X158287789Y-98578638D01*
X158282920Y-98576914D01*
X158282916Y-98576912D01*
X158082087Y-98505795D01*
X158082083Y-98505794D01*
X158077212Y-98504069D01*
X158072119Y-98503162D01*
X158072116Y-98503161D01*
X157862373Y-98465800D01*
X157862367Y-98465799D01*
X157857284Y-98464894D01*
X157783452Y-98463992D01*
X157639081Y-98462228D01*
X157639079Y-98462228D01*
X157633911Y-98462165D01*
X157413091Y-98495955D01*
X157200756Y-98565357D01*
X157161220Y-98585938D01*
X157016790Y-98661124D01*
X157002607Y-98668507D01*
X156998474Y-98671610D01*
X156998471Y-98671612D01*
X156830624Y-98797635D01*
X156823965Y-98802635D01*
X156767536Y-98861684D01*
X156677928Y-98955454D01*
X156669629Y-98964138D01*
X156666720Y-98968403D01*
X156666714Y-98968411D01*
X156633235Y-99017490D01*
X156562204Y-99121618D01*
X156561898Y-99122066D01*
X156506987Y-99167069D01*
X156436462Y-99175240D01*
X156372715Y-99143986D01*
X156352018Y-99119502D01*
X156271426Y-98994926D01*
X156265136Y-98986757D01*
X156121806Y-98829240D01*
X156114273Y-98822215D01*
X155947139Y-98690222D01*
X155938552Y-98684517D01*
X155752117Y-98581599D01*
X155742705Y-98577369D01*
X155541959Y-98506280D01*
X155531988Y-98503646D01*
X155460837Y-98490972D01*
X155447540Y-98492432D01*
X155443000Y-98506989D01*
X155443000Y-99950000D01*
X155422998Y-100018121D01*
X155369342Y-100064614D01*
X155317000Y-100076000D01*
X155061000Y-100076000D01*
X154992879Y-100055998D01*
X154946386Y-100002342D01*
X154935000Y-99950000D01*
X154935000Y-98505102D01*
X154931082Y-98491758D01*
X154916806Y-98489771D01*
X154878324Y-98495660D01*
X154868288Y-98498051D01*
X154665868Y-98564212D01*
X154656364Y-98568207D01*
X154487681Y-98656018D01*
X154418021Y-98669731D01*
X154352006Y-98643606D01*
X154310594Y-98585938D01*
X154303500Y-98544255D01*
X154303500Y-95190524D01*
X154323502Y-95122403D01*
X154335858Y-95106221D01*
X154409040Y-95024944D01*
X154504527Y-94859556D01*
X154563542Y-94677928D01*
X154565138Y-94662749D01*
X154582814Y-94494565D01*
X154583504Y-94488000D01*
X154563542Y-94298072D01*
X154504527Y-94116444D01*
X154409040Y-93951056D01*
X154367821Y-93905277D01*
X154285675Y-93814045D01*
X154285674Y-93814044D01*
X154281253Y-93809134D01*
X154126752Y-93696882D01*
X154120724Y-93694198D01*
X154120722Y-93694197D01*
X153958319Y-93621891D01*
X153958318Y-93621891D01*
X153952288Y-93619206D01*
X153857716Y-93599104D01*
X153771944Y-93580872D01*
X153771939Y-93580872D01*
X153765487Y-93579500D01*
X153574513Y-93579500D01*
X153568061Y-93580872D01*
X153568056Y-93580872D01*
X153482284Y-93599104D01*
X153387712Y-93619206D01*
X153213248Y-93696882D01*
X153142882Y-93706316D01*
X153110753Y-93696882D01*
X153110752Y-93696882D01*
X152936288Y-93619206D01*
X152841716Y-93599104D01*
X152755944Y-93580872D01*
X152755939Y-93580872D01*
X152749487Y-93579500D01*
X152558513Y-93579500D01*
X152552061Y-93580872D01*
X152552056Y-93580872D01*
X152466284Y-93599104D01*
X152371712Y-93619206D01*
X152365682Y-93621891D01*
X152365681Y-93621891D01*
X152203278Y-93694197D01*
X152203276Y-93694198D01*
X152197248Y-93696882D01*
X152042747Y-93809134D01*
X152038326Y-93814044D01*
X152038325Y-93814045D01*
X151956180Y-93905277D01*
X151914960Y-93951056D01*
X151819473Y-94116444D01*
X151760458Y-94298072D01*
X151759768Y-94304633D01*
X151759768Y-94304635D01*
X151743093Y-94463293D01*
X151716080Y-94528950D01*
X151706878Y-94539218D01*
X150710800Y-95535295D01*
X149716747Y-96529348D01*
X149708461Y-96536888D01*
X149701982Y-96541000D01*
X149696557Y-96546777D01*
X149655357Y-96590651D01*
X149652602Y-96593493D01*
X149632865Y-96613230D01*
X149630385Y-96616427D01*
X149622682Y-96625447D01*
X149592414Y-96657679D01*
X149588595Y-96664625D01*
X149588593Y-96664628D01*
X149582652Y-96675434D01*
X149571801Y-96691953D01*
X149559386Y-96707959D01*
X149556241Y-96715228D01*
X149556238Y-96715232D01*
X149541826Y-96748537D01*
X149536609Y-96759187D01*
X149515305Y-96797940D01*
X149513334Y-96805615D01*
X149513334Y-96805616D01*
X149510267Y-96817562D01*
X149503863Y-96836266D01*
X149495819Y-96854855D01*
X149494580Y-96862678D01*
X149494577Y-96862688D01*
X149488901Y-96898524D01*
X149486495Y-96910144D01*
X149480725Y-96932619D01*
X149475500Y-96952970D01*
X149475500Y-96973224D01*
X149473949Y-96992934D01*
X149470780Y-97012943D01*
X149471526Y-97020835D01*
X149474941Y-97056961D01*
X149475500Y-97068819D01*
X149475500Y-98543692D01*
X149455498Y-98611813D01*
X149407683Y-98655453D01*
X149382607Y-98668507D01*
X149378474Y-98671610D01*
X149378471Y-98671612D01*
X149210624Y-98797635D01*
X149203965Y-98802635D01*
X149147537Y-98861684D01*
X149123283Y-98887064D01*
X149061759Y-98922494D01*
X148990846Y-98919037D01*
X148933060Y-98877791D01*
X148914207Y-98844243D01*
X148872767Y-98733703D01*
X148869615Y-98725295D01*
X148782261Y-98608739D01*
X148665705Y-98521385D01*
X148529316Y-98470255D01*
X148467134Y-98463500D01*
X146670866Y-98463500D01*
X146608684Y-98470255D01*
X146472295Y-98521385D01*
X146355739Y-98608739D01*
X146268385Y-98725295D01*
X146217255Y-98861684D01*
X146210500Y-98923866D01*
X146210500Y-100720134D01*
X146217255Y-100782316D01*
X146268385Y-100918705D01*
X146355739Y-101035261D01*
X146459293Y-101112870D01*
X146467037Y-101118674D01*
X146509552Y-101175533D01*
X146514578Y-101246352D01*
X146480518Y-101308645D01*
X146418187Y-101342635D01*
X146391472Y-101345500D01*
X143747461Y-101345500D01*
X143679340Y-101325498D01*
X143632847Y-101271842D01*
X143622743Y-101201568D01*
X143652237Y-101136988D01*
X143711253Y-101098814D01*
X143748429Y-101087661D01*
X143748434Y-101087659D01*
X143753384Y-101086174D01*
X143953994Y-100987896D01*
X144135860Y-100858173D01*
X144156352Y-100837753D01*
X144231251Y-100763115D01*
X144294096Y-100700489D01*
X144353594Y-100617689D01*
X144421435Y-100523277D01*
X144424453Y-100519077D01*
X144459395Y-100448378D01*
X144521136Y-100323453D01*
X144521137Y-100323451D01*
X144523430Y-100318811D01*
X144588370Y-100105069D01*
X144617529Y-99883590D01*
X144619156Y-99817000D01*
X144600852Y-99594361D01*
X144546431Y-99377702D01*
X144457354Y-99172840D01*
X144373844Y-99043753D01*
X144338822Y-98989617D01*
X144338820Y-98989614D01*
X144336014Y-98985277D01*
X144185670Y-98820051D01*
X144181619Y-98816852D01*
X144181615Y-98816848D01*
X144014414Y-98684800D01*
X144014410Y-98684798D01*
X144010359Y-98681598D01*
X143968569Y-98658529D01*
X143918598Y-98608097D01*
X143903826Y-98538654D01*
X143928942Y-98472248D01*
X143956294Y-98445641D01*
X144131328Y-98320792D01*
X144139200Y-98314139D01*
X144290052Y-98163812D01*
X144296730Y-98155965D01*
X144421003Y-97983020D01*
X144426313Y-97974183D01*
X144520670Y-97783267D01*
X144524469Y-97773672D01*
X144586377Y-97569910D01*
X144588555Y-97559837D01*
X144589986Y-97548962D01*
X144587775Y-97534778D01*
X144574617Y-97531000D01*
X141939225Y-97531000D01*
X141925694Y-97534973D01*
X141924257Y-97544966D01*
X141954565Y-97679446D01*
X141957645Y-97689275D01*
X142037770Y-97886603D01*
X142042413Y-97895794D01*
X142153694Y-98077388D01*
X142159777Y-98085699D01*
X142299213Y-98246667D01*
X142306580Y-98253883D01*
X142470434Y-98389916D01*
X142478881Y-98395831D01*
X142547969Y-98436203D01*
X142596693Y-98487842D01*
X142609764Y-98557625D01*
X142583033Y-98623396D01*
X142542584Y-98656752D01*
X142529607Y-98663507D01*
X142525474Y-98666610D01*
X142525471Y-98666612D01*
X142355100Y-98794530D01*
X142350965Y-98797635D01*
X142327476Y-98822215D01*
X142203895Y-98951535D01*
X142196629Y-98959138D01*
X142193715Y-98963410D01*
X142193714Y-98963411D01*
X142154909Y-99020297D01*
X142070743Y-99143680D01*
X141976688Y-99346305D01*
X141916989Y-99561570D01*
X141893251Y-99783695D01*
X141893548Y-99788848D01*
X141893548Y-99788851D01*
X141899011Y-99883590D01*
X141906110Y-100006715D01*
X141907247Y-100011761D01*
X141907248Y-100011767D01*
X141919158Y-100064614D01*
X141955222Y-100224639D01*
X142039266Y-100431616D01*
X142090019Y-100514438D01*
X142149404Y-100611345D01*
X142155987Y-100622088D01*
X142302250Y-100790938D01*
X142474126Y-100933632D01*
X142667000Y-101046338D01*
X142671825Y-101048180D01*
X142671826Y-101048181D01*
X142812214Y-101101790D01*
X142868717Y-101144778D01*
X142893010Y-101211489D01*
X142877380Y-101280743D01*
X142826789Y-101330554D01*
X142767265Y-101345500D01*
X138037158Y-101345500D01*
X137969037Y-101325498D01*
X137922544Y-101271842D01*
X137912440Y-101201568D01*
X137941934Y-101136988D01*
X137955914Y-101123191D01*
X138044747Y-101048254D01*
X138048819Y-101044819D01*
X138200209Y-100865356D01*
X138319196Y-100662952D01*
X138402380Y-100443393D01*
X138403704Y-100436616D01*
X138446544Y-100217243D01*
X138447381Y-100212957D01*
X138450500Y-100155364D01*
X138450500Y-98220636D01*
X138447381Y-98163043D01*
X138402380Y-97932607D01*
X138319196Y-97713048D01*
X138200209Y-97510644D01*
X138048819Y-97331181D01*
X137869356Y-97179791D01*
X137666952Y-97060804D01*
X137480932Y-96990327D01*
X137424317Y-96947488D01*
X137399849Y-96880840D01*
X137415298Y-96811545D01*
X137465759Y-96761602D01*
X137525573Y-96746500D01*
X140990134Y-96746500D01*
X141052316Y-96739745D01*
X141188705Y-96688615D01*
X141305261Y-96601261D01*
X141392615Y-96484705D01*
X141443745Y-96348316D01*
X141450500Y-96286134D01*
X141450500Y-92689866D01*
X141443745Y-92627684D01*
X141392615Y-92491295D01*
X141305261Y-92374739D01*
X141188705Y-92287385D01*
X141116296Y-92260240D01*
X141059714Y-92239028D01*
X141059711Y-92239027D01*
X141052316Y-92236255D01*
X141046547Y-92235628D01*
X140985709Y-92200874D01*
X140952887Y-92137919D01*
X140950500Y-92113507D01*
X140950500Y-84822564D01*
X140970502Y-84754443D01*
X140987404Y-84733469D01*
X141647978Y-84072894D01*
X141710291Y-84038869D01*
X141737074Y-84035989D01*
X141772000Y-84035989D01*
X141840121Y-84055991D01*
X141886614Y-84109647D01*
X141898000Y-84161989D01*
X141898000Y-84304885D01*
X141902475Y-84320124D01*
X141903865Y-84321329D01*
X141911548Y-84323000D01*
X144595884Y-84323000D01*
X144611123Y-84318525D01*
X144612328Y-84317135D01*
X144613999Y-84309452D01*
X144613999Y-84161989D01*
X144634001Y-84093868D01*
X144687657Y-84047375D01*
X144739999Y-84035989D01*
X151017299Y-84035989D01*
X151085420Y-84055991D01*
X151106394Y-84072894D01*
X165520122Y-98486622D01*
X165525030Y-98491816D01*
X165572957Y-98545513D01*
X165577413Y-98550506D01*
X165665054Y-98623396D01*
X165665233Y-98623545D01*
X165666885Y-98624943D01*
X165753466Y-98699546D01*
X165759519Y-98703365D01*
X165772850Y-98713051D01*
X165774770Y-98714648D01*
X165774778Y-98714654D01*
X165778365Y-98717637D01*
X165782355Y-98720058D01*
X165876074Y-98776929D01*
X165877943Y-98778086D01*
X165924504Y-98807463D01*
X165974514Y-98839017D01*
X165978791Y-98840899D01*
X165978793Y-98840900D01*
X165981068Y-98841901D01*
X165995685Y-98849510D01*
X166001814Y-98853229D01*
X166006128Y-98855038D01*
X166107143Y-98897397D01*
X166109164Y-98898265D01*
X166127295Y-98906243D01*
X166213750Y-98944284D01*
X166218257Y-98945513D01*
X166218266Y-98945516D01*
X166220666Y-98946170D01*
X166236243Y-98951533D01*
X166242850Y-98954303D01*
X166247378Y-98955453D01*
X166247381Y-98955454D01*
X166353568Y-98982422D01*
X166355686Y-98982980D01*
X166465916Y-99013032D01*
X166470556Y-99013581D01*
X166470561Y-99013582D01*
X166473022Y-99013873D01*
X166489238Y-99016878D01*
X166496178Y-99018641D01*
X166545739Y-99023632D01*
X166609823Y-99030085D01*
X166612008Y-99030324D01*
X166710715Y-99042006D01*
X166725475Y-99043753D01*
X166830014Y-99040559D01*
X166833862Y-99040500D01*
X171223198Y-99040500D01*
X171291319Y-99060502D01*
X171324024Y-99090935D01*
X171364739Y-99145261D01*
X171481295Y-99232615D01*
X171617684Y-99283745D01*
X171679866Y-99290500D01*
X174776134Y-99290500D01*
X174838316Y-99283745D01*
X174974705Y-99232615D01*
X175091261Y-99145261D01*
X175178615Y-99028705D01*
X175229745Y-98892316D01*
X175236500Y-98830134D01*
X175236500Y-95733866D01*
X175229745Y-95671684D01*
X175178615Y-95535295D01*
X175091261Y-95418739D01*
X174974705Y-95331385D01*
X174838316Y-95280255D01*
X174776134Y-95273500D01*
X172167595Y-95273500D01*
X172099474Y-95253498D01*
X172078500Y-95236595D01*
X170633559Y-93791654D01*
X172003618Y-93791654D01*
X172010673Y-93801627D01*
X172041679Y-93827551D01*
X172048598Y-93832579D01*
X172273272Y-93973515D01*
X172280807Y-93977556D01*
X172522520Y-94086694D01*
X172530551Y-94089680D01*
X172784832Y-94165002D01*
X172793184Y-94166869D01*
X173055340Y-94206984D01*
X173063874Y-94207700D01*
X173329045Y-94211867D01*
X173337596Y-94211418D01*
X173600883Y-94179557D01*
X173609284Y-94177955D01*
X173865824Y-94110653D01*
X173873926Y-94107926D01*
X174118949Y-94006434D01*
X174126617Y-94002628D01*
X174355598Y-93868822D01*
X174362679Y-93864009D01*
X174442655Y-93801301D01*
X174451125Y-93789442D01*
X174444608Y-93777818D01*
X173240812Y-92574022D01*
X173226868Y-92566408D01*
X173225035Y-92566539D01*
X173218420Y-92570790D01*
X172010910Y-93778300D01*
X172003618Y-93791654D01*
X170633559Y-93791654D01*
X170429652Y-93587747D01*
X170422112Y-93579461D01*
X170418000Y-93572982D01*
X170368348Y-93526356D01*
X170365507Y-93523602D01*
X170345770Y-93503865D01*
X170342573Y-93501385D01*
X170333551Y-93493680D01*
X170333506Y-93493638D01*
X170301321Y-93463414D01*
X170294375Y-93459595D01*
X170294372Y-93459593D01*
X170283566Y-93453652D01*
X170267047Y-93442801D01*
X170261048Y-93438148D01*
X170251041Y-93430386D01*
X170243772Y-93427241D01*
X170243768Y-93427238D01*
X170210463Y-93412826D01*
X170199813Y-93407609D01*
X170161060Y-93386305D01*
X170141437Y-93381267D01*
X170122734Y-93374863D01*
X170111420Y-93369967D01*
X170111419Y-93369967D01*
X170104145Y-93366819D01*
X170096322Y-93365580D01*
X170096312Y-93365577D01*
X170060476Y-93359901D01*
X170048856Y-93357495D01*
X170013711Y-93348472D01*
X170013710Y-93348472D01*
X170006030Y-93346500D01*
X169985776Y-93346500D01*
X169966065Y-93344949D01*
X169953886Y-93343020D01*
X169946057Y-93341780D01*
X169938165Y-93342526D01*
X169902039Y-93345941D01*
X169890181Y-93346500D01*
X169872200Y-93346500D01*
X169804079Y-93326498D01*
X169784853Y-93310157D01*
X169784580Y-93310460D01*
X169779668Y-93306037D01*
X169775253Y-93301134D01*
X169688595Y-93238173D01*
X169626094Y-93192763D01*
X169626093Y-93192762D01*
X169620752Y-93188882D01*
X169614724Y-93186198D01*
X169614722Y-93186197D01*
X169452319Y-93113891D01*
X169452318Y-93113891D01*
X169446288Y-93111206D01*
X169352887Y-93091353D01*
X169265944Y-93072872D01*
X169265939Y-93072872D01*
X169259487Y-93071500D01*
X169068513Y-93071500D01*
X169062061Y-93072872D01*
X169062056Y-93072872D01*
X168975113Y-93091353D01*
X168881712Y-93111206D01*
X168875682Y-93113891D01*
X168875681Y-93113891D01*
X168713278Y-93186197D01*
X168713276Y-93186198D01*
X168707248Y-93188882D01*
X168552747Y-93301134D01*
X168548326Y-93306044D01*
X168548325Y-93306045D01*
X168439203Y-93427238D01*
X168424960Y-93443056D01*
X168395732Y-93493680D01*
X168333426Y-93601598D01*
X168329473Y-93608444D01*
X168270458Y-93790072D01*
X168269768Y-93796633D01*
X168269768Y-93796635D01*
X168261720Y-93873206D01*
X168250496Y-93980000D01*
X168251186Y-93986565D01*
X168258826Y-94059251D01*
X168270458Y-94169928D01*
X168329473Y-94351556D01*
X168424960Y-94516944D01*
X168429378Y-94521851D01*
X168429379Y-94521852D01*
X168456589Y-94552072D01*
X168552747Y-94658866D01*
X168607384Y-94698562D01*
X168676207Y-94748565D01*
X168707248Y-94771118D01*
X168713276Y-94773802D01*
X168713278Y-94773803D01*
X168787634Y-94806908D01*
X168881712Y-94848794D01*
X168975113Y-94868647D01*
X169062056Y-94887128D01*
X169062061Y-94887128D01*
X169068513Y-94888500D01*
X169259487Y-94888500D01*
X169265939Y-94887128D01*
X169265944Y-94887128D01*
X169352888Y-94868647D01*
X169446288Y-94848794D01*
X169540366Y-94806908D01*
X169614722Y-94773803D01*
X169614724Y-94773802D01*
X169620752Y-94771118D01*
X169626090Y-94767240D01*
X169626093Y-94767238D01*
X169649798Y-94750015D01*
X169716666Y-94726157D01*
X169785817Y-94742239D01*
X169812953Y-94762857D01*
X170358501Y-95308405D01*
X170392527Y-95370717D01*
X170387462Y-95441532D01*
X170344915Y-95498368D01*
X170278395Y-95523179D01*
X170269406Y-95523500D01*
X167582980Y-95523500D01*
X167514859Y-95503498D01*
X167493885Y-95486595D01*
X164192494Y-92185204D01*
X171215665Y-92185204D01*
X171230932Y-92449969D01*
X171232005Y-92458470D01*
X171283065Y-92718722D01*
X171285276Y-92726974D01*
X171371184Y-92977894D01*
X171374499Y-92985779D01*
X171493664Y-93222713D01*
X171498020Y-93230079D01*
X171627347Y-93418250D01*
X171637601Y-93426594D01*
X171651342Y-93419448D01*
X172855978Y-92214812D01*
X172862356Y-92203132D01*
X173592408Y-92203132D01*
X173592539Y-92204965D01*
X173596790Y-92211580D01*
X174803730Y-93418520D01*
X174815939Y-93425187D01*
X174827439Y-93416497D01*
X174924831Y-93283913D01*
X174929418Y-93276685D01*
X175055962Y-93043621D01*
X175059530Y-93035827D01*
X175153271Y-92787750D01*
X175155748Y-92779544D01*
X175214954Y-92521038D01*
X175216294Y-92512577D01*
X175240031Y-92246616D01*
X175240277Y-92241677D01*
X175240666Y-92204485D01*
X175240523Y-92199519D01*
X175222362Y-91933123D01*
X175221201Y-91924649D01*
X175167419Y-91664944D01*
X175165120Y-91656709D01*
X175076588Y-91406705D01*
X175073191Y-91398854D01*
X174951550Y-91163178D01*
X174947122Y-91155866D01*
X174828031Y-90986417D01*
X174817509Y-90978037D01*
X174804121Y-90985089D01*
X173600022Y-92189188D01*
X173592408Y-92203132D01*
X172862356Y-92203132D01*
X172863592Y-92200868D01*
X172863461Y-92199035D01*
X172859210Y-92192420D01*
X171651814Y-90985024D01*
X171639804Y-90978466D01*
X171628064Y-90987434D01*
X171519935Y-91137911D01*
X171515418Y-91145196D01*
X171391325Y-91379567D01*
X171387839Y-91387395D01*
X171296700Y-91636446D01*
X171294311Y-91644670D01*
X171237812Y-91903795D01*
X171236563Y-91912250D01*
X171215754Y-92176653D01*
X171215665Y-92185204D01*
X164192494Y-92185204D01*
X162621790Y-90614500D01*
X172004584Y-90614500D01*
X172010980Y-90625770D01*
X173215188Y-91829978D01*
X173229132Y-91837592D01*
X173230965Y-91837461D01*
X173237580Y-91833210D01*
X174444604Y-90626186D01*
X174451795Y-90613017D01*
X174444473Y-90602780D01*
X174397233Y-90564115D01*
X174390261Y-90559160D01*
X174164122Y-90420582D01*
X174156552Y-90416624D01*
X173913704Y-90310022D01*
X173905644Y-90307120D01*
X173650592Y-90234467D01*
X173642214Y-90232685D01*
X173379656Y-90195318D01*
X173371111Y-90194691D01*
X173105908Y-90193302D01*
X173097374Y-90193839D01*
X172834433Y-90228456D01*
X172826035Y-90230149D01*
X172570238Y-90300127D01*
X172562143Y-90302946D01*
X172318199Y-90406997D01*
X172310577Y-90410881D01*
X172083013Y-90547075D01*
X172075981Y-90551962D01*
X172013053Y-90602377D01*
X172004584Y-90614500D01*
X162621790Y-90614500D01*
X162429185Y-90421895D01*
X162395159Y-90359583D01*
X162400224Y-90288768D01*
X162442771Y-90231932D01*
X162467032Y-90217693D01*
X162502719Y-90201805D01*
X162502726Y-90201801D01*
X162508752Y-90199118D01*
X162663253Y-90086866D01*
X162791040Y-89944944D01*
X162886527Y-89779556D01*
X162945542Y-89597928D01*
X162965504Y-89408000D01*
X162945542Y-89218072D01*
X162886527Y-89036444D01*
X162876760Y-89019526D01*
X162806596Y-88898000D01*
X162791040Y-88871056D01*
X162717863Y-88789785D01*
X162687147Y-88725779D01*
X162685500Y-88705476D01*
X162685500Y-87100918D01*
X171214917Y-87100918D01*
X171230682Y-87374320D01*
X171231507Y-87378525D01*
X171231508Y-87378533D01*
X171242127Y-87432657D01*
X171283405Y-87643053D01*
X171284792Y-87647103D01*
X171284793Y-87647108D01*
X171370723Y-87898088D01*
X171372112Y-87902144D01*
X171495160Y-88146799D01*
X171497586Y-88150328D01*
X171497589Y-88150334D01*
X171584285Y-88276476D01*
X171650274Y-88372490D01*
X171653161Y-88375663D01*
X171653162Y-88375664D01*
X171691665Y-88417978D01*
X171834582Y-88575043D01*
X172044675Y-88750707D01*
X172048316Y-88752991D01*
X172273024Y-88893951D01*
X172273028Y-88893953D01*
X172276664Y-88896234D01*
X172344544Y-88926883D01*
X172522345Y-89007164D01*
X172522349Y-89007166D01*
X172526257Y-89008930D01*
X172570209Y-89021949D01*
X172784723Y-89085491D01*
X172784727Y-89085492D01*
X172788836Y-89086709D01*
X172793070Y-89087357D01*
X172793075Y-89087358D01*
X173055298Y-89127483D01*
X173055300Y-89127483D01*
X173059540Y-89128132D01*
X173198912Y-89130322D01*
X173329071Y-89132367D01*
X173329077Y-89132367D01*
X173333362Y-89132434D01*
X173605235Y-89099534D01*
X173870127Y-89030041D01*
X173874087Y-89028401D01*
X173874092Y-89028399D01*
X174024880Y-88965940D01*
X174123136Y-88925241D01*
X174338935Y-88799138D01*
X174355879Y-88789237D01*
X174355880Y-88789236D01*
X174359582Y-88787073D01*
X174575089Y-88618094D01*
X174616809Y-88575043D01*
X174762686Y-88424509D01*
X174765669Y-88421431D01*
X174768202Y-88417983D01*
X174768206Y-88417978D01*
X174925257Y-88204178D01*
X174927795Y-88200723D01*
X174950898Y-88158173D01*
X175056418Y-87963830D01*
X175056419Y-87963828D01*
X175058468Y-87960054D01*
X175143123Y-87736020D01*
X175153751Y-87707895D01*
X175153752Y-87707891D01*
X175155269Y-87703877D01*
X175216407Y-87436933D01*
X175240751Y-87164161D01*
X175241193Y-87122000D01*
X175240852Y-87117000D01*
X175222859Y-86853055D01*
X175222858Y-86853049D01*
X175222567Y-86848778D01*
X175167032Y-86580612D01*
X175075617Y-86322465D01*
X174950013Y-86079112D01*
X174941670Y-86067240D01*
X174868765Y-85963507D01*
X174792545Y-85855057D01*
X174652747Y-85704616D01*
X174609046Y-85657588D01*
X174609043Y-85657585D01*
X174606125Y-85654445D01*
X174602810Y-85651731D01*
X174602806Y-85651728D01*
X174414546Y-85497639D01*
X174394205Y-85480990D01*
X174160704Y-85337901D01*
X174156768Y-85336173D01*
X173913873Y-85229549D01*
X173913869Y-85229548D01*
X173909945Y-85227825D01*
X173646566Y-85152800D01*
X173642324Y-85152196D01*
X173642318Y-85152195D01*
X173441834Y-85123662D01*
X173375443Y-85114213D01*
X173231589Y-85113460D01*
X173105877Y-85112802D01*
X173105871Y-85112802D01*
X173101591Y-85112780D01*
X173097347Y-85113339D01*
X173097343Y-85113339D01*
X172978302Y-85129011D01*
X172830078Y-85148525D01*
X172825938Y-85149658D01*
X172825936Y-85149658D01*
X172753008Y-85169609D01*
X172565928Y-85220788D01*
X172561980Y-85222472D01*
X172317982Y-85326546D01*
X172317978Y-85326548D01*
X172314030Y-85328232D01*
X172195414Y-85399222D01*
X172082725Y-85466664D01*
X172082721Y-85466667D01*
X172079043Y-85468868D01*
X171865318Y-85640094D01*
X171848717Y-85657588D01*
X171722261Y-85790845D01*
X171676808Y-85838742D01*
X171517002Y-86061136D01*
X171388857Y-86303161D01*
X171387385Y-86307184D01*
X171387383Y-86307188D01*
X171325024Y-86477590D01*
X171294743Y-86560337D01*
X171236404Y-86827907D01*
X171236068Y-86832177D01*
X171216273Y-87083695D01*
X171214917Y-87100918D01*
X162685500Y-87100918D01*
X162685500Y-86283584D01*
X162705502Y-86215463D01*
X162722405Y-86194489D01*
X165740683Y-83176211D01*
X165802995Y-83142185D01*
X165873810Y-83147250D01*
X165930646Y-83189797D01*
X165937210Y-83199471D01*
X166029688Y-83350380D01*
X166035777Y-83358699D01*
X166175213Y-83519667D01*
X166182580Y-83526883D01*
X166346434Y-83662916D01*
X166354881Y-83668831D01*
X166423969Y-83709203D01*
X166472693Y-83760842D01*
X166485764Y-83830625D01*
X166459033Y-83896396D01*
X166418584Y-83929752D01*
X166405607Y-83936507D01*
X166401474Y-83939610D01*
X166401471Y-83939612D01*
X166251206Y-84052434D01*
X166226965Y-84070635D01*
X166072629Y-84232138D01*
X165946743Y-84416680D01*
X165852688Y-84619305D01*
X165792989Y-84834570D01*
X165769251Y-85056695D01*
X165769548Y-85061848D01*
X165769548Y-85061851D01*
X165781812Y-85274547D01*
X165782110Y-85279715D01*
X165783247Y-85284761D01*
X165783248Y-85284767D01*
X165803119Y-85372939D01*
X165831222Y-85497639D01*
X165871346Y-85596453D01*
X165909323Y-85689979D01*
X165915266Y-85704616D01*
X165963649Y-85783570D01*
X166028232Y-85888960D01*
X166031987Y-85895088D01*
X166178250Y-86063938D01*
X166350126Y-86206632D01*
X166543000Y-86319338D01*
X166547825Y-86321180D01*
X166547826Y-86321181D01*
X166561771Y-86326506D01*
X166751692Y-86399030D01*
X166756760Y-86400061D01*
X166756763Y-86400062D01*
X166864017Y-86421883D01*
X166970597Y-86443567D01*
X166975772Y-86443757D01*
X166975774Y-86443757D01*
X167188673Y-86451564D01*
X167188677Y-86451564D01*
X167193837Y-86451753D01*
X167198957Y-86451097D01*
X167198959Y-86451097D01*
X167410288Y-86424025D01*
X167410289Y-86424025D01*
X167415416Y-86423368D01*
X167420366Y-86421883D01*
X167624429Y-86360661D01*
X167624434Y-86360659D01*
X167629384Y-86359174D01*
X167829994Y-86260896D01*
X168011860Y-86131173D01*
X168016876Y-86126175D01*
X168150566Y-85992951D01*
X168170096Y-85973489D01*
X168229594Y-85890689D01*
X168297435Y-85796277D01*
X168300453Y-85792077D01*
X168304658Y-85783570D01*
X168397136Y-85596453D01*
X168397137Y-85596451D01*
X168399430Y-85591811D01*
X168464370Y-85378069D01*
X168493529Y-85156590D01*
X168493622Y-85152800D01*
X168495074Y-85093365D01*
X168495074Y-85093361D01*
X168495156Y-85090000D01*
X168476852Y-84867361D01*
X168422431Y-84650702D01*
X168333354Y-84445840D01*
X168212014Y-84258277D01*
X168061670Y-84093051D01*
X168057619Y-84089852D01*
X168057615Y-84089848D01*
X167890414Y-83957800D01*
X167890410Y-83957798D01*
X167886359Y-83954598D01*
X167875130Y-83948399D01*
X167844569Y-83931529D01*
X167794598Y-83881097D01*
X167779826Y-83811654D01*
X167804942Y-83745248D01*
X167832294Y-83718641D01*
X168007328Y-83593792D01*
X168015200Y-83587139D01*
X168166052Y-83436812D01*
X168172730Y-83428965D01*
X168297003Y-83256020D01*
X168302313Y-83247183D01*
X168396670Y-83056267D01*
X168400469Y-83046672D01*
X168462377Y-82842910D01*
X168464555Y-82832837D01*
X168465986Y-82821962D01*
X168463775Y-82807778D01*
X168450617Y-82804000D01*
X167004000Y-82804000D01*
X166935879Y-82783998D01*
X166889386Y-82730342D01*
X166878000Y-82678000D01*
X166878000Y-82422000D01*
X166898002Y-82353879D01*
X166951658Y-82307386D01*
X167004000Y-82296000D01*
X168450344Y-82296000D01*
X168463875Y-82292027D01*
X168465180Y-82282947D01*
X168423214Y-82115875D01*
X168419892Y-82106118D01*
X168390973Y-82039609D01*
X168388633Y-82020918D01*
X171214917Y-82020918D01*
X171230682Y-82294320D01*
X171231507Y-82298525D01*
X171231508Y-82298533D01*
X171233245Y-82307386D01*
X171283405Y-82563053D01*
X171284792Y-82567103D01*
X171284793Y-82567108D01*
X171365900Y-82804000D01*
X171372112Y-82822144D01*
X171414123Y-82905674D01*
X171468783Y-83014353D01*
X171495160Y-83066799D01*
X171497586Y-83070328D01*
X171497589Y-83070334D01*
X171619135Y-83247183D01*
X171650274Y-83292490D01*
X171653161Y-83295663D01*
X171653162Y-83295664D01*
X171710519Y-83358699D01*
X171834582Y-83495043D01*
X172044675Y-83670707D01*
X172048316Y-83672991D01*
X172273024Y-83813951D01*
X172273028Y-83813953D01*
X172276664Y-83816234D01*
X172354971Y-83851591D01*
X172522345Y-83927164D01*
X172522349Y-83927166D01*
X172526257Y-83928930D01*
X172530377Y-83930150D01*
X172530376Y-83930150D01*
X172784723Y-84005491D01*
X172784727Y-84005492D01*
X172788836Y-84006709D01*
X172793070Y-84007357D01*
X172793075Y-84007358D01*
X173055298Y-84047483D01*
X173055300Y-84047483D01*
X173059540Y-84048132D01*
X173198912Y-84050322D01*
X173329071Y-84052367D01*
X173329077Y-84052367D01*
X173333362Y-84052434D01*
X173605235Y-84019534D01*
X173870127Y-83950041D01*
X173874087Y-83948401D01*
X173874092Y-83948399D01*
X174036572Y-83881097D01*
X174123136Y-83845241D01*
X174262240Y-83763955D01*
X174355879Y-83709237D01*
X174355880Y-83709236D01*
X174359582Y-83707073D01*
X174575089Y-83538094D01*
X174585954Y-83526883D01*
X174758579Y-83348747D01*
X174765669Y-83341431D01*
X174768202Y-83337983D01*
X174768206Y-83337978D01*
X174925257Y-83124178D01*
X174927795Y-83120723D01*
X174955154Y-83070334D01*
X175056418Y-82883830D01*
X175056419Y-82883828D01*
X175058468Y-82880054D01*
X175155269Y-82623877D01*
X175216407Y-82356933D01*
X175238792Y-82106118D01*
X175240531Y-82086627D01*
X175240531Y-82086625D01*
X175240751Y-82084161D01*
X175241193Y-82042000D01*
X175234659Y-81946148D01*
X175222859Y-81773055D01*
X175222858Y-81773049D01*
X175222567Y-81768778D01*
X175167032Y-81500612D01*
X175075617Y-81242465D01*
X174950013Y-80999112D01*
X174940040Y-80984921D01*
X174871279Y-80887084D01*
X174792545Y-80775057D01*
X174670428Y-80643643D01*
X174609046Y-80577588D01*
X174609043Y-80577585D01*
X174606125Y-80574445D01*
X174602810Y-80571731D01*
X174602806Y-80571728D01*
X174397523Y-80403706D01*
X174394205Y-80400990D01*
X174160704Y-80257901D01*
X174156768Y-80256173D01*
X173913873Y-80149549D01*
X173913869Y-80149548D01*
X173909945Y-80147825D01*
X173646566Y-80072800D01*
X173642324Y-80072196D01*
X173642318Y-80072195D01*
X173427311Y-80041595D01*
X173375443Y-80034213D01*
X173231589Y-80033460D01*
X173105877Y-80032802D01*
X173105871Y-80032802D01*
X173101591Y-80032780D01*
X173097347Y-80033339D01*
X173097343Y-80033339D01*
X172978302Y-80049011D01*
X172830078Y-80068525D01*
X172825938Y-80069658D01*
X172825936Y-80069658D01*
X172785811Y-80080635D01*
X172565928Y-80140788D01*
X172561980Y-80142472D01*
X172317982Y-80246546D01*
X172317978Y-80246548D01*
X172314030Y-80248232D01*
X172276716Y-80270564D01*
X172082725Y-80386664D01*
X172082721Y-80386667D01*
X172079043Y-80388868D01*
X171865318Y-80560094D01*
X171676808Y-80758742D01*
X171517002Y-80981136D01*
X171388857Y-81223161D01*
X171387385Y-81227184D01*
X171387383Y-81227188D01*
X171380314Y-81246506D01*
X171294743Y-81480337D01*
X171236404Y-81747907D01*
X171236068Y-81752177D01*
X171215683Y-82011191D01*
X171214917Y-82020918D01*
X168388633Y-82020918D01*
X168382152Y-81969162D01*
X168412818Y-81905130D01*
X168431489Y-81889835D01*
X168430784Y-81888926D01*
X168437045Y-81884069D01*
X168443873Y-81880031D01*
X168458194Y-81865710D01*
X168473228Y-81852869D01*
X168483205Y-81845620D01*
X168489618Y-81840961D01*
X168517809Y-81806884D01*
X168525799Y-81798105D01*
X171400500Y-78923405D01*
X171462812Y-78889379D01*
X171489595Y-78886500D01*
X171545487Y-78886500D01*
X171551939Y-78885128D01*
X171551944Y-78885128D01*
X171638888Y-78866647D01*
X171732288Y-78846794D01*
X171738319Y-78844109D01*
X171900722Y-78771803D01*
X171900724Y-78771802D01*
X171906752Y-78769118D01*
X172061253Y-78656866D01*
X172189040Y-78514944D01*
X172284527Y-78349556D01*
X172343542Y-78167928D01*
X172363504Y-77978000D01*
X172360697Y-77951290D01*
X172344232Y-77794635D01*
X172344232Y-77794633D01*
X172343542Y-77788072D01*
X172284527Y-77606444D01*
X172189040Y-77441056D01*
X172061253Y-77299134D01*
X171962157Y-77227136D01*
X171912094Y-77190763D01*
X171912093Y-77190762D01*
X171906752Y-77186882D01*
X171900724Y-77184198D01*
X171900722Y-77184197D01*
X171738319Y-77111891D01*
X171738318Y-77111891D01*
X171732288Y-77109206D01*
X171638887Y-77089353D01*
X171551944Y-77070872D01*
X171551939Y-77070872D01*
X171545487Y-77069500D01*
X171354513Y-77069500D01*
X171348061Y-77070872D01*
X171348056Y-77070872D01*
X171261113Y-77089353D01*
X171167712Y-77109206D01*
X171161682Y-77111891D01*
X171161681Y-77111891D01*
X170999278Y-77184197D01*
X170999276Y-77184198D01*
X170993248Y-77186882D01*
X170987907Y-77190762D01*
X170987906Y-77190763D01*
X170937843Y-77227136D01*
X170838747Y-77299134D01*
X170710960Y-77441056D01*
X170615473Y-77606444D01*
X170556458Y-77788072D01*
X170555768Y-77794633D01*
X170555768Y-77794635D01*
X170547652Y-77871856D01*
X170539304Y-77951290D01*
X170539093Y-77953293D01*
X170512080Y-78018950D01*
X170502878Y-78029218D01*
X168705595Y-79826500D01*
X168643283Y-79860526D01*
X168572467Y-79855461D01*
X168515632Y-79812914D01*
X168490821Y-79746394D01*
X168490500Y-79737405D01*
X168490500Y-79111866D01*
X168483745Y-79049684D01*
X168432615Y-78913295D01*
X168345261Y-78796739D01*
X168228705Y-78709385D01*
X168092316Y-78658255D01*
X168036440Y-78652185D01*
X168033531Y-78651869D01*
X168030134Y-78651500D01*
X166233866Y-78651500D01*
X166230469Y-78651869D01*
X166227560Y-78652185D01*
X166171684Y-78658255D01*
X166035295Y-78709385D01*
X165918739Y-78796739D01*
X165831385Y-78913295D01*
X165780255Y-79049684D01*
X165773500Y-79111866D01*
X165773500Y-79504500D01*
X165753498Y-79572621D01*
X165699842Y-79619114D01*
X165647500Y-79630500D01*
X150060200Y-79630500D01*
X149992079Y-79610498D01*
X149972853Y-79594157D01*
X149972580Y-79594460D01*
X149967668Y-79590037D01*
X149963253Y-79585134D01*
X149808752Y-79472882D01*
X149802724Y-79470198D01*
X149802722Y-79470197D01*
X149640319Y-79397891D01*
X149640318Y-79397891D01*
X149634288Y-79395206D01*
X149540888Y-79375353D01*
X149453944Y-79356872D01*
X149453939Y-79356872D01*
X149447487Y-79355500D01*
X149256513Y-79355500D01*
X149250061Y-79356872D01*
X149250056Y-79356872D01*
X149163112Y-79375353D01*
X149069712Y-79395206D01*
X149063682Y-79397891D01*
X149063681Y-79397891D01*
X148901278Y-79470197D01*
X148901276Y-79470198D01*
X148895248Y-79472882D01*
X148740747Y-79585134D01*
X148612960Y-79727056D01*
X148517473Y-79892444D01*
X148458458Y-80074072D01*
X148438496Y-80264000D01*
X148439186Y-80270564D01*
X148450669Y-80379818D01*
X148437897Y-80449657D01*
X148389395Y-80501504D01*
X148325359Y-80518989D01*
X141011386Y-80518989D01*
X141004243Y-80518786D01*
X140930389Y-80514592D01*
X140930382Y-80514592D01*
X140925713Y-80514327D01*
X140811986Y-80524777D01*
X140809821Y-80524958D01*
X140695837Y-80533428D01*
X140688865Y-80535006D01*
X140672578Y-80537586D01*
X140665439Y-80538242D01*
X140660905Y-80539352D01*
X140660896Y-80539353D01*
X140554419Y-80565408D01*
X140552279Y-80565912D01*
X140473970Y-80583632D01*
X140440912Y-80591112D01*
X140434239Y-80593707D01*
X140418534Y-80598658D01*
X140416103Y-80599253D01*
X140416093Y-80599256D01*
X140411558Y-80600366D01*
X140305732Y-80643661D01*
X140303741Y-80644455D01*
X140197312Y-80685842D01*
X140191263Y-80689299D01*
X140191088Y-80689399D01*
X140176283Y-80696620D01*
X140169650Y-80699334D01*
X140071414Y-80757777D01*
X140069590Y-80758841D01*
X139974453Y-80813216D01*
X139974449Y-80813218D01*
X139970391Y-80815538D01*
X139964769Y-80819970D01*
X139951198Y-80829298D01*
X139945026Y-80832970D01*
X139941418Y-80835917D01*
X139941412Y-80835922D01*
X139856524Y-80905279D01*
X139854809Y-80906655D01*
X139772988Y-80971158D01*
X139765132Y-80977351D01*
X139741080Y-81002919D01*
X139693460Y-81053541D01*
X139690780Y-81056303D01*
X137987378Y-82759705D01*
X137982184Y-82764613D01*
X137923494Y-82816996D01*
X137901942Y-82842910D01*
X137850455Y-82904816D01*
X137849057Y-82906468D01*
X137774454Y-82993049D01*
X137771959Y-82997004D01*
X137770635Y-82999102D01*
X137760949Y-83012433D01*
X137759352Y-83014353D01*
X137759346Y-83014361D01*
X137756363Y-83017948D01*
X137753942Y-83021938D01*
X137697071Y-83115657D01*
X137695914Y-83117526D01*
X137634983Y-83214097D01*
X137633101Y-83218374D01*
X137633100Y-83218376D01*
X137632099Y-83220651D01*
X137624490Y-83235268D01*
X137620771Y-83241397D01*
X137618962Y-83245711D01*
X137576603Y-83346726D01*
X137575735Y-83348747D01*
X137571356Y-83358699D01*
X137529716Y-83453333D01*
X137528487Y-83457840D01*
X137528484Y-83457849D01*
X137527830Y-83460249D01*
X137522467Y-83475826D01*
X137519697Y-83482433D01*
X137518547Y-83486961D01*
X137518546Y-83486964D01*
X137491578Y-83593151D01*
X137491020Y-83595269D01*
X137460968Y-83705499D01*
X137460419Y-83710139D01*
X137460418Y-83710144D01*
X137460127Y-83712605D01*
X137457122Y-83728821D01*
X137455359Y-83735761D01*
X137452520Y-83763955D01*
X137443915Y-83849406D01*
X137443676Y-83851591D01*
X137434215Y-83931529D01*
X137430247Y-83965058D01*
X137432788Y-84048199D01*
X137433441Y-84069584D01*
X137433500Y-84073432D01*
X137433500Y-92113507D01*
X137413498Y-92181628D01*
X137359842Y-92228121D01*
X137338237Y-92235543D01*
X137331684Y-92236255D01*
X137324289Y-92239027D01*
X137324286Y-92239028D01*
X137267704Y-92260240D01*
X137195295Y-92287385D01*
X137078739Y-92374739D01*
X136991385Y-92491295D01*
X136940255Y-92627684D01*
X136933500Y-92689866D01*
X136933500Y-96286134D01*
X136940255Y-96348316D01*
X136991385Y-96484705D01*
X137078739Y-96601261D01*
X137195295Y-96688615D01*
X137203696Y-96691764D01*
X137205918Y-96692981D01*
X137256064Y-96743240D01*
X137271077Y-96812631D01*
X137246191Y-96879123D01*
X137189307Y-96921605D01*
X137145408Y-96929500D01*
X135224636Y-96929500D01*
X135222963Y-96929591D01*
X135222948Y-96929591D01*
X135172773Y-96932309D01*
X135167043Y-96932619D01*
X135162757Y-96933456D01*
X134959118Y-96973224D01*
X134936607Y-96977620D01*
X134717048Y-97060804D01*
X134514644Y-97179791D01*
X134335181Y-97331181D01*
X134183791Y-97510644D01*
X134064804Y-97713048D01*
X133981620Y-97932607D01*
X133936619Y-98163043D01*
X133933500Y-98220636D01*
X133933500Y-100155364D01*
X133936619Y-100212957D01*
X133937456Y-100217243D01*
X133980297Y-100436616D01*
X133981620Y-100443393D01*
X134064804Y-100662952D01*
X134183791Y-100865356D01*
X134335181Y-101044819D01*
X134339253Y-101048254D01*
X134428086Y-101123191D01*
X134467257Y-101182403D01*
X134468198Y-101253394D01*
X134430609Y-101313623D01*
X134366424Y-101343969D01*
X134346842Y-101345500D01*
X129589367Y-101345500D01*
X129569982Y-101344000D01*
X129555148Y-101341690D01*
X129555145Y-101341690D01*
X129546276Y-101340309D01*
X129536341Y-101341608D01*
X129535254Y-101341750D01*
X129506569Y-101342207D01*
X129433259Y-101334987D01*
X129403788Y-101332084D01*
X129379568Y-101327267D01*
X129260454Y-101291134D01*
X129237645Y-101281685D01*
X129127876Y-101223013D01*
X129107345Y-101209295D01*
X129011124Y-101130329D01*
X128993671Y-101112876D01*
X128914705Y-101016655D01*
X128900987Y-100996124D01*
X128842315Y-100886355D01*
X128832866Y-100863546D01*
X128796733Y-100744432D01*
X128791916Y-100720212D01*
X128782711Y-100626755D01*
X128782607Y-100603151D01*
X128782768Y-100601354D01*
X128783576Y-100596552D01*
X128783729Y-100584000D01*
X128779773Y-100556376D01*
X128778500Y-100538514D01*
X128778500Y-95547961D01*
X131184001Y-95547961D01*
X131184209Y-95553071D01*
X131195082Y-95686767D01*
X131196852Y-95697320D01*
X131249967Y-95904185D01*
X131253701Y-95914731D01*
X131342510Y-96108705D01*
X131348046Y-96118412D01*
X131469803Y-96293597D01*
X131476976Y-96302176D01*
X131627824Y-96453024D01*
X131636403Y-96460197D01*
X131811588Y-96581954D01*
X131821295Y-96587490D01*
X132015269Y-96676299D01*
X132025815Y-96680033D01*
X132232679Y-96733147D01*
X132243234Y-96734918D01*
X132376930Y-96745793D01*
X132382036Y-96746000D01*
X132919885Y-96746000D01*
X132935124Y-96741525D01*
X132936329Y-96740135D01*
X132938000Y-96732452D01*
X132938000Y-96727884D01*
X133446000Y-96727884D01*
X133450475Y-96743123D01*
X133451865Y-96744328D01*
X133459548Y-96745999D01*
X134001961Y-96745999D01*
X134007071Y-96745791D01*
X134140767Y-96734918D01*
X134151320Y-96733148D01*
X134358185Y-96680033D01*
X134368731Y-96676299D01*
X134562705Y-96587490D01*
X134572412Y-96581954D01*
X134747597Y-96460197D01*
X134756176Y-96453024D01*
X134907024Y-96302176D01*
X134914197Y-96293597D01*
X135035954Y-96118412D01*
X135041490Y-96108705D01*
X135130299Y-95914731D01*
X135134033Y-95904185D01*
X135187147Y-95697321D01*
X135188918Y-95686766D01*
X135199793Y-95553070D01*
X135200000Y-95547964D01*
X135200000Y-94760115D01*
X135195525Y-94744876D01*
X135194135Y-94743671D01*
X135186452Y-94742000D01*
X133464115Y-94742000D01*
X133448876Y-94746475D01*
X133447671Y-94747865D01*
X133446000Y-94755548D01*
X133446000Y-96727884D01*
X132938000Y-96727884D01*
X132938000Y-94760115D01*
X132933525Y-94744876D01*
X132932135Y-94743671D01*
X132924452Y-94742000D01*
X131202116Y-94742000D01*
X131186877Y-94746475D01*
X131185672Y-94747865D01*
X131184001Y-94755548D01*
X131184001Y-95547961D01*
X128778500Y-95547961D01*
X128778500Y-94215885D01*
X131184000Y-94215885D01*
X131188475Y-94231124D01*
X131189865Y-94232329D01*
X131197548Y-94234000D01*
X132919885Y-94234000D01*
X132935124Y-94229525D01*
X132936329Y-94228135D01*
X132938000Y-94220452D01*
X132938000Y-94215885D01*
X133446000Y-94215885D01*
X133450475Y-94231124D01*
X133451865Y-94232329D01*
X133459548Y-94234000D01*
X135181884Y-94234000D01*
X135197123Y-94229525D01*
X135198328Y-94228135D01*
X135199999Y-94220452D01*
X135199999Y-93428039D01*
X135199791Y-93422929D01*
X135188918Y-93289233D01*
X135187148Y-93278680D01*
X135134033Y-93071815D01*
X135130299Y-93061269D01*
X135041490Y-92867295D01*
X135035954Y-92857588D01*
X134914197Y-92682403D01*
X134907024Y-92673824D01*
X134756176Y-92522976D01*
X134747597Y-92515803D01*
X134572412Y-92394046D01*
X134562705Y-92388510D01*
X134368731Y-92299701D01*
X134358185Y-92295967D01*
X134151321Y-92242853D01*
X134140766Y-92241082D01*
X134007070Y-92230207D01*
X134001964Y-92230000D01*
X133464115Y-92230000D01*
X133448876Y-92234475D01*
X133447671Y-92235865D01*
X133446000Y-92243548D01*
X133446000Y-94215885D01*
X132938000Y-94215885D01*
X132938000Y-92248116D01*
X132933525Y-92232877D01*
X132932135Y-92231672D01*
X132924452Y-92230001D01*
X132382039Y-92230001D01*
X132376929Y-92230209D01*
X132243233Y-92241082D01*
X132232680Y-92242852D01*
X132025815Y-92295967D01*
X132015269Y-92299701D01*
X131821295Y-92388510D01*
X131811588Y-92394046D01*
X131636403Y-92515803D01*
X131627824Y-92522976D01*
X131476976Y-92673824D01*
X131469803Y-92682403D01*
X131348046Y-92857588D01*
X131342510Y-92867295D01*
X131253701Y-93061269D01*
X131249967Y-93071815D01*
X131196853Y-93278679D01*
X131195082Y-93289234D01*
X131184207Y-93422930D01*
X131184000Y-93428036D01*
X131184000Y-94215885D01*
X128778500Y-94215885D01*
X128778500Y-72697250D01*
X128780246Y-72676345D01*
X128782770Y-72661344D01*
X128782770Y-72661341D01*
X128783576Y-72656552D01*
X128783729Y-72644000D01*
X128782788Y-72637429D01*
X128782123Y-72607218D01*
X128791916Y-72507789D01*
X128796733Y-72483568D01*
X128832866Y-72364454D01*
X128842315Y-72341645D01*
X128900987Y-72231876D01*
X128914705Y-72211345D01*
X128993671Y-72115124D01*
X129011124Y-72097671D01*
X129107345Y-72018705D01*
X129127876Y-72004987D01*
X129237645Y-71946315D01*
X129260454Y-71936866D01*
X129379568Y-71900733D01*
X129403789Y-71895916D01*
X129499809Y-71886459D01*
X129515868Y-71886909D01*
X129515877Y-71886200D01*
X129524853Y-71886310D01*
X129533724Y-71887691D01*
X129542626Y-71886527D01*
X129542628Y-71886527D01*
X129559059Y-71884378D01*
X129565286Y-71883564D01*
X129581621Y-71882500D01*
X139650633Y-71882500D01*
X139670018Y-71884000D01*
G37*
%TD.AperFunction*%
%TD*%
M02*
