%TF.GenerationSoftware,KiCad,Pcbnew,(6.0.9)*%
%TF.CreationDate,2023-01-18T13:19:17+01:00*%
%TF.ProjectId,WLED_All-in-one_ESP32_Controller,574c4544-5f41-46c6-9c2d-696e2d6f6e65,rev?*%
%TF.SameCoordinates,Original*%
%TF.FileFunction,Paste,Top*%
%TF.FilePolarity,Positive*%
%FSLAX46Y46*%
G04 Gerber Fmt 4.6, Leading zero omitted, Abs format (unit mm)*
G04 Created by KiCad (PCBNEW (6.0.9)) date 2023-01-18 13:19:17*
%MOMM*%
%LPD*%
G01*
G04 APERTURE LIST*
G04 Aperture macros list*
%AMRoundRect*
0 Rectangle with rounded corners*
0 $1 Rounding radius*
0 $2 $3 $4 $5 $6 $7 $8 $9 X,Y pos of 4 corners*
0 Add a 4 corners polygon primitive as box body*
4,1,4,$2,$3,$4,$5,$6,$7,$8,$9,$2,$3,0*
0 Add four circle primitives for the rounded corners*
1,1,$1+$1,$2,$3*
1,1,$1+$1,$4,$5*
1,1,$1+$1,$6,$7*
1,1,$1+$1,$8,$9*
0 Add four rect primitives between the rounded corners*
20,1,$1+$1,$2,$3,$4,$5,0*
20,1,$1+$1,$4,$5,$6,$7,0*
20,1,$1+$1,$6,$7,$8,$9,0*
20,1,$1+$1,$8,$9,$2,$3,0*%
%AMFreePoly0*
4,1,9,3.862500,-0.866500,0.737500,-0.866500,0.737500,-0.450000,-0.737500,-0.450000,-0.737500,0.450000,0.737500,0.450000,0.737500,0.866500,3.862500,0.866500,3.862500,-0.866500,3.862500,-0.866500,$1*%
G04 Aperture macros list end*
%ADD10RoundRect,0.225000X0.225000X0.250000X-0.225000X0.250000X-0.225000X-0.250000X0.225000X-0.250000X0*%
%ADD11R,0.900000X1.300000*%
%ADD12FreePoly0,90.000000*%
%ADD13R,0.300000X0.800000*%
%ADD14RoundRect,0.200000X-0.200000X-0.275000X0.200000X-0.275000X0.200000X0.275000X-0.200000X0.275000X0*%
%ADD15RoundRect,0.225000X-0.225000X-0.250000X0.225000X-0.250000X0.225000X0.250000X-0.225000X0.250000X0*%
%ADD16RoundRect,0.250000X-0.250000X-0.475000X0.250000X-0.475000X0.250000X0.475000X-0.250000X0.475000X0*%
%ADD17RoundRect,0.200000X0.200000X0.275000X-0.200000X0.275000X-0.200000X-0.275000X0.200000X-0.275000X0*%
%ADD18R,2.000000X0.900000*%
%ADD19R,0.900000X2.000000*%
%ADD20R,5.000000X5.000000*%
%ADD21RoundRect,0.250000X-0.325000X-0.450000X0.325000X-0.450000X0.325000X0.450000X-0.325000X0.450000X0*%
%ADD22RoundRect,0.250000X1.750000X1.000000X-1.750000X1.000000X-1.750000X-1.000000X1.750000X-1.000000X0*%
G04 APERTURE END LIST*
D10*
%TO.C,C7*%
X167920000Y-94742000D03*
X166370000Y-94742000D03*
%TD*%
D11*
%TO.C,U1*%
X131850000Y-77088000D03*
D12*
X133350000Y-77000500D03*
D11*
X134850000Y-77088000D03*
%TD*%
D13*
%TO.C,U3*%
X168136000Y-89636000D03*
X167636000Y-89636000D03*
X167136000Y-89636000D03*
X166636000Y-89636000D03*
X166636000Y-92736000D03*
X167136000Y-92736000D03*
X167636000Y-92736000D03*
X168136000Y-92736000D03*
%TD*%
D10*
%TO.C,C6*%
X168161000Y-88138000D03*
X166611000Y-88138000D03*
%TD*%
D14*
%TO.C,R5*%
X166370000Y-96520000D03*
X168020000Y-96520000D03*
%TD*%
D15*
%TO.C,C2*%
X136906000Y-77216000D03*
X138456000Y-77216000D03*
%TD*%
D16*
%TO.C,C3*%
X136906000Y-73914000D03*
X138806000Y-73914000D03*
%TD*%
D17*
%TO.C,R1*%
X144398000Y-81788000D03*
X142748000Y-81788000D03*
%TD*%
%TO.C,R3*%
X168020000Y-100076000D03*
X166370000Y-100076000D03*
%TD*%
D14*
%TO.C,R4*%
X172720000Y-77978000D03*
X174370000Y-77978000D03*
%TD*%
D18*
%TO.C,U2*%
X146948000Y-79037000D03*
X146948000Y-80307000D03*
X146948000Y-81577000D03*
X146948000Y-82847000D03*
X146948000Y-84117000D03*
X146948000Y-85387000D03*
X146948000Y-86657000D03*
X146948000Y-87927000D03*
X146948000Y-89197000D03*
X146948000Y-90467000D03*
X146948000Y-91737000D03*
X146948000Y-93007000D03*
X146948000Y-94277000D03*
X146948000Y-95547000D03*
D19*
X149733000Y-96547000D03*
X151003000Y-96547000D03*
X152273000Y-96547000D03*
X153543000Y-96547000D03*
X154813000Y-96547000D03*
X156083000Y-96547000D03*
X157353000Y-96547000D03*
X158623000Y-96547000D03*
X159893000Y-96547000D03*
X161163000Y-96547000D03*
D18*
X163948000Y-95547000D03*
X163948000Y-94277000D03*
X163948000Y-93007000D03*
X163948000Y-91737000D03*
X163948000Y-90467000D03*
X163948000Y-89197000D03*
X163948000Y-87927000D03*
X163948000Y-86657000D03*
X163948000Y-85387000D03*
X163948000Y-84117000D03*
X163948000Y-82847000D03*
X163948000Y-81577000D03*
X163948000Y-80307000D03*
X163948000Y-79037000D03*
D20*
X154448000Y-86537000D03*
%TD*%
D21*
%TO.C,D1*%
X172702000Y-75692000D03*
X174752000Y-75692000D03*
%TD*%
D17*
%TO.C,R2*%
X168020000Y-98298000D03*
X166370000Y-98298000D03*
%TD*%
D22*
%TO.C,C1*%
X138938000Y-83820000D03*
X130938000Y-83820000D03*
%TD*%
D15*
%TO.C,C4*%
X142748000Y-78740000D03*
X144298000Y-78740000D03*
%TD*%
%TO.C,C5*%
X142748000Y-80264000D03*
X144298000Y-80264000D03*
%TD*%
M02*
